<?xml version="1.0" encoding="UTF-8"?>
<svg xmlns="http://www.w3.org/2000/svg" xmlns:v="https://vecta.io/nano" width="90" height="92">
  <path fill="#0096d3" fill-rule="evenodd" d="M54.65 58.106c-.294 3.507-1.078 12.82-10.523 17.461l1.764 3.589C57.37 73.518 58.322 62.17 58.636 58.44l.334-3.987-3.985-.332-.334 3.985zm23.339-2.28c0 8.853-2.112 15.521-6.645 20.987l3.078 2.556c5.093-6.141 7.567-13.84 7.567-23.542V23.832h7.609L74.701 0 60.467 23.832h7.523v31.995c0 20.029-17.284 31.995-33.995 31.995H15.998v3.999h17.997c18.677 0 37.995-13.462 37.995-35.994V19.833h-4.473l7.263-12.162 7.601 12.162h-4.391v35.994zm-45.993-7.179c0-2.326 1.252-4.825 3.999-4.825s3.999 2.5 3.999 4.825v2.274c0 2.322-1.252 4.821-3.999 4.821s-3.999-2.5-3.999-4.821v-2.274zm-7.999 15.178v7.999h3.999l-.006-7.917c.278-1.106 4.417-4.067 8.005-4.067s7.729 2.962 7.999 3.985v3.999h3.999v-3.999c0-2.546-2.886-5.109-6.277-6.623 1.422-1.576 2.278-3.773 2.278-6.281v-2.274c0-5.031-3.438-8.825-7.999-8.825s-7.999 3.793-7.999 8.825v2.274c0 2.508.856 4.705 2.278 6.281-3.392 1.514-6.277 4.079-6.277 6.623h0zm-15.998.82c0-2.326 1.252-4.825 3.999-4.825s3.999 2.5 3.999 4.825v2.274c0 2.322-1.252 4.821-3.999 4.821s-3.999-2.5-3.999-4.821v-2.274zm3.999 11.192c3.587 0 7.729 2.962 7.999 3.985v3.999h3.999v-3.999c0-2.546-2.886-5.109-6.277-6.623 1.422-1.576 2.278-3.773 2.278-6.281v-2.274c0-5.031-3.438-8.825-7.999-8.825s-7.999 3.793-7.999 8.825v2.274c0 2.508.856 4.705 2.278 6.281C2.886 74.714 0 77.279 0 79.823v11.998h3.999l-.006-11.916c.278-1.106 4.417-4.067 8.005-4.067h0zm39.994-54.911c0 2.322-1.252 4.821-3.999 4.821s-3.999-2.5-3.999-4.821v-2.274c0-2.326 1.252-4.825 3.999-4.825s3.999 2.5 3.999 4.825v2.274zm7.999 12.904c0-2.546-2.886-5.109-6.277-6.623 1.422-1.576 2.278-3.773 2.278-6.281v-2.274c0-5.031-3.438-8.825-7.999-8.825s-7.999 3.793-7.999 8.825v2.274c0 2.508.856 4.705 2.278 6.281-3.392 1.514-6.277 4.079-6.277 6.623v2h3.999l-.006-1.918c.278-1.106 4.417-4.067 8.005-4.067s7.729 2.962 7.999 3.985v5.999h3.999V33.83z"></path>
</svg>
