<?xml version="1.0" encoding="UTF-8"?>
<svg xmlns="http://www.w3.org/2000/svg" xmlns:v="https://vecta.io/nano" width="80" height="96">
  <path fill="#0096d3" fill-rule="evenodd" d="M25.925 91.936h27.919V59.958H25.925v31.978zm-3.988 3.997h35.896V55.961H21.937v39.972zm41.879 0h3.988V55.961h-3.988v39.972zm-51.85 0h3.988V55.961h-3.988v39.972zM0 54.434l6.745 13.519h3.227v-3.997h-.762L3.988 53.491v-3.526h71.793v3.526L70.56 63.956h-.762v3.997h3.227l6.745-13.519v-8.466H0v8.466zm19.942-14.462c0-5.682 4.367-9.989 8.93-11.61l4.483 8.988 6.529-6.543 6.529 6.543 4.483-8.988c4.563 1.621 8.93 5.928 8.93 11.61v3.997h3.988v-3.997c0-8.374-6.968-14.462-13.523-15.941l-1.522-.344-3.45 6.915-5.436-5.448-5.436 5.448-3.45-6.915-1.522.344c-6.555 1.479-13.523 7.567-13.523 15.941v3.997h3.988v-3.997zm13.96-30.265c0-3.256 2.573-5.71 5.983-5.71s5.983 2.454 5.983 5.71v4.283a6 6 0 0 1-5.983 5.996 6 6 0 0 1-5.983-5.996V9.707zm5.983 14.276c5.498 0 9.971-4.483 9.971-9.993V9.707C49.856 4.263 45.477 0 39.885 0s-9.971 4.263-9.971 9.707v4.283c0 5.51 4.473 9.993 9.971 9.993h0z"></path>
</svg>
