<?xml version="1.0" encoding="UTF-8"?>
<svg xmlns="http://www.w3.org/2000/svg" width="25" height="25" viewBox="0 0 25 25">
  <path fill="#FFF" fill-rule="evenodd" d="M1319.432,36.216 C1319.432,29.469 1313.963,24 1307.216,24 C1300.469,24 1295,29.469 1295,36.216 C1295,42.964 1300.469,48.432 1307.216,48.432 C1307.287,48.432 1307.359,48.432 1307.431,48.428 L1307.431,38.922 L1304.806,38.922 L1304.806,35.863 L1307.431,35.863 L1307.431,33.612 C1307.431,31.001 1309.025,29.579 1311.353,29.579 C1312.47,29.579 1313.429,29.66 1313.705,29.698 L1313.705,32.428 L1312.103,32.428 C1310.838,32.428 1310.589,33.028 1310.589,33.911 L1310.589,35.859 L1313.62,35.859 L1313.224,38.917 L1310.589,38.917 L1310.589,47.96 C1315.696,46.495 1319.432,41.795 1319.432,36.216" transform="translate(-1295 -24)"></path>
</svg>
