<?xml version="1.0" encoding="UTF-8"?>
<svg xmlns="http://www.w3.org/2000/svg" xmlns:v="https://vecta.io/nano" width="97" height="76">
  <path fill="#0096d3" fill-rule="evenodd" d="M94.09 71.843h-1.435C92.505 68.045 89.358 65 85.51 65c-1.986 0-3.858.838-5.187 2.241-.789-.347-1.646-.529-2.534-.529-3.079 0-5.649 2.215-6.188 5.131h-1.533a2 2 0 0 0-2.002 1.996 2 2 0 0 0 2.002 1.996h3.431a2 2 0 0 0 2.002-1.996v-.856c0-1.257 1.027-2.279 2.288-2.279.617 0 1.193.241 1.63.682a1.99 1.99 0 0 0 1.772.569c.647-.114 1.197-.535 1.473-1.132.514-1.112 1.632-1.832 2.847-1.832 1.736 0 3.147 1.407 3.147 3.137v1.71a2 2 0 0 0 2.002 1.996h3.431a2 2 0 0 0 2.002-1.996 2 2 0 0 0-2.002-1.996h0zm-44.042 0h-2.074a7.01 7.01 0 0 0-6.935-5.987 6.98 6.98 0 0 0-3.039.688c-1.497-1.676-3.664-2.684-5.97-2.684-4.416 0-8.008 3.58-8.008 7.983h-2.002a2 2 0 0 0-2.002 1.996 2 2 0 0 0 2.002 1.996h4.004a2 2 0 0 0 2.002-1.996v-1.996c0-2.201 1.796-3.991 4.004-3.991 1.547 0 2.969.914 3.625 2.329a2 2 0 0 0 1.473 1.132c.647.108 1.309-.1 1.772-.567a2.98 2.98 0 0 1 2.138-.898c1.656 0 3.003 1.343 3.003 2.993v.998a2 2 0 0 0 2.002 1.996h4.004a2 2 0 0 0 2.002-1.996 2 2 0 0 0-2.002-1.996h0zM52.05 45.9a2 2 0 1 0 4.004 0v-3.991a2 2 0 1 0-4.004 0V45.9zm-10.01 0a2 2 0 1 0 4.004 0v-3.991a2 2 0 1 0-4.004 0V45.9zM52.05 31.93a2 2 0 1 0 4.004 0v-3.991a2 2 0 1 0-4.004 0v3.991zm-10.01 0a2 2 0 1 0 4.004 0v-3.991a2 2 0 1 0-4.004 0v3.991zm12.012-11.974a2 2 0 0 0 2.002-1.996v-3.991a2 2 0 1 0-4.004 0v3.991a2 2 0 0 0 2.002 1.996h0zm-10.01 0a2 2 0 0 0 2.002-1.996v-3.991a2 2 0 1 0-4.004 0v3.991a2 2 0 0 0 2.002 1.996h0zm44.042-.826l-1.415 1.411c-.376.373-.587.882-.587 1.411v39.913a2 2 0 1 0 4.004 0V22.778l1.415-1.411c.376-.373.587-.882.587-1.411v-3.991a2 2 0 0 0-2.002-1.996H66.063V8.809l1.415-1.411c.376-.373.587-.882.587-1.411V1.996A2 2 0 0 0 66.063 0H32.031a2 2 0 0 0-2.002 1.996v3.991c0 .529.21 1.038.587 1.411l1.415 1.411v5.161H8.008a2 2 0 0 0-2.002 1.996v3.991c0 .529.21 1.038.587 1.411l1.415 1.411v49.065H2.002A2 2 0 0 0 0 73.838a2 2 0 0 0 2.002 1.996h14.013a2 2 0 0 0 2.002-1.996 2 2 0 0 0-2.002-1.996h-4.004V21.952c0-.529-.21-1.038-.587-1.411L10.01 19.13v-1.169h22.021v41.908a2 2 0 1 0 4.004 0V7.983c0-.529-.21-1.038-.587-1.411l-1.415-1.411V3.991h30.029v1.169l-1.415 1.411c-.376.373-.587.882-.587 1.411v63.86h-4.004V57.873a2 2 0 0 0-2.002-1.996H44.042a2 2 0 0 0-2.002 1.996v3.991a2 2 0 1 0 4.004 0v-1.996h8.008v13.969a2 2 0 0 0 2.002 1.996h8.008a2 2 0 0 0 2.002-1.996V17.961h22.021v1.169zM72.069 53.882a2 2 0 0 0-2.002 1.996v3.991a2 2 0 1 0 4.004 0v-3.991a2 2 0 0 0-2.002-1.996h0zm8.008 0a2 2 0 0 0-2.002 1.996v3.991a2 2 0 1 0 4.004 0v-3.991a2 2 0 0 0-2.002-1.996h0zm-6.006-11.974a2 2 0 1 0-4.004 0V45.9a2 2 0 1 0 4.004 0v-3.991zm8.008 0a2 2 0 1 0-4.004 0V45.9a2 2 0 1 0 4.004 0v-3.991zm-8.008-13.969a2 2 0 1 0-4.004 0v3.991a2 2 0 1 0 4.004 0v-3.991zm8.008 0a2 2 0 1 0-4.004 0v3.991a2 2 0 1 0 4.004 0v-3.991zm-58.056 31.93a2 2 0 1 0 4.004 0v-3.991a2 2 0 1 0-4.004 0v3.991zm-4.004-3.991a2 2 0 1 0-4.004 0v3.991a2 2 0 1 0 4.004 0v-3.991zm4.004-9.978a2 2 0 1 0 4.004 0v-3.991a2 2 0 1 0-4.004 0V45.9zm-8.008 0a2 2 0 1 0 4.004 0v-3.991a2 2 0 1 0-4.004 0V45.9zm10.01-11.974a2 2 0 0 0 2.002-1.996v-3.991a2 2 0 1 0-4.004 0v3.991a2 2 0 0 0 2.002 1.996h0zm-8.008 0a2 2 0 0 0 2.002-1.996v-3.991a2 2 0 1 0-4.004 0v3.991a2 2 0 0 0 2.002 1.996h0z"></path>
</svg>
