<?xml version="1.0" encoding="UTF-8"?>
<svg xmlns="http://www.w3.org/2000/svg" xmlns:v="https://vecta.io/nano" width="68" height="94">
  <path fill="#0096d3" fill-rule="evenodd" d="M53.845 76.019a4 4 0 0 1-3.988 3.997 4 4 0 0 1-3.988-3.997 4 4 0 0 1 3.988-3.997 4 4 0 0 1 3.988 3.997h0zM33.902 63.372L21.877 52.827c2.423-.831 4.048-3.102 4.048-5.67V43.43c2.983 1.661 5.985 2.61 7.977 2.61s4.996-.945 7.977-2.6v3.717c0 2.568 1.625 4.839 4.048 5.67L33.902 63.372zM19.94 30.041c-.002-.526-.211-1.031-.584-1.403-1.328-1.333-1.406-2.58-1.408-2.584v-5.168l1.41-1.413c.375-.374.584-.883.584-1.413v-5.996c0-3.498 2.331-5.456 4.284-6.484 4.399-2.308 10.777-2.085 14.526.512a2.01 2.01 0 0 0 1.39.34c2.543-.33 4.595.12 5.933 1.299 1.153 1.013 1.787 2.552 1.787 4.333v5.996c0 .53.209 1.039.584 1.413l1.41 1.413v5.122c-.002.05-.08 1.295-1.41 2.63-.375.374-.584.883-.584 1.413 0 6.595-10.54 11.992-13.96 11.992-3.406 0-13.93-5.4-13.962-12.002h0zm16.502-13.039c1.314-.53 2.878-1.321 4.012-2.402.728.486 1.141 1.067 1.55 2.162.387 1.033 1.538 1.559 2.569 1.171s1.554-1.539 1.169-2.574c-1.089-2.918-2.68-4.089-5.061-5.128-.495-.214-1.045-.22-1.542-.02s-.891.592-1.097 1.087c-.104.25-.86 1.097-3.089 1.997-3.608 1.455-8.097 1.867-10.224.935a1.99 1.99 0 0 0-2.624 1.029 2 2 0 0 0 1.029 2.632c1.338.588 2.963.833 4.677.833 2.969 0 6.194-.739 8.633-1.723h0zM51.85 50.535v-.498c0-1.103-.891-1.999-1.994-1.999-.846 0-1.558.53-1.849 1.273l-.776-.26a1.99 1.99 0 0 1-1.364-1.895v-6.422c3.141-2.594 5.64-5.994 5.949-9.869 1.968-2.314 2.028-4.547 2.028-4.813v-5.996c0-.53-.209-1.039-.584-1.413l-1.41-1.413v-5.168c0-2.904-1.145-5.578-3.143-7.337-1.47-1.295-4.082-2.706-8.334-2.34C35.402-.642 27.82-.822 22.375 2.04c-4.14 2.175-6.421 5.734-6.421 10.023v5.168l-1.41 1.413c-.375.374-.584.883-.584 1.413v5.996c0 .266.06 2.502 2.03 4.817.325 3.865 2.816 7.257 5.947 9.849v6.438a1.99 1.99 0 0 1-1.364 1.895l-.776.26c-.291-.743-1.003-1.273-1.849-1.273-1.103 0-1.994.895-1.994 1.999v.498C4.661 53.914 0 59.64 0 70.023v21.985c0 1.103.891 1.999 1.994 1.999s1.994-.895 1.994-1.999V70.023c0-7.143 2.05-12.042 11.965-15.303v12.014c-5.586 2.608-7.977 8.454-7.977 11.284 0 2.137.55 6.208 2.108 10.655.279.799 1.033 1.337 1.881 1.337h1.994c1.103 0 1.994-.895 1.994-1.999s-.891-1.999-1.994-1.999h-.55c-.993-3.234-1.444-6.266-1.444-7.994 0-1.239 1.478-5.924 5.983-7.813 4.505 1.889 5.983 6.573 5.983 7.813 0 1.729-.451 4.761-1.444 7.994h-.55c-1.103 0-1.994.895-1.994 1.999s.891 1.999 1.994 1.999h1.994c.848 0 1.601-.538 1.881-1.337 1.558-4.447 2.108-8.518 2.108-10.655 0-2.83-2.391-8.676-7.977-11.284V56.439l12.648 11.09c.068.06.152.082.227.132.112.074.221.148.345.198s.239.072.365.096.247.048.375.048.247-.024.373-.048.245-.048.367-.096.231-.124.345-.198c.074-.05.16-.07.227-.132l12.648-11.09v11.87c-3.43.893-5.983 3.997-5.983 7.711 0 4.409 3.578 7.994 7.977 7.994s7.977-3.586 7.977-7.994c0-3.713-2.553-6.817-5.983-7.711V54.72c9.915 3.262 11.965 8.16 11.965 15.303v21.985c0 1.103.891 1.999 1.994 1.999s1.994-.895 1.994-1.999V70.023c0-10.383-4.661-16.109-15.954-19.488h0z"></path>
</svg>
