<?xml version="1.0" encoding="UTF-8"?>
<svg xmlns="http://www.w3.org/2000/svg" xmlns:v="https://vecta.io/nano" width="93" height="87">
  <path fill="#0096d3" fill-rule="evenodd" d="M88.248 35.994v-2c0-5.897-7.231-7.999-13.998-7.999-1.068 0-3 .07-5.113.452-2.276-3.215-7.711-4.451-12.884-4.451s-10.608 1.236-12.884 4.451c-2.114-.382-4.045-.452-5.113-.452-6.767 0-13.998 2.102-13.998 7.999v7.999h3.999v-7.999c0-2.936 5.979-3.999 9.999-3.999a25.8 25.8 0 0 1 3.999.322v11.676h3.999V29.995c0-2.936 5.979-3.999 9.999-3.999s9.999 1.064 9.999 3.999v13.998h3.999V30.317a25.8 25.8 0 0 1 3.999-.322c4.019 0 9.999 1.064 9.999 3.999v2h3.999zm-55.992-23.14c0-2.338 1.252-4.855 3.999-4.855s3.999 2.518 3.999 4.855v2.286c0 2.34-1.252 4.857-3.999 4.857s-3.999-2.518-3.999-4.857v-2.286zm-3.999 2.286c0 5.049 3.44 8.857 7.999 8.857s7.999-3.807 7.999-8.857v-2.286c0-5.049-3.44-8.855-7.999-8.855s-7.999 3.805-7.999 8.855v2.286zm43.994-2.286c0-2.338 1.252-4.855 3.999-4.855s3.999 2.518 3.999 4.855v2.286c0 2.34-1.252 4.857-3.999 4.857s-3.999-2.518-3.999-4.857v-2.286zm3.999 11.142c4.559 0 7.999-3.807 7.999-8.857v-2.286c0-5.049-3.44-8.855-7.999-8.855s-7.999 3.805-7.999 8.855v2.286c0 5.049 3.44 8.857 7.999 8.857h0zM10.826 56.819l19.169 19.169-5.171 5.171L5.655 61.99l5.171-5.171zm13.362-5.365c1.844-1.72 4.715-3.461 6.635-3.461h9.999c.794 0 2.31 1.162 3.314 1.93 1.45 1.112 2.702 2.07 4.117 2.07h11.998c2.762 0 3.999 1.506 3.999 3s-1.238 2.999-3.999 2.999H42.254v3.999h17.997c5.251 0 7.999-3.521 7.999-6.999a6.6 6.6 0 0 0-.198-1.528l7.685-3.991.292-.566c2.332-4.539 4.077-6.363 6.673-6.965 2.162-.502 4.011-.072 5.099.55-2.31 4.549-7.789 12.76-9.045 14.168-2.294 2.57-12.432 12.382-14.702 13.33H34.823c-1.878 0-3.11.568-3.967 1.206L17.552 57.888l6.637-6.435h0zm11.462 24.534l-1.848-1.846c.27-.09.58-.154 1.02-.154h29.428c3.727 0 17.36-14.52 17.492-14.668 1.572-1.764 8.395-11.982 10.343-16.539l.454-1.058-.686-.922c-1.554-2.092-5.365-3.847-10.057-2.758-4.253.99-6.655 3.967-9.029 8.465l-6.761 3.509c-1.34-1.214-3.254-2.026-5.755-2.026l-11.83.018c-.336-.1-1.25-.802-1.854-1.264-1.686-1.292-3.595-2.754-5.745-2.754h-9.999c-3.32 0-7.119 2.444-9.413 4.585l-6.689 6.481-3.895-3.895L0 61.99l24.824 24.824 10.826-10.826zM52.253 11.14V8.855c0-2.338 1.252-4.855 3.999-4.855s3.999 2.518 3.999 4.855v2.286c0 2.34-1.252 4.857-3.999 4.857s-3.999-2.518-3.999-4.857h0zm11.998 0V8.855c0-5.049-3.44-8.855-7.999-8.855s-7.999 3.805-7.999 8.855v2.286c0 5.049 3.44 8.857 7.999 8.857s7.999-3.807 7.999-8.857h0z"></path>
</svg>
