<?xml version="1.0" encoding="UTF-8"?>
<svg xmlns="http://www.w3.org/2000/svg" xmlns:v="https://vecta.io/nano" width="86" height="100">
  <path fill="#0096d3" fill-rule="evenodd" d="M43.378 62.354l27.195 4.334c1.142.183 2.217-.59 2.401-1.723s-.594-2.201-1.736-2.383l-27.149-4.326c-3.705-.751-7.511.174-10.447 2.543A12.39 12.39 0 0 0 29 70.479V97.92c0 1.149.938 2.08 2.095 2.08s2.095-.931 2.095-2.08V70.479a8.26 8.26 0 0 1 3.094-6.454c1.967-1.587 4.518-2.202 6.998-1.689.032.007.063.012.095.018M77 78.115C77 76.947 76.063 76 74.907 76h-1.681-18.668C47.634 76 42 81.693 42 88.691v9.193c0 1.168.937 2.115 2.093 2.115s2.093-.947 2.093-2.115v-9.193c0-4.666 3.756-8.461 8.372-8.461h18.541 1.808c1.156 0 2.093-.947 2.093-2.115M13.393 95.594v2.33c0 1.147.926 2.077 2.068 2.077s2.068-.93 2.068-2.077v-2.393c0-.042-.001-.084-.004-.125-1.324-22.018-5.444-31.851-8.755-39.751-2.589-6.179-4.635-11.06-4.635-20.023 0-2.686.516-12.065 7.156-20.005 6.367-7.613 16.17-11.473 29.136-11.473 12.665 0 21.052 6.281 24.925 10.025.01.01.021.02.031.029 11.684 10.837 8.727 23.112 7.614 27.732-.219.909-.339 1.409-.339 1.885 0 3.411.375 3.961 4.966 10.687l4.182 6.166a.91.91 0 0 1 .058.32c0 .334-.19.727-.611.881l-3.485.739a1.98 1.98 0 0 0-.161.041c-1.716.512-2.915 2.123-2.915 3.92a4.12 4.12 0 0 0 .064.72l.225 2.616.013 1.306a1.56 1.56 0 0 1 0 .039c0 1.242-.391 1.778-.984 2.589-.464.636-1.058 1.453-1.313 2.59h1.661c1.142 0 2.068.93 2.068 2.076s-.926 2.077-2.068 2.077h-1.786v3.662.011c-.005 1.71-1.21 3.049-2.744 3.049H57.195c-3.664 0-6.644 2.993-6.644 6.671v3.939c0 1.147.926 2.077 2.068 2.077s2.068-.93 2.068-2.077v-3.939c0-1.388 1.125-2.518 2.508-2.518H69.83c3.716 0 6.76-3.112 6.876-6.981.002-.038.003-.077.003-.115v-.005-.008-4.265-2.514c0-.362.129-.578.638-1.275.71-.973 1.784-2.444 1.784-5.044l-.014-1.465a2.19 2.19 0 0 0-.008-.158l-.242-2.805a1.86 1.86 0 0 0-.027-.196l3.371-.715a2.13 2.13 0 0 0 .161-.041C84.509 65.242 86 63.235 86 60.997c0-.786-.177-1.544-.527-2.254-.041-.083-.087-.163-.139-.24l-4.298-6.34c-4.191-6.14-4.241-6.214-4.241-8.264.029-.175.136-.621.223-.983 1.148-4.763 4.638-19.255-8.812-31.745C63.878 6.992 54.527 0 40.428 0 8.515 0 0 22.397 0 35.631c0 9.801 2.298 15.284 4.958 21.634 3.186 7.602 7.15 17.062 8.435 38.329"></path>
</svg>
