<?xml version="1.0" encoding="UTF-8"?>
<svg xmlns="http://www.w3.org/2000/svg" xmlns:v="https://vecta.io/nano" width="93" height="88">
  <path fill="#fff" fill-rule="evenodd" d="M41.241 16.003c1.101 0 1.991-.896 1.991-2s.892-2 1.991-2 1.991-.896 1.991-2-.89-2-1.991-2c-3.293 0-5.972 2.692-5.972 6 0 1.104.89 2 1.991 2h0zm-3.858-7.956c1.648-2.274 4.017-3.688 6.677-3.98.376-.042.756-.062 1.137-.062 4.232 0 8.622 2.482 10.157 5.888a1.99 1.99 0 0 0 3.627 0c1.672-3.714 6.756-6.334 11.293-5.826h.002c2.658.292 5.027 1.706 6.675 3.98 1.829 2.526 2.516 5.732 1.887 8.794-1.143 5.552-5.936 9.352-12.006 14.161-2.976 2.362-6.301 4.998-9.665 8.208-3.364-3.21-6.689-5.846-9.665-8.208-6.07-4.81-10.863-8.61-12.006-14.161-.629-3.062.058-6.268 1.887-8.794h0zm7.65 26.097c3.305 2.62 7.053 5.59 10.728 9.274.388.39.896.584 1.405.584s1.017-.194 1.405-.584c3.675-3.684 7.423-6.654 10.728-9.274 6.438-5.106 12-9.514 13.437-16.493.854-4.164-.08-8.522-2.566-11.956C77.856 2.497 74.493.507 70.707.089 65.601-.473 60.28 1.707 57.166 5.391 54.055 1.709 48.746-.479 43.625.089c-3.786.418-7.149 2.408-9.464 5.606-2.486 3.434-3.42 7.792-2.566 11.956 1.437 6.98 6.999 11.388 13.437 16.493h0zM14.517 69.415l2.815-2.828-3.981-4-2.815 2.828 3.981 4zM79.57 56.669c-2.285 2.572-12.378 12.384-14.636 13.332H35.832c-1.867 0-3.094.568-3.948 1.206l-13.246-13.31 6.607-6.432c1.839-1.722 4.7-3.464 6.605-3.464h9.954c.792 0 2.301 1.162 3.301 1.93 1.443 1.112 2.689 2.07 4.099 2.07h11.944c2.751 0 3.981 1.506 3.981 3s-1.23 3-3.981 3H43.231c-1.101 0-1.991.896-1.991 2s.89 2 1.991 2h17.916c5.228 0 7.963-3.522 7.963-7a6.63 6.63 0 0 0-.197-1.528L76 49.777a2 2 0 0 0 .854-.862c2.323-4.54 4.061-6.364 6.643-6.966 2.146-.502 3.993-.074 5.074.552-2.297 4.548-7.752 12.758-9.002 14.167h0zM23.888 83.172L4.805 64.001l7.139-7.172L31.026 76l-7.139 7.172zM92.607 40.81c-1.547-2.092-5.339-3.846-10.013-2.756-4.23.988-6.623 3.968-8.986 8.464l-6.731 3.51c-1.334-1.214-3.239-2.026-5.729-2.026l-11.775.018c-.334-.1-1.244-.8-1.847-1.264-1.678-1.29-3.581-2.754-5.721-2.754H31.85c-3.299 0-7.081 2.444-9.37 4.586-1.977 1.986-4.929 4.826-6.659 6.482l-2.47-2.482c-.776-.782-2.036-.782-2.815 0l-9.954 10a2.01 2.01 0 0 0 0 2.828L22.48 87.414a1.98 1.98 0 0 0 2.815 0l9.954-10c.778-.782.778-2.046 0-2.828l-.43-.432c.269-.09.577-.154 1.013-.154h29.297c3.709 0 17.281-14.521 17.411-14.667 1.567-1.766 8.359-11.99 10.3-16.545.279-.654.189-1.408-.233-1.978h0z"></path>
</svg>
