<?xml version="1.0" encoding="UTF-8"?>
<svg xmlns="http://www.w3.org/2000/svg" xmlns:v="https://vecta.io/nano" width="93" height="78">
  <path fill="#0096d3" fill-rule="evenodd" d="M8.749 50.882a2.47 2.47 0 0 1 1.736-.704h.042c.668.01 1.292.282 1.704.706l.076.084c.91.944.904 2.408.068 3.373l-2.678 2.612c-.484.452-1.128.686-1.77.692a2.52 2.52 0 0 1-1.78-.776c-.96-.996-.934-2.59.052-3.543l2.55-2.444zm6.555 6.187l4.021-3.925c.47-.454 1.086-.704 1.738-.704h.042a2.51 2.51 0 0 1 1.78.79l.01.012c.936.98.91 2.526-.04 3.493l-6.151 6.011c-.02.02-.034.044-.054.064l-1.19 1.16a2.52 2.52 0 0 1-1.76.714c-.014 0-.03 0-.044-.002-.678-.01-1.31-.284-1.78-.772-.962-.996-.934-2.592.064-3.559l.49-.478c.024-.024.054-.04.078-.062l2.524-2.42c.104-.1.176-.218.272-.322h0zm10.305 2.586c.03-.03.05-.066.078-.094l.556-.544a2.48 2.48 0 0 1 1.722-.688h.064c.668.014 1.288.29 1.706.73l.066.072c.954 1.004.914 2.598-.104 3.569l-2.566 2.506-1.004.974c-.01.012-.018.026-.028.036l-3.14 3.065c-.488.468-1.12.724-1.806.7a2.52 2.52 0 0 1-1.776-.79c-.944-.992-.908-2.56.08-3.533l6.151-6.003zm6.803 6.981h.028c.668.008 1.294.276 1.752.744l.034.036a2.52 2.52 0 0 1-.032 3.545l-1.724 1.67c-.476.466-1.104.722-1.77.722h-.028a2.51 2.51 0 0 1-1.786-.764 2.52 2.52 0 0 1 .02-3.527l.93-.908.83-.806a2.48 2.48 0 0 1 1.746-.712h0zM5.821 48.148l-2.398 2.298c-2.574 2.494-2.644 6.621-.156 9.2 1.066 1.104 2.46 1.754 3.963 1.926-.164 1.82.402 3.697 1.768 5.113a6.48 6.48 0 0 0 4.591 1.996l.112.002c.368 0 .73-.044 1.088-.104a6.46 6.46 0 0 0 1.688 3.365c1.204 1.268 2.83 1.99 4.577 2.034l.162.002c1.2 0 2.344-.338 3.356-.948.304.854.778 1.66 1.45 2.35a6.48 6.48 0 0 0 4.603 1.97h.076a6.47 6.47 0 0 0 4.559-1.858l1.724-1.67c.066-.066.112-.144.176-.212l4.207 2.828c1.218.758 2.576 1.146 3.967 1.146a7.93 7.93 0 0 0 2.458-.4c2.078-.678 3.895-2.148 5.123-4.063.568.132 1.14.222 1.716.222a7.68 7.68 0 0 0 1.684-.188c2.53-.57 4.799-2.394 6.499-5.185l.712.056c.716 0 1.356-.106 1.896-.25 3-.804 5.169-3.307 6.395-5.353l.794.072c2.142 0 4.031-1.076 5.303-2.624 1.72-2.094 2.39-5.151 1.196-7.567 6.161-5.979 7.081-9.466 7.827-12.302.456-1.736.758-2.882 2.338-4.461l2.886-2.886-2.828-2.828-2.888 2.886c-2.342 2.344-2.868 4.341-3.376 6.271-.646 2.456-1.382 5.217-6.629 10.336-2.356-2.22-6.121-6.045-9.323-9.342 1.072-.026 2.278-.152 3.711-.448l-.806-3.917c-4.541.936-5.775.146-8.225-1.434l-.728-.462-9.725-9.049h-7.749l-.522.372c-.044.032-4.423 3.151-7.617 4.241-2.834.966-5.449.608-7.797-1.054l5.877-6.059 7.005-7.099c.99-.854 2.256-1.322 3.565-1.322h11.424c2.658 0 8.157 0 11.25-2.968l10.097-7.585L74.479 0 64.279 7.663l-.214.184c-1.9 1.904-6.547 1.904-8.531 1.904H44.11c-2.266 0-4.459.814-6.293 2.4l-1 1.012c-2.026-1.682-3.683-2.368-5.175-2.97-1.798-.726-3.35-1.352-5.837-3.839l-4.789-4.251-2.656 2.994 4.703 4.169c2.978 2.978 5.157 3.857 7.081 4.635 1.284.52 2.44.988 3.855 2.114l-3.304 3.343-7.387 7.649-1.336 1.412 1.374 1.374c4.839 4.839 9.961 4.457 13.406 3.277 3.06-1.046 6.749-3.465 8.115-4.399h4.907l8.667 8.067c.834.876 13.01 13.636 16.718 16.833.968.832.608 2.616-.334 3.763-.702.848-2.22 2.012-4.465.25-3.498-2.99-14.882-13.892-14.996-14l-2.768 2.886c.472.454 11.582 11.094 15.23 14.208.086.068.17.11.256.172-.872 1.29-2.188 2.662-3.697 3.067-1.15.31-2.318 0-3.478-.876-3.5-2.99-10.866-9.96-10.94-10.032l-2.75 2.908c.304.288 7.515 7.111 11.184 10.242.198.148.386.244.58.372-1.042 1.476-2.284 2.442-3.545 2.726-1.186.264-2.388-.074-3.575-1.006-2.716-2.142-6.953-6.465-6.995-6.507l-2.86 2.796c.18.184 4.369 4.457 7.285 6.773-.72.968-1.68 1.728-2.738 2.074-1.1.36-2.134.244-3.07-.338-1.402-.874-3.49-2.328-4.621-3.125.216-1.882-.354-3.841-1.776-5.299l-1.43 1.396 1.406-1.422c-.816-.838-1.83-1.402-2.93-1.704.72-2.204.272-4.719-1.432-6.515l-.026-.028c-1.196-1.26-2.812-1.978-4.549-2.018-.202-.006-.398.03-.598.042-.132-1.424-.698-2.816-1.766-3.921l-1.438 1.388 1.414-1.414a6.45 6.45 0 0 0-4.565-1.984c-1.708-.092-3.382.622-4.635 1.834l-.006.006c-.304-.756-.746-1.47-1.346-2.092l-.026-.026c-1.208-1.252-2.83-1.956-4.567-1.986a6.65 6.65 0 0 0-1.192.09c-1.724-2.066-1.796-3.707-1.88-5.879-.114-2.878-.256-6.459-4.691-10.892L0 32.325c3.332 3.329 3.42 5.597 3.524 8.221.09 2.256.218 4.765 2.298 7.603h0z"></path>
</svg>
