<?xml version="1.0" encoding="UTF-8"?>
<svg xmlns="http://www.w3.org/2000/svg" xmlns:v="https://vecta.io/nano" width="97" height="88">
  <path fill="#0096d3" fill-rule="evenodd" d="M20.019 57.874h4.004c1.077 0 2.002 1.098 2.002 1.996a2 2 0 1 0 4.004 0c0-3.189-2.807-5.987-6.006-5.987v-1.996a2 2 0 1 0-4.004 0v1.996c-3.199 0-6.006 2.798-6.006 5.987v.605c0 2.433 1.678 4.57 4.176 5.318l6.546 1.956c.771.229 1.289.83 1.289 1.495v.605c0 .898-.925 1.996-2.002 1.996h-3.96c-1.101 0-2.046-1.098-2.046-1.996a2 2 0 1 0-4.004 0c0 3.175 2.801 5.955 6.006 5.983v2a2 2 0 1 0 4.004 0v-1.996c3.199 0 6.006-2.798 6.006-5.987v-.605c0-2.439-1.664-4.578-4.142-5.318l-6.548-1.956c-.789-.235-1.321-.838-1.321-1.495v-.605c0-.898.925-1.996 2.002-1.996h0zm36.035-7.983h4.004V29.935h-4.004v19.956zm-5.796 1.104l-1.001 1.996c-.494.986-.092 2.183.897 2.678s2.188.092 2.687-.894l.446-.892h9.537l.446.892c.352.7 1.059 1.104 1.794 1.104a2.01 2.01 0 0 0 .893-.21c.989-.495 1.391-1.692.897-2.678l-1.001-1.996c-.34-.677-1.033-1.104-1.792-1.104V29.935c.759 0 1.451-.427 1.792-1.104l1.001-1.996c.494-.986.092-2.183-.897-2.678s-2.188-.092-2.687.894l-.446.892h-9.537l-.446-.892c-.498-.986-1.698-1.387-2.687-.894s-1.391 1.692-.897 2.678l1.001 1.996c.34.677 1.033 1.104 1.792 1.104v19.956c-.759 0-1.451.427-1.792 1.104h0zm25.815-1.104h4.004V29.935h-4.004v19.956zm-5.796 1.104l-1.001 1.996c-.494.986-.092 2.183.897 2.678s2.19.092 2.687-.894l.446-.892h9.537l.446.892c.352.7 1.059 1.104 1.794 1.104a2.01 2.01 0 0 0 .893-.21c.989-.495 1.391-1.692.897-2.678l-1.001-1.996c-.34-.677-1.033-1.104-1.792-1.104V29.935c.759 0 1.451-.427 1.792-1.104l1.001-1.996c.494-.986.092-2.183-.897-2.678s-2.19-.092-2.687.894l-.446.892h-9.537l-.446-.892c-.496-.986-1.698-1.387-2.687-.894s-1.391 1.692-.897 2.678l1.001 1.996c.34.677 1.033 1.104 1.792 1.104v19.956c-.759 0-1.451.427-1.792 1.104h0zM45.938 24.158c-.989-.493-2.188-.092-2.687.894l-.446.892h-4.769a2 2 0 0 0-2.002 1.996 2 2 0 0 0 2.002 1.996h2.002V45.9a2 2 0 1 0 4.004 0V29.935c.759 0 1.451-.427 1.792-1.104l1.001-1.996c.494-.986.092-2.183-.897-2.678h0zM94.09 65.857H48.046a2 2 0 0 0-2.002 1.996 2 2 0 0 0 2.002 1.996H94.09a2 2 0 0 0 2.002-1.996 2 2 0 0 0-2.002-1.996h0zM46.044 59.87a2 2 0 0 0 2.002 1.996h40.038a2 2 0 0 0 2.002-1.996 2 2 0 0 0-2.002-1.996H48.046a2 2 0 0 0-2.002 1.996h0zm42.04-41.908H30.029a2 2 0 0 0-2.002 1.996 2 2 0 0 0 2.002 1.996h58.056a2 2 0 0 0 2.002-1.996 2 2 0 0 0-2.002-1.996h0zm-64.062-1.996a2 2 0 0 0 .667-.114L58.074 4.106l35.384 11.758c1.055.351 2.182-.218 2.53-1.263s-.216-2.175-1.265-2.524L58.688.103a2 2 0 0 0-1.299.012L23.356 12.088c-1.043.367-1.59 1.507-1.221 2.546a2 2 0 0 0 1.888 1.331h0zm-2.002 67.852c-11.129 0-18.017-8.721-18.017-16.799 0-8.809 5.713-14.331 13.623-21.976l3.209-3.133h2.37l3.209 3.133c7.91 7.645 13.623 13.167 13.623 21.976 0 8.078-6.889 16.799-18.017 16.799h0zm-6.708-53.567c1.762-.569 3.862-.279 6.716.19 1.756.287 3.66.601 5.651.611-1.275 2.528-3.327 5.296-4.6 6.867h-2.054l-5.713-7.667zm13.891 11.926l-.428-.417c.733-.297 1.253-1.008 1.253-1.846 0-1.076-.857-1.938-1.926-1.98 1.778-2.463 3.908-5.865 4.52-8.743a1.99 1.99 0 0 0-.541-1.822c-.478-.477-1.163-.683-1.826-.547-2.49.515-5.075.092-7.577-.321-3.914-.643-7.956-1.305-11.575 1.541a1.99 1.99 0 0 0-.37 2.758l5.305 7.118h-.024a2 2 0 0 0-2.002 1.996c0 .838.52 1.549 1.253 1.846l-.428.417C6.877 49.874 0 56.521 0 67.018c0 9.998 8.42 20.791 22.021 20.791s22.021-10.792 22.021-20.791c0-10.497-6.877-17.144-14.838-24.842h0z"></path>
</svg>
