<?xml version="1.0" encoding="UTF-8"?>
<svg xmlns="http://www.w3.org/2000/svg" xmlns:v="https://vecta.io/nano" width="96" height="87">
  <path fill="#0096d3" fill-rule="evenodd" d="M33.647 86.362l1.698-8.845 5.953 9.526 3.392-2.118-9.961-15.955-.226-.344c-.8-1.228-1.628-2.5-3.26-3.028l-4.401-1.458-6.233-2.06c-2.644-.848-5.833-2.536-6.807-4.111-.678-1.098-1.256-2.288-1.816-3.439l-.858-1.728-3.547 1.848.81 1.628 2.01 3.793c2.15 3.479 7.863 5.457 8.985 5.819l4.117 1.354-1.498 18.579 3.985.322 1.42-17.599 2.604.858c.284.09.698.73 1.138 1.404l1.078 1.724-2.51 13.076 3.927.754zm43.126-1.284l-10.928-21.48c-.492-1.21-1.982-4.895-7.129-6.891-3.675-1.424-10.381-4.503-10.449-4.535l-1.672 3.633c.28.128 6.885 3.163 10.674 4.631 3.132 1.216 4.247 3.129 4.937 4.817l11 21.638 3.565-1.814zm-10.087-.152l-9.961-15.955-.226-.344c-.8-1.228-1.628-2.5-3.26-3.028l-4.613-1.528-1.27 3.791 4.653 1.542c.284.09.698.73 1.138 1.404l10.147 16.235 3.392-2.118zm-38.691-60.93v3.999h7.999c2.412 0 4.219.762 5.513 2.326l9.413 11.52 10.992 1.83c-.102.42-.284.868-.612 1.24-.632.718-1.744 1.082-3.31 1.082H45.993v3.999h11.998c2.588 0 4.585-.75 5.999-2.166v.166h31.995v-3.999H65.919c.188-1.186.078-2.118.052-2.298l-.216-1.44-12.69-2.112-8.469-10.364c-2.08-2.512-4.975-3.783-8.601-3.783h-7.999zm-2-14.286c0-2.752 1.566-5.711 4.999-5.711s4.999 2.96 4.999 5.711v2.572c0 2.752-1.564 5.713-4.999 5.713s-4.999-2.962-4.999-5.713V9.71zm4.999 12.284c5.131 0 8.999-4.175 8.999-9.712V9.71c0-5.537-3.867-9.71-8.999-9.71s-8.999 4.173-8.999 9.71v2.572c0 5.537 3.869 9.712 8.999 9.712h0zM15.534 34.712l-3.072 2.558 5.601 6.723H12.48c-1.744 0-3.344.432-4.773 1.176L4.669 37.34c-.516-1.326-.69-2.762-.508-4.159.502-3.829 2.032-5.185 5.837-5.185h3.669c2.456 0 4.175.698 5.907 2.406l9.349 11.44 10.992 1.83c-.102.42-.284.868-.612 1.24-.632.718-1.744 1.082-3.31 1.082h-11.06l-9.401-11.28zm39.242 50.366l-10.928-21.48c-.492-1.21-1.982-4.895-7.129-6.891-2.602-1.008-6.771-2.868-9.027-3.885a2.06 2.06 0 0 1-1.04-1.064l-.76-1.766h10.103c2.794 0 4.931-.836 6.355-2.488 2.062-2.394 1.674-5.467 1.624-5.809l-.216-1.44-12.69-2.112-8.461-10.354-.132-.148c-2.522-2.522-5.237-3.645-8.807-3.645H9.999c-5.831 0-9.037 2.834-9.803 8.667-.27 2.058-.012 4.175.746 6.127l3.472 8.947C1.932 50.458.482 54.291.482 57.99h3.999c0-4.731 3.284-9.998 7.999-9.998h8.201l2.296 5.343a6.04 6.04 0 0 0 3.068 3.129c2.802 1.266 6.675 2.982 9.229 3.971 3.132 1.216 4.247 3.129 4.937 4.817l11 21.638 3.565-1.814zM3.999 9.71c0-2.752 1.566-5.711 4.999-5.711s4.999 2.96 4.999 5.711v2.572c0 2.752-1.564 5.713-4.999 5.713s-4.999-2.962-4.999-5.713V9.71zm4.999 12.284c5.131 0 8.999-4.175 8.999-9.712V9.71C17.997 4.173 14.13 0 8.999 0S0 4.173 0 9.71v2.572c0 5.537 3.869 9.712 8.999 9.712h0z"></path>
</svg>
