<?xml version="1.0" encoding="UTF-8"?>
<svg xmlns="http://www.w3.org/2000/svg" xmlns:v="https://vecta.io/nano" width="73" height="80">
  <path fill="#0096d3" fill-rule="evenodd" d="M45.882 44.566a1.8 1.8 0 0 0-.227-.659c-.187-.32-.471-.531-.78-.681.356-.41.547-.955.43-1.528-.113-.551-.473-.971-.931-1.216.201-.249.36-.539.406-.882.062-.484-.078-.949-.35-1.313.621.774 1.534 1.325 2.61 1.439l6.339.539c.173.016.306.159.306.334 0 .151-.103.281-.257.326-3.875 1.12-6.379 2.117-7.546 3.642m25.947 14.655a1.81 1.81 0 0 0 1.056-2.33c-.352-.935-1.398-1.405-2.333-1.055-4.591 1.729-9.5 2.679-13.993 2.679-3.073 0-5.215-.579-6.031-1.632-.442-.569-.535-1.365-.278-2.366.37-1.447 1.241-4.834-.885-7.037-.444-.46-.571-.726-.617-.742.269-.404 1.494-1.128 5.685-2.338 1.691-.488 2.872-2.052 2.872-3.803a3.93 3.93 0 0 0-3.62-3.94l-6.45-.613c-.008-.742.288-1.566.551-2.289.193-.539.352-1.013.42-1.391.565-3.073-.947-6.927-6.888-8.527-1.957-.527-2.14-1.504-2.057-2.39.05-.569.259-1.148.623-1.723l3.171-5.1 7.397-11.843a1.81 1.81 0 0 0-.549-2.499c-.843-.537-1.963-.291-2.502.551l-7.425 11.886-3.153 5.075c-.672 1.063-1.066 2.183-1.168 3.325-.28 3.065 1.442 5.329 4.722 6.213 3.117.838 4.634 2.394 4.27 4.378-.042.225-.153.501-.267.818-.328.911-.778 2.161-.764 3.544.002.308.042.615.119.909.119.464.358.872.642 1.244-.282-.344-.682-.593-1.158-.655l-6.19-.804c-.999-.127-1.9.569-2.029 1.56s.571 1.898 1.561 2.028l3.821.496-1.838.374c-.981.197-1.613 1.154-1.414 2.133a1.81 1.81 0 0 0 1.772 1.449c.119 0 .239-.012.362-.036l2.055-.418-3.525 2.066a1.81 1.81 0 0 0 .919 3.371 1.8 1.8 0 0 0 .913-.249l5.386-3.158c.076-.044.123-.117.189-.169-.169 1.234.328 2.503 1.563 3.779.646.671.3 2.39-.016 3.624-.543 2.111-.223 4.008.923 5.484 1.561 2.014 4.553 3.033 9.062 3.033 2.421 0 5.006-.275 7.616-.79 1.362 1.041 4.879 4.253 4.881 9.664v7.182a1.81 1.81 0 0 0 3.62 0v-7.182c-.002-5.039-2.307-8.579-4.3-10.708 1.102-.326 2.204-.673 3.282-1.079M15.901 32.232c.746 0 1.353.607 1.353 1.353s-.607 1.353-1.353 1.353-1.353-.607-1.353-1.353.607-1.353 1.353-1.353m0 3.618a2.27 2.27 0 0 0 2.266-2.265 2.27 2.27 0 0 0-2.266-2.265 2.27 2.27 0 0 0-2.266 2.265 2.27 2.27 0 0 0 2.266 2.265m0 30.318c-4.859 0-9.47-4.02-10.069-8.778-.189-1.495-.249-3.077-.308-4.609l-.01-.269c-.105-2.716-.274-5.371-1.016-7.865 1.651.215 3.725.848 4.905 2.589a1.81 1.81 0 0 0 1.862.756c.716-.147 1.273-.712 1.414-1.429.008-.046.825-4.109 3.222-6.267 2.395 2.159 3.212 6.221 3.222 6.267a1.81 1.81 0 0 0 3.276.673c1.187-1.751 3.258-2.382 4.907-2.593-.742 2.492-.913 5.152-1.018 7.869l-.012.297c-.058 1.522-.119 3.096-.306 4.583-.599 4.756-5.211 8.776-10.069 8.776M9.409 40.896c-.748 0-1.355-.607-1.355-1.353s.607-1.351 1.355-1.351 1.353.605 1.353 1.351-.607 1.353-1.353 1.353m12.984-2.704c.746 0 1.353.605 1.353 1.351s-.607 1.353-1.353 1.353-1.353-.607-1.353-1.353.607-1.351 1.353-1.351m16.056 25.755c-10.144 0-17.006 5.174-20.738 9.076v-3.381c5.961-.856 11.097-5.811 11.851-11.797.207-1.644.272-3.299.332-4.897l.012-.297c.131-3.421.348-6.46 1.689-9.029a1.81 1.81 0 0 0-.002-1.68c-.28-.525-.796-.882-1.386-.953-.241-.028-4.869-.545-8.451 1.873-.193-.486-.428-1.007-.698-1.536.38.283.827.482 1.333.482a2.27 2.27 0 0 0 2.266-2.265 2.27 2.27 0 0 0-2.266-2.265 2.27 2.27 0 0 0-2.266 2.265c0 .103.046.189.058.285-.845-1.278-1.941-2.495-3.369-3.331-.565-.332-1.265-.332-1.83 0-1.43.836-2.524 2.052-3.371 3.331.014-.096.058-.183.058-.285a2.27 2.27 0 0 0-2.264-2.265 2.27 2.27 0 0 0-2.266 2.265 2.27 2.27 0 0 0 2.266 2.265c.507 0 .953-.199 1.331-.482a18.15 18.15 0 0 0-.696 1.536c-3.584-2.418-8.209-1.9-8.451-1.873-.589.07-1.108.428-1.386.953s-.278 1.154-.002 1.68c1.341 2.569 1.559 5.61 1.689 9.027l.012.269c.06 1.61.123 3.272.332 4.925.754 5.986 5.888 10.943 11.851 11.799v8.549a1.81 1.81 0 0 0 1.325 1.743c.782.213 1.615-.113 2.035-.808.237-.394 5.07-8.193 14.719-10.754l-10.727 8.396c-.788.615-.927 1.753-.31 2.539.356.456.889.693 1.426.693a1.8 1.8 0 0 0 1.114-.384L39.563 67.18c.609-.474.849-1.284.595-2.014a1.81 1.81 0 0 0-1.709-1.218"></path>
</svg>
