<?xml version="1.0" encoding="UTF-8"?>
<svg xmlns="http://www.w3.org/2000/svg" xmlns:v="https://vecta.io/nano" width="97" height="92">
  <path fill="#0096d3" fill-rule="evenodd" d="M66.063 67.852c-8.83 0-16.015-7.162-16.015-15.965s7.185-15.965 16.015-15.965 16.015 7.162 16.015 15.965-7.185 15.965-16.015 15.965h0zm6.006 17.961l-4.805-3.592a2.01 2.01 0 0 0-2.402 0l-4.805 3.592V70.923a20.05 20.05 0 0 0 12.012 0v14.889zm14.013-33.926c0-11.004-8.981-19.956-20.019-19.956s-20.019 8.952-20.019 19.956c0 7.907 4.648 14.732 11.351 17.961h-1.341v19.956c0 .756.428 1.447 1.107 1.786a2.01 2.01 0 0 0 2.096-.19l6.807-5.089L72.87 91.4a2.01 2.01 0 0 0 1.201.399c.304 0 .613-.07.895-.21.679-.339 1.107-1.03 1.107-1.786V69.847h-1.341c6.702-3.229 11.351-10.054 11.351-17.961h0zM8.008 47.895v9.978h10.01v-3.991h-6.006v-5.987H8.008zm80.077-29.935V7.983h-10.01v3.991h6.006v5.987h4.004zM18.017 7.983H8.008v9.978h4.004v-5.987h6.006V7.983zm20.019 19.956h20.019v-3.991H38.037v3.991zm-6.006-7.983h32.031v-3.991H32.031v3.991zM0 0v65.856h46.044v-3.991H4.004V3.991h88.085v57.873h-6.006v3.991h10.01V0H0zm74.071 53.882h-6.006v5.987h-4.004v-5.987h-6.006v-3.991h6.006v-5.987h4.004v5.987h6.006v3.991zM72.069 45.9v-5.987H60.058V45.9h-6.006v11.974h6.006v5.987h12.012v-5.987h6.006V45.9h-6.006z"></path>
</svg>
