<?xml version="1.0" encoding="UTF-8"?>
<svg xmlns="http://www.w3.org/2000/svg" xmlns:v="https://vecta.io/nano" width="90" height="96">
  <path fill="#fff" fill-rule="evenodd" d="M76 70v4h-8v8h-4v-8h-8v-4h8v-8h4v8h8zm-4-12H60v8h-8v12h8v8h12v-8h8V66h-8v-8zM20.586 71.414l5.58 5.58 9.396-11.744a2 2 0 0 0-.312-2.812c-.866-.688-2.12-.548-2.812.312l-6.604 8.256-2.42-2.42a2 2 0 0 0-2.828 2.828h0zm0-16l5.58 5.58 9.396-11.744a2 2 0 0 0-3.124-2.5l-6.604 8.256-2.42-2.42a2 2 0 0 0-2.828 2.828h0zm5.58-10.42l9.396-11.744a2 2 0 0 0-.312-2.812c-.866-.688-2.12-.548-2.812.312l-6.604 8.256-2.42-2.42a2 2 0 0 0-2.828 2.828l5.58 5.58zM36 12h4V8h-4v4zm20 8H20v-4c0-2.206 1.794-4 4-4h8v-2a6.01 6.01 0 0 1 6-6 6.01 6.01 0 0 1 6 6v2h8c2.206 0 4 1.794 4 4v4zm4-4a8.01 8.01 0 0 0-8-8h-4.202C46.87 3.442 42.83 0 38 0s-8.87 3.442-9.798 8H24a8.01 8.01 0 0 0-8 8v8h44v-8zm4 28h4V18h-6v4h2v22zM14 22v-4H8v70h34v-4H12V22h2zm58-6v28h4V16a6.01 6.01 0 0 0-6-6h-8v4h8c1.104 0 2 .898 2 2h0zM4 90V16c0-1.102.896-2 2-2h8v-4H6a6.01 6.01 0 0 0-6 6v74a6.01 6.01 0 0 0 6 6h42v-4H6c-1.104 0-2-.898-2-2h0zm62 2c-11.028 0-20-8.972-20-20s8.972-20 20-20 20 8.972 20 20-8.972 20-20 20h0zm0-44c-13.234 0-24 10.766-24 24s10.766 24 24 24 24-10.766 24-24-10.766-24-24-24h0z"></path>
</svg>
