<?xml version="1.0" encoding="UTF-8"?>
<svg xmlns="http://www.w3.org/2000/svg" xmlns:v="https://vecta.io/nano" width="96" height="94">
  <path fill="#0096d3" fill-rule="evenodd" d="M49.993 47.992h3.999v-3.999h-3.999v3.999zm-7.999 0h3.999v-3.999h-3.999v3.999zm27.41 7.413l7.999-7.999a2 2 0 0 0 0-2.828l-7.999-7.999-2.828 2.828 4.585 4.585h-13.17v3.999h13.17l-4.585 4.585 2.828 2.828zM29.41 52.577l-4.585-4.585h13.17v-3.999h-13.17l4.585-4.585-2.828-2.828-7.999 7.999a2 2 0 0 0 0 2.828l7.999 7.999 2.828-2.828zm44.58 41.407h3.999V61.99H73.99v31.995zM55.992 37.994v2h3.999v-2c0-4.881 9.475-7.999 15.998-7.999s15.998 3.117 15.998 7.999v17.997c0 2.14-1.67 4.605-3.999 5.567V41.993h-3.999v51.991h3.999V65.751c4.385-1.012 7.999-5.205 7.999-9.76V37.994c0-7.829-11.614-11.998-19.997-11.998s-19.997 4.169-19.997 11.998h0zm0 17.997c0 4.555 3.611 8.757 7.999 9.768v28.225h3.999V63.989a2 2 0 0 0-2-2c-3.324 0-5.999-3.281-5.999-5.999v-3.999h-3.999v3.999zM17.997 93.985h3.999V61.99h-3.999v31.995zm-9.999 0h3.999V41.993H7.999v19.565c-2.33-.962-3.999-3.427-3.999-5.567V37.994c0-4.881 9.475-7.999 15.998-7.999s15.998 3.117 15.998 7.999v2h3.999v-2c0-7.829-11.614-11.998-19.997-11.998S0 30.165 0 37.994v17.997c0 4.555 3.613 8.749 7.999 9.76v28.233zm27.996-37.994c0 2.718-2.676 5.999-5.999 5.999a2 2 0 0 0-2 2v29.995h3.999V65.759c4.387-1.012 7.999-5.213 7.999-9.768v-3.999h-3.999v3.999zm-9.999-41.993c0 3.587-2.412 5.999-5.999 5.999s-5.999-2.412-5.999-5.999V9.998c0-3.587 2.412-5.999 5.999-5.999s5.999 2.412 5.999 5.999v3.999zM19.997 0c-5.793 0-9.999 4.205-9.999 9.998v3.999c0 5.795 4.205 9.998 9.999 9.998s9.999-4.203 9.999-9.998V9.998C29.996 4.205 25.79 0 19.997 0h0zM69.99 13.998V9.998c0-3.587 2.412-5.999 5.999-5.999s5.999 2.412 5.999 5.999v3.999c0 3.587-2.412 5.999-5.999 5.999s-5.999-2.412-5.999-5.999h0zm15.998 0V9.998C85.988 4.205 81.782 0 75.989 0s-9.999 4.205-9.999 9.998v3.999c0 5.795 4.205 9.998 9.999 9.998s9.999-4.203 9.999-9.998h0z"></path>
</svg>
