<?xml version="1.0" encoding="UTF-8"?>
<svg xmlns="http://www.w3.org/2000/svg" xmlns:v="https://vecta.io/nano" width="136" height="121">
  <path fill="#0096d3" fill-rule="evenodd" d="M99.422 70.809c-.137 1.005-.67 1.868-1.502 2.428a3.49 3.49 0 0 1-2.803.488 3.48 3.48 0 0 1-1.532-.839c-.094-.089-.366-.425-.569-.706l-.086-.107c-2.124-2.416-5.239-3.886-8.45-4.195l1.05-3.415.267-1.134c1.206 1.177 2.615 2.14 4.168 2.815 1.589.691 3.463.939 5.726.758a3.52 3.52 0 0 1 1.596.247 3.48 3.48 0 0 1 2.134 3.661m4.464-26.983c-.175.687-.607 1.265-1.217 1.628a2.65 2.65 0 0 1-2.016.292 2.66 2.66 0 0 1-1.926-3.226c.305-1.201 1.39-2.002 2.579-2.002a2.66 2.66 0 0 1 .654.082c.689.174 1.269.606 1.632 1.216a2.63 2.63 0 0 1 .293 2.011m-1.202-6.074c-2.994-.758-6.05 1.056-6.81 4.046a5.6 5.6 0 0 0 4.055 6.797 5.64 5.64 0 0 0 1.388.174 5.58 5.58 0 0 0 2.857-.789c1.286-.764 2.197-1.983 2.566-3.431s.149-2.953-.617-4.237-1.987-2.193-3.438-2.56m-42.861 76.555a4.94 4.94 0 0 1-2.282 3.051 4.96 4.96 0 0 1-3.777.547c-1.291-.327-2.378-1.136-3.059-2.278a4.93 4.93 0 0 1-.549-3.768c.572-2.25 2.606-3.752 4.832-3.752a4.99 4.99 0 0 1 1.226.154c2.665.675 4.284 3.387 3.608 6.046m-2.885-8.894c-4.238-1.073-8.561 1.495-9.635 5.724-.521 2.049-.21 4.178.873 5.994a7.88 7.88 0 0 0 4.864 3.622c.651.165 1.31.246 1.964.246 1.41 0 2.799-.378 4.041-1.116a7.86 7.86 0 0 0 3.63-4.854c1.075-4.229-1.499-8.543-5.738-9.617M5.407 95.698a1.06 1.06 0 0 1-.491.656c-.246.146-.535.188-.813.118s-.512-.244-.658-.49a1.06 1.06 0 0 1 .373-1.466c.168-.1.356-.151.547-.151.089 0 .178.011.266.033.278.071.512.245.658.49a1.06 1.06 0 0 1 .118.81m-.053-4.149c-1.04-.263-2.12-.107-3.042.441a3.98 3.98 0 0 0-1.839 2.459c-.264 1.038-.107 2.116.442 3.036a3.99 3.99 0 0 0 2.464 1.835c.33.083.663.125.995.125.714 0 1.417-.192 2.047-.566a3.98 3.98 0 0 0 1.839-2.459c.264-1.038.107-2.116-.442-3.036a3.99 3.99 0 0 0-2.464-1.835M43.599 3.747a1.06 1.06 0 0 1 .491-.656c.168-.1.356-.151.547-.151.089 0 .178.011.266.033.278.07.512.244.658.49a1.06 1.06 0 0 1 .118.81c-.145.572-.73.919-1.304.774-.278-.07-.512-.244-.658-.49a1.06 1.06 0 0 1-.118-.81m.053 4.149c.33.084.661.124.987.124 1.794 0 3.433-1.21 3.893-3.023.264-1.038.107-2.116-.442-3.036A3.99 3.99 0 0 0 45.627.125c-1.04-.263-2.12-.107-3.042.441a3.98 3.98 0 0 0-1.839 2.459c-.264 1.038-.107 2.116.442 3.036a3.99 3.99 0 0 0 2.464 1.835M5.181 23.089c.463-1.824 2.113-3.042 3.918-3.042.328 0 .662.04.994.124a4.04 4.04 0 0 1 2.925 4.902c-.265 1.044-.922 1.923-1.85 2.474a4.02 4.02 0 0 1-3.062.444c-1.047-.265-1.928-.921-2.48-1.847a4 4 0 0 1-.445-3.055m2.202 7.75c.574.145 1.154.217 1.731.217 1.242 0 2.466-.333 3.561-.984 1.604-.953 2.739-2.471 3.198-4.276.947-3.726-1.321-7.527-5.055-8.473s-7.543 1.317-8.489 5.043c-.459 1.805-.186 3.681.77 5.281a6.94 6.94 0 0 0 4.285 3.191m33.3 24.433a6.39 6.39 0 0 0-4.864.705c-1.474.876-2.518 2.272-2.939 3.931s-.17 3.383.707 4.854a6.38 6.38 0 0 0 3.939 2.934c.122.031.243.045.363.045a1.47 1.47 0 0 0 .361-2.894c-.9-.228-1.658-.792-2.134-1.589a3.44 3.44 0 0 1-.383-2.628 3.45 3.45 0 0 1 1.592-2.128 3.46 3.46 0 0 1 2.635-.382c.901.228 1.659.792 2.134 1.589a3.44 3.44 0 0 1 .383 2.628 1.47 1.47 0 0 0 1.065 1.785c.788.199 1.589-.276 1.788-1.063.422-1.659.17-3.383-.707-4.854a6.38 6.38 0 0 0-3.939-2.933m26.48-17.375a8.15 8.15 0 0 0-6.204.899 8.12 8.12 0 0 0-3.75 5.014 1.47 1.47 0 0 0 1.065 1.785c.787.2 1.589-.276 1.788-1.063a5.2 5.2 0 0 1 2.402-3.211c1.204-.715 2.616-.92 3.975-.576s2.502 1.196 3.22 2.398.922 2.61.578 3.966a5.2 5.2 0 0 1-2.402 3.211c-1.205.716-2.616.92-3.975.576a1.47 1.47 0 0 0-1.788 1.063 1.47 1.47 0 0 0 1.065 1.785c.672.17 1.353.254 2.029.254 1.456 0 2.891-.391 4.175-1.153a8.12 8.12 0 0 0 3.75-5.014c.538-2.117.217-4.316-.902-6.192a8.14 8.14 0 0 0-5.025-3.742m57.252 48.748c-4.766 0-8.643-3.871-8.643-8.628s3.877-8.628 8.643-8.628 8.643 3.87 8.643 8.628-3.877 8.628-8.643 8.628m0-20.194c-6.389 0-11.587 5.189-11.587 11.566s5.198 11.566 11.587 11.566S136 84.394 136 78.016s-5.198-11.566-11.587-11.566m-41.735-2.709c-1.86 7.319-6.037 13.453-11.55 17.821-.23-2.675-.044-5.448.55-7.789l.065-.255a1.47 1.47 0 1 0-2.853-.721l-.065.254c-.913 3.593-.987 7.879-.204 11.759.509 2.525 1.345 4.617 2.485 6.22.878 1.234 2.183 2.236 3.879 2.978a5.27 5.27 0 0 1 2.804 2.962c.502 1.335.433 2.8-.193 4.126-.886 1.877-2.874 3.061-4.953 2.942-1.635-.092-3.056-.852-4.001-2.138-.931-1.267-1.244-2.866-.861-4.374.215-.813.351-1.424.285-2.465-.142-2.247-.668-4.66-1.522-6.978-1.321-3.588-3.813-6.718-7.015-8.815-.68-.445-1.592-.256-2.038.423a1.47 1.47 0 0 0 .423 2.034c1.872 1.226 3.453 2.876 4.613 4.782-6.263 2.455-13.323 3.051-20.329 1.276-.703-.178-1.395-.38-2.076-.6.462-1.95 1.344-3.802 2.646-5.538a1.47 1.47 0 0 0-.295-2.057c-.651-.486-1.573-.354-2.06.295-2.568 3.422-3.809 7.406-3.589 11.521.046.866.208 1.778.482 2.711.348 1.189.264 2.434-.245 3.6-.903 2.069-3.194 3.356-5.449 3.059-1.526-.2-2.836-1.003-3.689-2.258-.841-1.238-1.112-2.779-.744-4.227a5.2 5.2 0 0 1 1.588-2.616c.824-.733 1.769-1.637 2.527-2.783 2.596-3.923 3.746-8.567 3.076-12.422a1.47 1.47 0 1 0-2.9.502c.296 1.702.12 3.664-.457 5.63-8.438-6.036-13.677-15.782-13.933-26.247.108.079.216.157.321.241.272.218.597.324.921.324a1.47 1.47 0 0 0 .923-2.614c-3.099-2.487-7.197-3.182-11.256-1.913-.749.155-1.527.101-2.254-.157-1.056-.375-1.901-1.138-2.382-2.148a4.15 4.15 0 0 1-.163-3.198 4.2 4.2 0 0 1 5.357-2.538c.459.163.88.4 1.252.703 3.689 3.114 7.685 4.039 11.876 2.751a1.47 1.47 0 0 0 .973-1.837 1.47 1.47 0 0 0-1.84-.972c-.726.223-1.44.355-2.144.404 2.102-6.553 6.103-12.05 11.23-16.034.187 2.087-.087 4.232-.835 6.19a1.47 1.47 0 0 0 1.375 1.993c.593 0 1.151-.36 1.375-.946 1.601-4.189 1.452-8.89-.41-12.897-.853-1.836-2.305-3.507-4.438-5.11a4.48 4.48 0 0 1-1.319-1.589c-.895-1.781-.444-4.019 1.074-5.321.988-.847 2.234-1.221 3.509-1.051 1.259.167 2.39.863 3.103 1.91.427.627.688 1.355.754 2.103.017.192-.013.744-.053 1.139a1.45 1.45 0 0 0-.007.136c-.033 6.063 4.085 11.973 9.793 14.053.763.278 1.608-.114 1.887-.876a1.47 1.47 0 0 0-.878-1.884c-1.821-.664-3.439-1.814-4.728-3.263a33.2 33.2 0 0 1 10.286-1.637c2.704 0 5.452.332 8.19 1.025 17.806 4.508 28.619 22.631 24.105 40.397M16.222 73.916c-1.547.781-2.933 2.062-4.236 3.917-.311.443-.718.802-1.208 1.069-1.368.743-3.129.451-4.187-.696-.689-.747-1.014-1.708-.916-2.705a3.47 3.47 0 0 1 1.41-2.464 3.48 3.48 0 0 1 1.624-.642c.128-.015.561-.009.908.013.046.003.092.004.137.003 2.633-.074 5.2-1.063 7.298-2.662.473 1.103 1 2.18 1.578 3.23-.828.237-1.635.547-2.408.937m42.25-62.71c.852-2.145 3.295-3.197 5.445-2.346 1.041.412 1.86 1.205 2.304 2.231a4.15 4.15 0 0 1 .049 3.202 4.17 4.17 0 0 1-.749 1.222c-1.688 1.853-2.786 3.811-3.293 5.856-.957-.329-1.933-.623-2.931-.876l-1.025-.243c.606-2.13.609-4.462-.037-6.805-.129-.752-.047-1.526.237-2.241m25.925 18.283c.934-1.164 1.638-2.436 2.319-3.665.479-.865 1.27-1.499 2.226-1.784.981-.293 2.03-.173 2.954.337 1.305.72 2.077 2.255 1.878 3.734-.206 1.53-1.244 2.743-2.709 3.165a1.54 1.54 0 0 0-.112.037c-.15.056-3.703 1.405-7.578 3.599a45.33 45.33 0 0 0-2.315 1.399c-.476-.755-.981-1.493-1.511-2.212 2.079-1.45 3.721-3.204 4.849-4.61M98.38 64.42a6.43 6.43 0 0 0-2.924-.447c-1.769.142-3.18-.029-4.314-.522-1.876-.816-3.529-2.215-4.715-3.933a36 36 0 0 0-3.901-20.651c3.403-2.228 7.337-3.997 9.415-4.786 2.532-.755 4.393-2.938 4.749-5.578a6.68 6.68 0 0 0-3.371-6.697c-1.622-.895-3.476-1.101-5.221-.58a6.68 6.68 0 0 0-3.959 3.178c-.649 1.173-1.263 2.281-2.04 3.25-1.016 1.266-2.516 2.87-4.401 4.144-3.426-3.932-7.723-7.156-12.692-9.338.34-1.72 1.235-3.367 2.699-4.973l.014-.015a7.1 7.1 0 0 0 1.286-2.093 7.06 7.06 0 0 0-.083-5.451c-.756-1.747-2.149-3.095-3.921-3.796-3.658-1.449-7.815.343-9.266 3.993-.496 1.249-.629 2.604-.385 3.92a1.54 1.54 0 0 0 .03.129c.542 1.931.519 3.844-.03 5.556-5.866-.815-11.671-.159-16.994 1.718-.885-1.677-1.39-3.547-1.391-5.438.027-.286.094-1.099.048-1.613a7.38 7.38 0 0 0-1.252-3.497c-1.184-1.738-3.061-2.894-5.149-3.171s-4.207.356-5.815 1.736c-2.528 2.168-3.279 5.897-1.786 8.867.526 1.046 1.259 1.927 2.179 2.619 1.737 1.305 2.895 2.613 3.538 3.999a12.57 12.57 0 0 1 .502 1.253c-6.282 4.498-11.162 11.006-13.546 18.874-1.355-.405-2.681-1.157-3.994-2.266l-.016-.013a7.12 7.12 0 0 0-2.141-1.208c-3.707-1.317-7.798.62-9.118 4.32-.639 1.792-.541 3.726.277 5.445s2.258 3.016 4.054 3.655a7.13 7.13 0 0 0 3.938.245c.043-.01.086-.021.128-.034 1.824-.58 3.649-.647 5.317-.231a35.92 35.92 0 0 0 1.825 11.88c-1.703 1.543-3.927 2.526-6.221 2.608-.283-.017-.945-.046-1.383.007-1.081.132-2.119.542-3.003 1.185-1.476 1.075-2.425 2.734-2.604 4.55a6.43 6.43 0 0 0 1.68 4.983c1.232 1.336 2.98 2.045 4.738 2.045 1.038 0 2.08-.247 3.022-.759a6.42 6.42 0 0 0 2.211-1.963c1.018-1.45 2.05-2.425 3.154-2.982.84-.424 1.745-.731 2.681-.924 2.546 3.817 5.817 7.162 9.676 9.804a17.46 17.46 0 0 1-1.069 1.856c-.572.864-1.347 1.602-2.03 2.209a8.13 8.13 0 0 0-2.483 4.087 8.17 8.17 0 0 0 1.161 6.598c1.312 1.932 3.405 3.216 5.741 3.523.354.046.706.069 1.056.069 3.201 0 6.18-1.897 7.476-4.868.787-1.805.916-3.741.371-5.599-.21-.716-.333-1.403-.368-2.043-.02-.37-.023-.736-.016-1.101a36.9 36.9 0 0 0 1.727.483c2.981.755 5.97 1.115 8.914 1.115 4.661 0 9.206-.907 13.415-2.586.743 2.035 1.202 4.138 1.325 6.085.039.613-.02.872-.197 1.544a8.14 8.14 0 0 0 1.337 6.847c1.453 1.977 3.716 3.193 6.208 3.333.149.009.297.013.446.013 3.099 0 6.008-1.821 7.337-4.636.968-2.05 1.069-4.327.286-6.411-.773-2.059-2.37-3.744-4.379-4.622-1.2-.524-2.094-1.193-2.659-1.986-.809-1.138-1.433-2.643-1.861-4.475 4.939-3.563 9.004-8.373 11.658-14.112 2.76.013 5.537 1.163 7.372 3.22.168.228.567.755.888 1.059.791.746 1.77 1.283 2.83 1.551a6.42 6.42 0 0 0 1.576.196 6.44 6.44 0 0 0 3.597-1.098c1.514-1.02 2.524-2.649 2.772-4.468.39-2.86-1.275-5.714-3.958-6.785"></path>
</svg>
