<?xml version="1.0" encoding="UTF-8"?>
<svg xmlns="http://www.w3.org/2000/svg" xmlns:v="https://vecta.io/nano" width="107" height="78">
  <path fill="#0096d3" fill-rule="evenodd" d="M91.09 23.785c-1.717-.631-3.765-.734-5.831-.262-2.506.573-4.535 1.866-5.748 3.477-.665-.071-1.534-.135-2.511-.136l2.633-2.298C86.756 18.546 93.649 14.247 95.152 14c.453.035 1.756.752 1.843 1.975.088 1.234-.899 3.576-5.905 7.81m-3.452 8.004c-1.752.406-3.542.217-4.674-.491-.355-.222-.805-.601-.93-1.148-.303-1.316 1.485-3.28 4.333-3.94.611-.142 1.226-.211 1.818-.211 1.102 0 2.119.241 2.856.702.345.216.777.582.916 1.1.006.034.014.066.021.1.247 1.316-1.528 3.238-4.34 3.888M10.005 15.975c.087-1.222 1.39-1.94 1.843-1.975 1.503.247 8.396 4.546 15.519 10.567A107.51 107.51 0 0 1 30 26.864c-.977 0-1.846.064-2.512.136-1.213-1.611-3.242-2.904-5.748-3.477-2.065-.472-4.114-.369-5.83.262-5.006-4.234-5.992-6.576-5.905-7.81m15.961 14.179c-.124.544-.574.923-.929 1.145-1.131.707-2.922.896-4.674.491-2.811-.65-4.586-2.572-4.34-3.888.008-.033.016-.066.022-.1.138-.519.57-.884.916-1.1.737-.461 1.754-.702 2.856-.702a8.07 8.07 0 0 1 1.816.211c2.849.66 4.638 2.624 4.333 3.943m39.049 21.74c-.363-.439-.901-.693-1.47-.693h-3.818V33.971c0-4.388 8.845-11.918 14.42-15.634.514-.343.832-.914.851-1.533s-.26-1.209-.751-1.585c-.155-.119-1.611-1.188-4.846-2.216C65.217 11.674 60.035 11 54 11s-11.217.674-15.402 2.004c-3.236 1.028-4.691 2.098-4.846 2.216a1.92 1.92 0 0 0-.751 1.585c.02.619.338 1.19.852 1.533 5.575 3.716 14.42 11.246 14.42 15.634V51.2h-3.818c-.569 0-1.107.254-1.47.693a1.92 1.92 0 0 0-.406 1.577c1.053 5.574 3.785 20.845 3.785 24.529h3.818c0-3.886-2.426-17.503-3.43-22.971h3.43a1.91 1.91 0 0 0 1.909-1.914V33.971c0-6.123-8.786-13.464-13.449-16.927 2.663-.99 7.538-2.216 15.358-2.216s12.701 1.227 15.359 2.215c-4.662 3.463-13.45 10.805-13.45 16.928v19.143c0 1.057.855 1.914 1.909 1.914h3.43c-1.004 5.468-3.43 19.085-3.43 22.971h3.818c0-3.684 2.732-18.956 3.785-24.529a1.92 1.92 0 0 0-.405-1.577M107 13.317c0-5.444-6.053-9.512-11.464-9.512-5.655 0-8.876 2.955-11.227 5.113-1.687 1.548-2.786 2.497-4.058 2.497-1.259 0-3.796-1.713-6.25-3.368C68.969 4.651 62.08 0 53.5 0S38.031 4.651 33 8.047c-2.453 1.656-4.99 3.368-6.25 3.368-1.272 0-2.371-.949-4.058-2.497C20.34 6.76 17.12 3.805 11.464 3.805 6.053 3.805 0 7.873 0 13.317c0 2.698.73 5.431 1.435 8.074 1.445 5.412 2.18 8.859-.777 11.416-.602.521-.816 1.358-.537 2.102a1.91 1.91 0 0 0 1.79 1.237c3.492 0 6.474-2.97 7.305-3.881.527-.577.945-1.126 1.255-1.643.493.032.944.038 1.355.017.901 2.389 3.417 4.434 6.769 5.206.883.204 1.763.304 2.617.304 1.761 0 3.409-.426 4.734-1.251 1.365-.85 2.259-2.049 2.584-3.461a5.15 5.15 0 0 0 .131-1.019c1.826-.119 4.313-.032 6.057.84 3.878 4.207 5.407 7.139 5.407 8.695 0 1.624-1.12 2.948-2.417 4.482-1.554 1.837-3.315 3.919-3.315 6.932 0 7.589 2.088 13.796 3.766 18.785 1.055 3.136 1.966 5.844 1.966 7.849h3.821c0-2.625-1.003-5.606-2.164-9.058-1.59-4.726-3.568-10.608-3.568-17.576 0-1.624 1.12-2.948 2.417-4.482 1.554-1.837 3.315-3.92 3.315-6.933 0-5.484-7.899-13.32-14.526-18.928C23.953 16.396 14.66 9.512 11.464 9.512c-2.228 0-5.484 2.121-5.727 5.575-.216 3.06 1.867 6.381 6.687 10.619-.248.35-.448.724-.602 1.118-.375.038-1.086.047-2.336-.133-.579-.083-1.167.103-1.591.506-.352.334-.56.787-.588 1.264-.125.294-.447.743-.896 1.232.388-3.023-.478-6.268-1.282-9.279-.642-2.407-1.307-4.896-1.307-7.097 0-2.88 3.786-5.707 7.643-5.707 4.163 0 6.438 2.088 8.638 4.106 1.877 1.723 3.819 3.504 6.648 3.504 2.433 0 5.063-1.776 8.394-4.024 4.878-3.293 10.95-7.391 18.356-7.391s13.478 4.098 18.356 7.391c3.33 2.248 5.961 4.024 8.394 4.024 2.829 0 4.771-1.781 6.648-3.504 2.2-2.018 4.475-4.106 8.638-4.106 3.857 0 7.643 2.827 7.643 5.707 0 2.201-.664 4.69-1.307 7.097-.804 3.011-1.67 6.255-1.282 9.279-.449-.489-.772-.937-.896-1.232-.028-.476-.236-.929-.588-1.264-.424-.403-1.01-.589-1.591-.506-1.25.18-1.961.17-2.336.133-.154-.395-.354-.769-.602-1.118 4.82-4.238 6.903-7.559 6.687-10.619-.243-3.454-3.5-5.575-5.728-5.575-3.195 0-12.489 6.884-17.956 11.511-12.006 10.161-14.526 15.901-14.526 18.928 0 3.013 1.762 5.095 3.315 6.933 1.297 1.533 2.417 2.858 2.417 4.482 0 6.968-1.978 12.85-3.568 17.576-1.161 3.451-2.164 6.433-2.164 9.058h3.821c0-2.005.911-4.713 1.966-7.849 1.678-4.988 3.766-11.196 3.766-18.785 0-3.013-1.761-5.095-3.315-6.932-1.297-1.534-2.417-2.858-2.417-4.482 0-1.557 1.529-4.488 5.407-8.695 1.744-.872 4.231-.958 6.057-.84.01.338.053.678.131 1.016.326 1.416 1.22 2.614 2.585 3.464 1.325.826 2.973 1.252 4.734 1.252.854 0 1.734-.1 2.617-.304 3.353-.772 5.868-2.816 6.77-5.206a11.71 11.71 0 0 0 1.355-.017c.31.517.728 1.066 1.255 1.643.831.91 3.813 3.881 7.304 3.881a1.91 1.91 0 0 0 1.79-1.237c.279-.744.065-1.582-.537-2.102-2.958-2.557-2.223-6.004-.777-11.416.705-2.643 1.435-5.376 1.435-8.074"></path>
</svg>
