<?xml version="1.0" encoding="UTF-8"?>
<svg xmlns="http://www.w3.org/2000/svg" xmlns:v="https://vecta.io/nano" width="102" height="78">
  <path fill="#0096d3" fill-rule="evenodd" d="M11.424 34.202c.28 0 .587.023.966.072 1.173.151 2.264-.592 2.481-1.693C17.478 19.348 27.825 9.04 40.983 5.514a10.56 10.56 0 0 0-1.728 5.782c0 4.263 2.661 8.205 6.78 10.043 1.828.816 3.686 1.223 5.462 1.223 1.929 0 3.763-.48 5.356-1.437 2.448-1.469 3.909-3.854 3.909-6.378 0-3.801-3.266-6.893-7.28-6.893-1.75 0-3.442.596-4.763 1.68-.822.674-.912 1.851-.2 2.629a2.05 2.05 0 0 0 2.778.19c.606-.496 1.382-.77 2.186-.77 1.843 0 3.342 1.42 3.342 3.165 0 1.24-.778 2.447-2.079 3.229-1.899 1.14-4.462 1.137-7.031-.01-2.745-1.225-4.52-3.843-4.52-6.67 0-3.319 2.343-6.126 5.543-7.028A39.18 39.18 0 0 1 51 4.195c17.695 0 32.889 11.939 36.129 28.387.217 1.101 1.312 1.845 2.481 1.693.38-.049.687-.072.967-.072 3.856 0 6.993 2.97 6.993 6.621s-3.137 6.621-6.993 6.621a7.29 7.29 0 0 1-1.63-.19c-1.152-.261-2.314.38-2.644 1.456C81.776 63.485 67.26 73.805 51 73.805s-30.776-10.32-35.302-25.096c-.28-.914-1.162-1.513-2.127-1.513a2.36 2.36 0 0 0-.517.058 7.4 7.4 0 0 1-1.63.19c-3.856 0-6.993-2.97-6.993-6.621s3.137-6.621 6.993-6.621M39.72 54.673c-.74-.798-1.986-.845-2.782-.104a1.97 1.97 0 0 0-.104 2.784c3.657 3.942 8.82 6.204 14.166 6.204s10.509-2.261 14.166-6.204a1.97 1.97 0 0 0-.104-2.784 1.97 1.97 0 0 0-2.782.104c-2.957 3.188-6.963 4.943-11.28 4.943s-8.323-1.755-11.28-4.943m25.953-14.126a5.14 5.14 0 0 0 5.136-5.139 5.14 5.14 0 0 0-5.136-5.139 5.14 5.14 0 0 0-5.137 5.139 5.14 5.14 0 0 0 5.137 5.139m-29.347 0a5.14 5.14 0 0 0 5.137-5.139 5.14 5.14 0 0 0-5.137-5.139 5.14 5.14 0 0 0-5.137 5.139 5.14 5.14 0 0 0 5.137 5.139M11.424 51.638c.199 0 .399-.005.6-.016C17.672 67.242 33.428 78 51 78s33.328-10.758 38.976-26.377c.201.011.401.016.6.016 6.299 0 11.424-4.852 11.424-10.816 0-5.802-4.851-10.552-10.915-10.805C86.735 12.518 70.178 0 51 0S15.265 12.518 10.915 30.018C4.851 30.271 0 35.021 0 40.823c0 5.964 5.125 10.816 11.424 10.816"></path>
</svg>
