<?xml version="1.0" encoding="UTF-8"?>
<svg xmlns="http://www.w3.org/2000/svg" xmlns:v="https://vecta.io/nano" width="96" height="83">
  <path fill="#0096d3" fill-rule="evenodd" d="M92.571 27.429c0 1.392-.149 3.415-.453 5.871-5.604-1.263-9.891-6.948-10.336-8.02-.112-.337-.268-.849-.37-1.489-.192-1.166-.343-3.428.804-5.47.127-.218.243-.402.354-.561.789-1.133 2.583-3.243 6.624-6.99 2.172 4.596 3.379 10.746 3.379 16.66m-3.526 21.769a25.56 25.56 0 0 1-6.765-7.976 21.92 21.92 0 0 1 9.391-4.738c-.582 3.752-1.452 8.15-2.626 12.714m-2.438 8.274c-.459 1.365-.93 2.667-1.411 3.909a39.69 39.69 0 0 0-10.567-9.843c2.699-1.972 4.847-4.576 6.262-7.594 1.937 3.098 4.464 5.792 7.436 7.928a114.62 114.62 0 0 1-1.72 5.6M79.69 72.263c-1.919-4.39-4.775-8.303-8.391-11.467a22.45 22.45 0 0 0 2.045-7.03c4.228 2.708 7.886 6.268 10.699 10.427-1.385 3.192-2.843 5.891-4.354 8.07m-9.404 6.594c-5.748 0-5.96-2.302-6.343-6.48-.079-.863-.164-1.778-.315-2.705 2.601-1.758 4.762-3.998 6.393-6.567a29.98 29.98 0 0 1 7.855 11.504c-2.453 2.793-5.012 4.249-7.589 4.249m-7.34-11.855c-.639-1.713-1.733-3.328-3.695-4.575 2.975-2.152 5.189-5.203 6.309-8.742a21.96 21.96 0 0 0 .85.019c1.48 0 2.951-.153 4.404-.451a19.79 19.79 0 0 1-7.867 13.749m-6.438-5.857c-1.49-.503-3.291-.861-5.474-1.032a25.6 25.6 0 0 0 4.334-9.172 14.6 14.6 0 0 0 6.315-2.269c.884 1.003 1.445 2.239 1.615 3.58-1.004 3.769-3.443 6.949-6.79 8.893m-8.681-1.143a40.36 40.36 0 0 0-2.051.058c-2.596-3.382-4.282-7.346-4.918-11.567a14.46 14.46 0 0 0 5.117-9.35c2.249 1.917 4.784 3.501 7.533 4.689.259 5.92-1.779 11.719-5.681 16.169m-15.453 9.671c-2.537-2.926-4.004-6.675-4.106-10.579 4.228-.138 8.416-1 12.367-2.558.623 1.327 1.352 2.604 2.183 3.823-7.928 1.222-9.799 5.373-10.444 9.314m-6.658 9.185c-3.554 0-7.075-2.773-10.328-8.002a47.64 47.64 0 0 1 7.954-11.931c.784.079 1.569.134 2.354.163a19.42 19.42 0 0 0 6.308 13.88c-.361 3.803-.817 5.889-6.288 5.889M9.393 57.471c-1.032-3.067-1.923-6.191-2.68-9.227 5.5 1.734 10.681 4.263 15.447 7.536a30.14 30.14 0 0 0-.446 1.103 50.22 50.22 0 0 0-7.874 11.261c-1.567-2.98-3.059-6.547-4.447-10.673M6.026 45.353c-.895-3.959-1.552-7.675-1.981-10.807a19.94 19.94 0 0 1 15.263 7.641c-2.046 1.716-3.82 3.774-5.232 6.115-2.603-1.167-5.29-2.152-8.05-2.948M3.441 28.147a24.5 24.5 0 0 1 18.967 1.13 17.54 17.54 0 0 0 1.154 10.044c-.756.401-1.491.84-2.2 1.317A22.5 22.5 0 0 0 3.728 31.97c-.161-1.494-.256-2.785-.287-3.823m3.647-17.959c3.862 1.104 7.227 3.396 9.643 6.587-1.35 2.287-2.259 4.84-2.631 7.523a27.07 27.07 0 0 0-10.624 1.128c.249-5.529 1.516-11.09 3.612-15.238m8.341-6.76c2.962 0 5.497 2.818 7.713 6.64-1.88 1.224-3.529 2.745-4.893 4.485-2.567-3.119-5.961-5.414-9.822-6.647 1.884-2.755 4.247-4.477 7.002-4.477m12.208 16.18a17.52 17.52 0 0 0-4.571 7.124 27.21 27.21 0 0 0-6.42-2.077c.694-5.018 3.534-9.519 7.722-12.317 1.177 2.322 2.261 4.85 3.268 7.27m4.577 10.145a15.8 15.8 0 0 0-1.042 7.02c-1.826.291-3.595.784-5.279 1.462-2.319-5.469-1.177-11.755 2.81-16.053 1.207 2.905 2.329 5.52 3.51 7.571m-8.929 23.681c-2.209-1.497-4.503-2.841-6.874-4.028a21.89 21.89 0 0 1 15.171-10.095 15.7 15.7 0 0 0 1.211 3.266c-3.958 2.818-7.23 6.57-9.508 10.857m16.366.727c-4.757 1.868-9.88 2.65-14.978 2.295a28.92 28.92 0 0 1 9.468-11.679 15.92 15.92 0 0 0 4.151 3.936 27.76 27.76 0 0 0 1.359 5.448m-5.58-21.762c1.089 1.2 2.274 1.886 3.644 1.886 1.207 0 2.052-.555 2.68-1.461a29.88 29.88 0 0 0 3.107 3.957c.166 3.678-1.336 7.174-4.102 9.577-4.565-3.165-6.604-8.708-5.329-13.959m8.223-5.703l.228-1.154c4.281.82 8.391 2.489 12.024 4.889.369 1.238.844 2.287 1.546 2.976a11.77 11.77 0 0 1-1.796 7.966c-5.35-2.371-9.8-6.396-12.691-11.483.264-.994.475-2.085.688-3.194M48 17.143c3.584 0 4.626 3.96 5.706 9.553l.047.246c-3.316-1.858-6.929-3.185-10.665-3.91.921-3.58 2.175-5.89 4.911-5.89m10.75 17.113c1.956-.229 3.534-1.901 5.017-4.468 2.121 3.217 2.608 7.314 1.178 10.995-1.528 3.933-4.991 6.739-9.07 7.482.219-1.616.277-3.26.181-4.911 1.919-2.668 2.854-5.865 2.693-9.098m9.022-13.219c2.929 2.147 5.236 5.105 6.6 8.513a19.42 19.42 0 0 1 1.361 7.615 30.06 30.06 0 0 0-7.426-1.61 14.63 14.63 0 0 0-3.216-8.316c.876-1.843 1.749-3.949 2.68-6.201m11.35 20.473a17.27 17.27 0 0 1-7.418 8.881 19.38 19.38 0 0 1-5.99.727 9.2 9.2 0 0 0-2-4.037 14.58 14.58 0 0 0 3.629-5.367 14.6 14.6 0 0 0 .891-3.585 27.48 27.48 0 0 1 10.888 3.38m-.856-3.318c.205-2.996-.218-6.037-1.241-8.893a35.39 35.39 0 0 1 2.472-2.856c.772 1.482 4.178 5.978 8.999 8.284-2.914 1.016-5.611 2.57-7.976 4.617a29.9 29.9 0 0 0-2.254-1.152M73.63 8.803c2.797 1.85 6.551 4.968 6.617 7.806a12.54 12.54 0 0 0-.264.436c-1.335 2.377-1.374 4.888-1.201 6.487a37.96 37.96 0 0 0-2.922 3.111c-1.668-3.218-4.104-5.993-7.073-8.043 1.443-3.429 3.04-6.987 4.844-9.796m6.941-5.374c2.928 0 5.413 1.949 7.351 5.013-2.39 2.196-4.288 4.08-5.672 5.63-.745-1.736-2.217-3.521-4.405-5.338a32.43 32.43 0 0 0-2.717-2.014c1.643-2.007 3.446-3.292 5.444-3.292m0-3.429C72.768 0 68.434 10.471 64.61 19.709c-1.32 3.189-2.567 6.202-3.796 8.345-1.308 2.28-2.115 2.71-2.418 2.787-.517-.612-1-3.113-1.324-4.795-1.005-5.205-2.381-12.332-9.072-12.332s-8.067 7.128-9.072 12.332c-.325 1.681-.807 4.183-1.324 4.795-.303-.077-1.11-.507-2.418-2.787-1.229-2.144-2.476-5.156-3.796-8.345C27.566 10.471 23.232 0 15.429 0 5.407 0 0 14.132 0 27.429c0 5.191 1.952 18.676 6.143 31.136 3.639 10.822 9.989 23.721 19.571 23.721 8.877 0 9.364-5.32 9.757-9.595.456-4.97.85-9.262 12.529-9.262s12.073 4.292 12.529 9.262c.393 4.275.88 9.595 9.757 9.595 9.582 0 15.932-12.9 19.571-23.721C94.048 46.104 96 32.619 96 27.429 96 14.132 90.593 0 80.571 0"></path>
</svg>
