<?xml version="1.0" encoding="UTF-8"?>
<svg xmlns="http://www.w3.org/2000/svg" xmlns:v="https://vecta.io/nano" width="95" height="96">
  <path fill="#0096d3" fill-rule="evenodd" d="M77.561 91.646c-2.938 0-4.692-1.546-4.692-4.135 0-5.586 7.305-12.197 13.475-12.197 2.938 0 4.692 1.546 4.692 4.135 0 5.586-7.304 12.197-13.475 12.197m-67.153-56.82C4.771 22.339 4.014 12.582 3.964 11.834a7.92 7.92 0 0 1 1.059-3.905C5.72 6.725 6.725 5.72 7.929 5.024c1.198-.693 2.569-1.059 3.963-1.059a7.92 7.92 0 0 1 3.963 1.059 7.93 7.93 0 0 1 1.771 1.403c7.555 8.022 18.161 17.42 35.044 22.483-11.055 4.005-18.977 14.61-18.977 27.03a29.23 29.23 0 0 0 .048 1.638l-1.44-1.142c-1.518-1.245-2.991-2.564-4.422-3.935a91.06 91.06 0 0 1-4.162-4.262 78.37 78.37 0 0 1-3.859-4.535l-.009-.012a.99.99 0 0 0-1.323-.214.99.99 0 0 0-.283 1.374c1.13 1.716 2.33 3.367 3.579 4.982a93.7 93.7 0 0 0 3.912 4.724c1.359 1.534 2.773 3.027 4.258 4.465 1.449 1.4 2.966 2.748 4.588 4.008a28.53 28.53 0 0 0 1.714 4.848C22.393 56.672 14.639 44.197 10.408 34.825m80.833-.405c0-1.095-.887-1.982-1.982-1.982s-1.982.887-1.982 1.982a1.98 1.98 0 1 0 3.964 0M67.704 72.222c-1.095 0-1.982.887-1.982 1.982s.887 1.982 1.982 1.982a1.98 1.98 0 0 0 1.982-1.982c0-1.095-.887-1.982-1.982-1.982m-26.52 10.91a1.98 1.98 0 1 0 0 3.964 1.98 1.98 0 1 0 0-3.964m19.31 5.673a1.98 1.98 0 0 0-1.982 1.982c0 1.095.887 1.982 1.982 1.982s1.982-.887 1.982-1.982-.887-1.982-1.982-1.982m6.828-46.93a1.98 1.98 0 0 0-1.982-1.982c-1.095 0-1.982.887-1.982 1.982s.887 1.982 1.982 1.982 1.982-.887 1.982-1.982M52.521 69.368a1.98 1.98 0 1 0 3.964 0 1.98 1.98 0 1 0-3.964 0m-.408-10.391c-.68.217-1.571-.068-2.443-.781-1.111-.908-2.057-2.396-2.594-4.083-1.07-3.361-.198-6.405 1.297-6.881.68-.217 1.57.068 2.443.781 1.111.908 2.057 2.396 2.594 4.083 1.07 3.361.198 6.405-1.297 6.881m5.074-8.084c-.775-2.434-2.147-4.547-3.863-5.949-1.93-1.577-4.173-2.12-6.154-1.489-3.894 1.24-5.594 6.45-3.871 11.861.776 2.434 2.147 4.547 3.863 5.949 1.402 1.146 2.97 1.746 4.483 1.746.569 0 1.13-.085 1.671-.257 3.894-1.24 5.594-6.45 3.871-11.861m9.098 6.762c-.441-.623-1.117-1.829-.69-2.906.424-1.068 1.945-1.791 3.971-1.791 1.166 0 2.5.239 3.888.79 3.8 1.507 5.704 4.432 5.037 6.115-.427 1.077-1.746 1.492-2.494 1.644-1.575.319-3.531.085-5.366-.643s-3.419-1.897-4.347-3.209m10.5 7.737c2.611-.529 4.576-2.011 5.392-4.067 1.61-4.061-1.578-9.007-7.26-11.261h0c-5.682-2.253-11.394-.837-13.005 3.224-.816 2.056-.401 4.483 1.138 6.657 1.381 1.951 3.555 3.586 6.122 4.604 1.772.703 3.609 1.063 5.347 1.063.78 0 1.541-.072 2.266-.219m9.56 5.957c-4.023 0-8.354 1.882-11.881 5.164a21.21 21.21 0 0 0-1.933 2.053c-3.182 1.423-6.578 2.147-10.1 2.147a24.62 24.62 0 0 1-12.948-3.663c-.143-.172-.316-.324-.52-.444l-1.224-.735c-6.11-4.516-10.081-11.768-10.081-19.932 0-13.66 11.114-24.774 24.774-24.774S87.205 42.279 87.205 55.94c0 3.838-.853 7.515-2.535 10.93-.484.982-.08 2.17.902 2.654s2.17.079 2.654-.902c1.953-3.965 2.943-8.232 2.943-12.682 0-15.78-12.785-28.628-28.54-28.735-21.278-3.787-33.685-14.541-42.124-23.501a11.89 11.89 0 0 0-2.665-2.11 11.89 11.89 0 0 0-11.896 0 11.94 11.94 0 0 0-4.351 4.351A11.89 11.89 0 0 0 0 11.892l.003.103c.023.431.62 10.71 6.714 24.287 5.488 12.225 16.665 29.472 38.823 42.893a28.58 28.58 0 0 0 16.891 5.503 28.72 28.72 0 0 0 7.12-.888c-.421 1.249-.645 2.501-.645 3.721 0 4.844 3.478 8.099 8.656 8.099 4.023 0 8.354-1.882 11.881-5.164S95 83.152 95 79.449c0-4.844-3.479-8.099-8.656-8.099"></path>
</svg>
