<?xml version="1.0" encoding="UTF-8"?>
<svg xmlns="http://www.w3.org/2000/svg" xmlns:v="https://vecta.io/nano" width="76" height="96">
  <path fill="#0096d3" fill-rule="evenodd" d="M47.862 27.981h5.983v35.975h-5.983V47.967H27.919v15.989h-5.983V27.981h5.983v13.99h19.942v-13.99zm-3.988 9.993H31.908v-13.99h-13.96v43.97h13.96V51.964h11.965v15.989h13.96v-43.97h-13.96v13.99zm27.919 41.971a2 2 0 0 1-1.994 1.999H5.983a2 2 0 0 1-1.994-1.999V13.99a2 2 0 0 1 1.994-1.999h63.816a2 2 0 0 1 1.994 1.999v65.954zM33.902 5.996a2 2 0 0 1 1.994-1.999h3.988a2 2 0 0 1 1.994 1.999v1.999h-7.977V5.996zm35.896 1.999H45.868V5.996A6 6 0 0 0 39.885 0h-3.988a6 6 0 0 0-5.983 5.996v1.999H5.983A6 6 0 0 0 0 13.99v65.954a6 6 0 0 0 5.983 5.996h23.931v9.993h3.988V85.94h7.977v9.993h3.988V85.94h23.931a6 6 0 0 0 5.983-5.996V13.99a6 6 0 0 0-5.983-5.996h0z"></path>
</svg>
