<?xml version="1.0" encoding="UTF-8"?>
<svg xmlns="http://www.w3.org/2000/svg" xmlns:xlink="http://www.w3.org/1999/xlink" xmlns:v="https://vecta.io/nano" width="718" height="705">
  <style><![CDATA[.B{mask:url(#B)}]]></style>
  <defs>
    <path id="A" d="M0 705h718V0H0z"></path>
  </defs>
  <g fill-rule="evenodd">
    <g fill="#2998d3">
      <path d="M553.375 423.302a1.94 1.94 0 0 0 1.376-.57c.761-.761.761-1.991 0-2.751l-7.79-7.787c-1.83-1.819-3.319-5.565-3.319-8.35l.031-1.559c.086-2.946.181-6.287-2.663-9.115l-19.494-19.486c-1.117-1.119-2.715-1.609-4.275-1.302s-2.848 1.36-3.461 2.822c-.508 1.212-.821 2.409-.977 3.571l-9.836-9.835c-1.222-1.22-2.91-1.893-4.746-1.893h-.014c-1.89.002-3.72.714-4.899 1.899-.732.736-1.335 1.644-1.758 2.596-2.447-1.617-5.984-1.761-8.594.85-1.328 1.329-2.03 2.973-2.028 4.756.004 1.471.526 2.94 1.396 4.121-1.059.306-2.017.825-2.743 1.557-1.203 1.21-1.878 3.01-1.851 4.935.025 1.852.675 3.543 1.775 4.635l2.634 2.635a6.65 6.65 0 0 0-2.554 1.596c-1.415 1.413-2.091 3.372-1.906 5.519.165 1.897 1.002 3.726 2.297 5.02l15.572 15.567a1.94 1.94 0 0 0 2.752 0c.761-.761.761-1.991 0-2.751l-15.572-15.567c-.646-.648-1.084-1.621-1.17-2.606-.049-.568-.014-1.638.779-2.43 1.446-1.444 3.395-.749 4.074-.076l10.429 10.426a1.94 1.94 0 0 0 2.752 0c.761-.761.761-1.993 0-2.751l-17.34-17.336c-.304-.304-.617-1.018-.631-1.936-.012-.872.257-1.67.718-2.135.455-.457 1.285-.72 2.114-.708.921.014 1.645.333 1.956.638l16.183 16.178a1.94 1.94 0 0 0 2.752 0c.761-.761.761-1.993 0-2.751l-19.642-19.636a3.19 3.19 0 0 1-.884-2.148c0-.736.3-1.409.888-1.998 1.69-1.691 3.611-.533 4.15 0l18.488 18.484a1.95 1.95 0 0 0 2.752 0c.761-.761.761-1.993 0-2.753l-16.146-16.139c-.237-.237-.123-.798-.062-1.029.181-.695.631-1.467 1.178-2.016.37-.374 1.178-.749 2.147-.751h.006c.566 0 1.368.132 1.993.755l14.953 14.948 8.136 8.134c.38.381.878.57 1.376.57s.997-.189 1.376-.57c.759-.759.759-1.991 0-2.751l-8.136-8.134c-2.322-2.329-1.006-6.089-.547-7.184.15-.364.452-.471.619-.506a.86.86 0 0 1 .771.235l19.502 19.496c1.573 1.563 1.602 3.3 1.516 6.24l-.033 1.672c0 3.314 1.534 8.194 4.463 11.105l7.786 7.784a1.94 1.94 0 0 0 1.376.57m-31.53 17.444l.42.09c1.546.335 4.52.979 7.231.274l12.769 12.757a1.95 1.95 0 0 0 1.376.568 1.94 1.94 0 0 0 1.376-.57c.761-.759.761-1.993 0-2.751l-14.603-14.586-1.236.58c-1.81.85-4.701.226-6.091-.076l-.473-.099c-1.051-.218-2.079.469-2.293 1.522s.469 2.08 1.522 2.292"></path>
      <path d="M503.181 432.202c-.504-1.738-.298-3.567.578-5.153.44-.802 1.026-1.492 1.738-2.051l1.368-1.074-.915-1.479a6.8 6.8 0 0 1-.177-6.838 6.79 6.79 0 0 1 9.207-2.658 6.72 6.72 0 0 1 3.258 4.145l.38 1.38 1.429.053c.798.027 1.524.22 2.159.57a4.82 4.82 0 0 1 2.297 2.835 4.8 4.8 0 0 1-.393 3.748 4.84 4.84 0 0 1-2.566 2.205 4.83 4.83 0 0 1-2.725.177l-2.474-.551.107 2.534a6.74 6.74 0 0 1-.829 3.551 6.73 6.73 0 0 1-4.051 3.236 6.74 6.74 0 0 1-5.154-.578 6.73 6.73 0 0 1-3.237-4.051m9.47 8.367a10.59 10.59 0 0 0 6.381-5.092 10.63 10.63 0 0 0 1.182-3.411 8.72 8.72 0 0 0 2.676-.529c1.972-.726 3.615-2.137 4.631-3.977a8.66 8.66 0 0 0 .709-6.758c-.666-2.191-2.135-4.005-4.14-5.112a8.43 8.43 0 0 0-2.53-.903c-.919-2.23-2.552-4.063-4.695-5.244a10.69 10.69 0 0 0-14.496 4.184l-.002.002c-1.588 2.884-1.738 6.326-.475 9.313a10.58 10.58 0 0 0-1.54 2.129 10.59 10.59 0 0 0-.911 8.112c.79 2.738 2.603 5.003 5.096 6.379a10.62 10.62 0 0 0 5.141 1.333 10.68 10.68 0 0 0 2.974-.424m-37.136-7.686a7.8 7.8 0 0 1 7.79-7.636l.148.002a7.74 7.74 0 0 1 5.466 2.384c1.442 1.496 2.215 3.466 2.176 5.542v.002c-.082 4.289-3.597 7.741-7.936 7.632a7.73 7.73 0 0 1-5.466-2.382c-1.443-1.499-2.219-3.466-2.178-5.544m7.794 11.819c6.342 0 11.558-5.092 11.679-11.453a11.59 11.59 0 0 0-3.266-8.317 11.61 11.61 0 0 0-8.197-3.575 11.69 11.69 0 0 0-11.903 11.453 11.59 11.59 0 0 0 3.268 8.317 11.61 11.61 0 0 0 8.197 3.573c.074.002.148.002.222.002m21.406 6.932c0 2.617-2.184 4.746-4.868 4.748h-.004a4.89 4.89 0 0 1-3.449-1.399c-.911-.895-1.415-2.082-1.415-3.341 0-2.617 2.184-4.748 4.868-4.75h.004a4.89 4.89 0 0 1 3.449 1.401 4.65 4.65 0 0 1 1.415 3.341h0zM499.843 443c-4.827.004-8.757 3.88-8.757 8.642.002 2.314.919 4.487 2.581 6.118 1.653 1.621 3.846 2.514 6.176 2.514h.008c4.827-.004 8.757-3.878 8.757-8.64v-.002c-.002-2.314-.919-4.487-2.581-6.118-1.653-1.621-3.846-2.514-6.176-2.514h-.008zm-474.574-8.061l-3.506-54.36H69.72l-3.502 54.368c-.138 2.296-4.245 4.009-7.821 4.009H33.092c-3.578 0-7.685-1.712-7.823-4.016h0zm-3.856-64.09h48.665l.002 4.156-.109 1.681H21.512l-.099-1.555v-4.283zm36.984 81.727a3.9 3.9 0 0 1-3.893 3.892H36.985a3.9 3.9 0 0 1-3.893-3.892v-9.729h25.305v9.729zm-21.412 7.784h17.519c4.294 0 7.786-3.491 7.786-7.784v-10.2c4.099-.994 7.593-3.526 7.813-7.186l3.866-60.058v-8.175H17.52l.004 8.299 3.86 59.925c.22 3.666 3.714 6.2 7.815 7.194v10.2c0 4.293 3.492 7.784 7.786 7.784h0zm-3.894-50.592v-5.838h9.733v-9.729h5.84v9.729h9.733v5.838h-9.733v9.729h-5.84v-9.729h-9.733zm5.84 13.621h13.626v-9.729h9.733v-13.621h-9.733v-9.729H38.931v9.729h-9.733v13.621h9.733v9.729zm598.198-.817c0 .095.025.179.029.272l-2.85 3.102c-1.294-.333-2.4-.987-3.325-2.018l12.96-22.29 18.689-13.08a5.85 5.85 0 0 1 4.604-.92l1.871.411-23.859 25.939c-5.001.745-8.119 3.948-8.119 8.585h0zm5.773 8.198l-2.822 3.152a1.94 1.94 0 0 0-.487 1.481l.496 5.264c-6.167 5.871-13.408 8.599-21.511 8.157l19.888-21.65c1.069 1.699 2.661 2.94 4.436 3.596h0zm22.459 1.722c-.491.627-1.606.782-2.581.782-.903 0-3.002-.152-3.002-1.559v-.387h4.064a26.63 26.63 0 0 0 1.518 1.164h0zm-12.477.782c-1.294 0-2.838-.27-2.838-1.559v-.387h5.84v.387c0 1.407-2.098 1.559-3.002 1.559h0zm29.605-54.024c.845-.926 2.25-1.062 3.264-.315.564.414.911 1.025.983 1.72a2.42 2.42 0 0 1-.607 1.884l-28.03 31.276h-7.405l31.795-34.565zm-12.977 29.529c0 2.777-2.26 5.036-5.038 5.036h-1.147l6.184-6.9v1.864zm-21.939 8.928h16.902c4.923 0 8.931-4.005 8.931-8.928v-6.207l9.491-10.591c3.375 2.555 11.483 8.214 17.135 8.214h2.571a1.95 1.95 0 0 0 1.947-1.946 1.95 1.95 0 0 0-1.947-1.946h-2.571c-3.985 0-10.803-4.46-14.525-7.235l3.525-3.933a6.36 6.36 0 0 0-.967-9.332 6.34 6.34 0 0 0-8.444.815l-7.465 8.116-4.084-.897a9.76 9.76 0 0 0-7.671 1.531l-19.041 13.327c-.234.163-.428.376-.57.621l-13.824 23.753a1.95 1.95 0 0 0 .058 2.092c1.182 1.747 2.686 3.057 4.434 3.888l-18.338 19.963c-.483.525-.64 1.275-.407 1.95s.816 1.169 1.52 1.286a36.02 36.02 0 0 0 5.945.502c8.761 0 16.734-3.386 23.317-9.965.409-.411.615-.983.561-1.561l-.506-5.341 2.721-3.036c.541 2.656 3.013 4.318 6.614 4.318 2.057 0 3.751-.521 4.948-1.44 1.197.918 2.891 1.44 4.948 1.44 2.768 0 4.847-.998 5.919-2.658a24.57 24.57 0 0 0 11.156 2.658h6.653a27.15 27.15 0 0 0 7.475-1.049 23.29 23.29 0 0 1 6.402-.897h2.217a1.95 1.95 0 0 0 1.947-1.946 1.95 1.95 0 0 0-1.947-1.946h-2.217a27.15 27.15 0 0 0-7.475 1.049 23.29 23.29 0 0 1-6.402.897h-6.653c-5.193 0-10.036-1.851-14.003-5.351-.358-.313-.814-.486-1.289-.486h-18.691c-2.015 0-4.851-1.508-4.851-4.865 0-4.232 4.103-4.865 6.55-4.865h0zm2.472 31.135h-9.733c-1.076 0-1.947.872-1.947 1.946s.87 1.946 1.947 1.946h9.733c1.076 0 1.947-.872 1.947-1.946s-.87-1.946-1.947-1.946m17.519 3.892c1.076 0 1.947-.872 1.947-1.946s-.87-1.946-1.947-1.946h-9.733c-1.076 0-1.947.872-1.947 1.946s.87 1.946 1.947 1.946h9.733zm17.519 0c1.076 0 1.947-.872 1.947-1.946s-.87-1.946-1.947-1.946h-9.733c-1.076 0-1.947.872-1.947 1.946s.87 1.946 1.947 1.946h9.733zm-504.037-40.047c0 8.136 5.135 15.481 12.773 18.278a1.93 1.93 0 0 0 .67.121c.792 0 1.54-.49 1.83-1.278a1.95 1.95 0 0 0-1.16-2.497c-6.114-2.238-10.219-8.114-10.219-14.623 0-8.583 6.986-15.567 15.572-15.567s15.572 6.984 15.572 15.567c0 1.074.87 1.946 1.947 1.946s1.947-.872 1.947-1.946c0-10.73-8.732-19.459-19.465-19.459s-19.465 8.729-19.465 19.459m-12.291-31.745c5.882-5.88 13.704-9.12 22.021-9.12a30.91 30.91 0 0 1 20.147 7.418 34.95 34.95 0 0 0-10.414-1.58c-19.317 0-35.037 15.713-35.037 35.026a34.91 34.91 0 0 0 1.577 10.399c-10.383-12.22-9.83-30.609 1.707-42.142h0zm41.486 57.847v13.954l-7.786-7.784v-13.954l7.786 7.784zm-.806-24.158l27.251 27.242h-17.852l-5.269-5.266-11.679-11.675-10.303-10.302h17.852zm20.271 40.864h-15.572v-12.814l1.947 1.946c.726.724 1.729 1.138 2.754 1.138h10.871v9.729zm-54.104-18.212l.315.315.798.794c.082.082.187.121.278.185 6.028 5.476 13.949 8.881 22.665 9.091l11.15 11.148a1.97 1.97 0 0 0 .629.42c.236.097.491.15.749.15h19.465c1.076 0 1.947-.87 1.947-1.946v-11.675h3.087a3.88 3.88 0 0 0 3.597-2.401c.605-1.459.274-3.125-.845-4.242L212.19 411.88a3.86 3.86 0 0 0-2.752-1.14h-17.852a3.88 3.88 0 0 0-2.754 6.645l9.733 9.729v16.608a31.02 31.02 0 0 1-19.847-8.834l-.399-.395c-5.528-5.624-8.952-13.32-8.952-21.808 0-17.167 13.972-31.134 31.144-31.134s31.144 13.968 31.144 31.134c0 4.044-.761 7.974-2.266 11.685-.403.998.076 2.133 1.074 2.535a1.95 1.95 0 0 0 2.534-1.074c1.693-4.178 2.55-8.601 2.55-13.146 0-9.811-4.068-18.68-10.593-25.045-.031-.035-.043-.08-.076-.115l-9.324-9.334c-6.618-6.616-15.418-10.261-24.777-10.261s-18.157 3.645-24.773 10.261c-13.661 13.656-13.661 35.876.002 49.536l9.598 9.556z"></path>
      <path d="M202.458 389.336v-1.946c0-1.074-.87-1.946-1.947-1.946s-1.947.872-1.947 1.946v1.946c0 1.074.87 1.946 1.947 1.946s1.947-.872 1.947-1.946m-5.84 0v-1.946c0-1.074-.87-1.946-1.947-1.946s-1.947.872-1.947 1.946v1.946c0 1.074.87 1.946 1.947 1.946s1.947-.872 1.947-1.946m11.679 0v-1.946c0-1.074-.87-1.946-1.947-1.946s-1.947.872-1.947 1.946v1.946c0 1.074.87 1.946 1.947 1.946s1.947-.872 1.947-1.946m150.312 67.133h-40.877a1.95 1.95 0 0 1-1.947-1.946v-71.998a1.95 1.95 0 0 1 1.947-1.946h7.786v-3.892h-7.786a5.85 5.85 0 0 0-5.84 5.838v71.998a5.85 5.85 0 0 0 5.84 5.838h40.877v-3.892zm27.251-46.701v-27.242a5.85 5.85 0 0 0-5.84-5.838h-7.786v3.892h7.786a1.95 1.95 0 0 1 1.947 1.946v27.242h3.893z"></path>
      <path d="M325.519 388.363v-3.892h-5.84v68.106h33.091v-3.891h-29.198v-60.323zm46.716 0h1.947v21.405h3.893v-25.297h-5.84zm-5.839-1.946h-35.037v-3.892a3.9 3.9 0 0 1 3.893-3.892h7.786v-1.946a5.85 5.85 0 0 1 5.84-5.838 5.85 5.85 0 0 1 5.84 5.838v1.946h7.786a3.9 3.9 0 0 1 3.893 3.892v3.892zm3.893-3.892c0-4.293-3.492-7.784-7.786-7.784h-4.09a9.75 9.75 0 0 0-19.072 0h-4.09c-4.294 0-7.786 3.491-7.786 7.784v7.784h42.824v-7.784z"></path>
    </g>
    <mask id="B" fill="#fff">
      <use xlink:href="#A"></use>
    </mask>
    <g fill="#2998d3" class="B">
      <path d="M346.93 378.634h3.893v-3.892h-3.893zm29.198 77.835c-10.733 0-19.465-8.729-19.465-19.459s8.732-19.459 19.465-19.459 19.465 8.729 19.465 19.459-8.732 19.459-19.465 19.459m23.358-19.459c0-12.876-10.478-23.351-23.358-23.351s-23.358 10.475-23.358 23.351 10.478 23.351 23.358 23.351 23.358-10.475 23.358-23.351m-62.127-26.275l9.145-11.428c.672-.839.535-2.063-.304-2.734a1.95 1.95 0 0 0-2.737.304l-6.427 8.033-2.355-2.355c-.761-.761-1.991-.761-2.752 0s-.761 1.991 0 2.751l5.431 5.429zm-5.431 10.138l5.431 5.429 9.145-11.428c.672-.839.535-2.063-.304-2.734a1.95 1.95 0 0 0-2.737.304l-6.427 8.033-2.355-2.355c-.761-.761-1.991-.761-2.752 0s-.761 1.991 0 2.751m0 15.567l5.431 5.429 9.145-11.428c.672-.839.535-2.063-.304-2.734a1.95 1.95 0 0 0-2.737.304l-6.427 8.033-2.355-2.355c-.761-.761-1.991-.761-2.752 0s-.761 1.991 0 2.751"></path>
      <path d="M385.861 435.064v3.892h-7.786v7.784h-3.893v-7.784h-7.786v-3.892h7.786v-7.784h3.893v7.784h7.786zm-3.893-11.675h-11.679v7.784h-7.786v11.675h7.786v7.784h11.679v-7.784h7.786v-11.675h-7.786v-7.784zM485.129 569.06h85.647V502.9h-85.647v66.16zm87.594-70.052h-89.54c-1.076 0-1.947.87-1.947 1.946v70.052c0 1.074.87 1.946 1.947 1.946h89.54a1.95 1.95 0 0 0 1.947-1.946v-70.052c0-1.076-.872-1.946-1.947-1.946h0zm-65.263 44.783c.81-1.206 2.112-1.864 3.443-1.864a4.08 4.08 0 0 1 2.005.529c2.087 1.181 4.592.885 6.231-.732l14.535-14.526c1.621-1.648 1.921-4.17.747-6.277-1.049-1.882-.467-4.217 1.357-5.433a4.07 4.07 0 0 1 4.403-.047c1.036.667 1.707 1.683 1.886 2.862.284 1.856 1.721 3.294 3.578 3.578 1.18.179 2.194.846 2.861 1.882.851 1.319.835 3.088-.043 4.404-1.219 1.827-3.558 2.413-5.446 1.35-2.122-1.187-4.65-.885-6.299.745l-14.492 14.512c-1.633 1.64-1.931 4.154-.744 6.254 1.063 1.882.491 4.223-1.331 5.447-1.316.885-3.087.905-4.411.058-1.039-.667-1.713-1.687-1.894-2.868a4.25 4.25 0 0 0-3.576-3.577c-1.183-.179-2.203-.852-2.869-1.895a4.06 4.06 0 0 1 .058-4.404m2.227 10.148a.35.35 0 0 1 .313.313c.348 2.304 1.641 4.277 3.638 5.557 1.277.819 2.766 1.228 4.253 1.228 1.555 0 3.111-.444 4.43-1.331 3.527-2.37 4.625-6.922 2.55-10.591-.245-.436-.362-1.115.115-1.596h.002l14.467-14.489c.5-.492 1.207-.372 1.656-.117 3.677 2.063 8.232.95 10.591-2.588 1.725-2.584 1.756-6.069.076-8.671-1.281-1.985-3.249-3.271-5.546-3.621a.35.35 0 0 1-.317-.315c-.35-2.298-1.639-4.269-3.628-5.55a8.01 8.01 0 0 0-8.672.084c-3.525 2.351-4.641 6.892-2.595 10.562.249.451.37 1.154-.123 1.652l-14.49 14.485c-.479.475-1.154.358-1.588.115-3.669-2.067-8.218-.971-10.591 2.553-1.736 2.58-1.779 6.067-.105 8.677 1.279 1.996 3.255 3.29 5.563 3.643m29.944-.446c0 1.074.87 1.946 1.947 1.946h21.412c1.076 0 1.947-.872 1.947-1.946s-.87-1.946-1.947-1.946h-21.412c-1.076 0-1.947.872-1.947 1.946m17.519 5.838h-15.572c-1.076 0-1.947.872-1.947 1.946s.87 1.946 1.947 1.946h15.572c1.076 0 1.947-.872 1.947-1.946s-.87-1.946-1.947-1.946"></path>
      <path d="M524.059 524.304c1.076 0 1.947-.872 1.947-1.946v-5.838c0-1.074-.87-1.946-1.947-1.946s-1.947.872-1.947 1.946v5.838c0 1.074.87 1.946 1.947 1.946m-7.216 1.376a1.94 1.94 0 0 0 2.752 0c.761-.761.761-1.991 0-2.751l-3.893-3.892c-.761-.761-1.991-.761-2.752 0s-.761 1.991 0 2.751l3.893 3.892zm-6.41 6.408h5.84c1.076 0 1.947-.872 1.947-1.946s-.87-1.946-1.947-1.946h-5.84c-1.076 0-1.947.872-1.947 1.946s.87 1.946 1.947 1.946M86.62 569.06a1.95 1.95 0 0 1-1.947 1.946H6.813a1.95 1.95 0 0 1-1.947-1.946v-54.485a1.95 1.95 0 0 1 1.947-1.946h77.861a1.95 1.95 0 0 1 1.947 1.946v54.485zm-50.61-60.322h19.465v-7.784H36.011v7.784zm48.663 0H59.369v-7.784a3.9 3.9 0 0 0-3.893-3.892H36.011a3.9 3.9 0 0 0-3.893 3.892v7.784H6.813a5.85 5.85 0 0 0-5.84 5.838v54.485a5.85 5.85 0 0 0 5.84 5.838h77.861a5.85 5.85 0 0 0 5.84-5.838v-54.485a5.85 5.85 0 0 0-5.84-5.838h0zm-29.197 35.025h-5.84c-1.076 0-1.947.872-1.947 1.946v5.838h-3.893v-5.838c0-1.074-.87-1.946-1.947-1.946h-5.84v-3.892h5.84c1.076 0 1.947-.872 1.947-1.946v-5.838h3.893v5.838c0 1.074.87 1.946 1.947 1.946h5.84v3.892zm1.947-7.784h-5.84v-5.838c0-1.074-.87-1.946-1.947-1.946H41.85c-1.076 0-1.947.872-1.947 1.946v5.838h-5.84c-1.076 0-1.947.872-1.947 1.946v7.784c0 1.074.87 1.946 1.947 1.946h5.84v5.838c0 1.074.87 1.946 1.947 1.946h7.786c1.076 0 1.947-.872 1.947-1.946v-5.838h5.84c1.076 0 1.947-.872 1.947-1.946v-7.784c0-1.074-.87-1.946-1.947-1.946h0z"></path>
      <path d="M45.743 561.276c-10.733 0-19.465-8.729-19.465-19.459s8.732-19.459 19.465-19.459 19.465 8.729 19.465 19.459-8.732 19.459-19.465 19.459m0-42.809c-12.88 0-23.358 10.475-23.358 23.351s10.478 23.351 23.358 23.351 23.358-10.475 23.358-23.351-10.478-23.351-23.358-23.351m605.902 0c-1.076 0-1.947.872-1.947 1.946s.87 1.946 1.947 1.946h3.893c1.076 0 1.947-.872 1.947-1.946s-.87-1.946-1.947-1.946h-3.893zm3.893 7.784h-3.893c-1.076 0-1.947.872-1.947 1.946s.87 1.946 1.947 1.946h3.893c1.076 0 1.947-.872 1.947-1.946s-.87-1.946-1.947-1.946m0 7.784h-3.893c-1.076 0-1.947.872-1.947 1.946s.87 1.946 1.947 1.946h3.893c1.076 0 1.947-.872 1.947-1.946s-.87-1.946-1.947-1.946"></path>
      <path d="M665.315 508.737a1.95 1.95 0 0 0 1.744-1.078c.327-.662.253-1.452-.191-2.041-1.045-1.382-1.596-2.995-1.596-4.664 0-4.293 3.49-7.784 7.786-7.784s7.786 3.491 7.786 7.784c0 1.67-.553 3.283-1.598 4.664a1.95 1.95 0 0 0-.189 2.041c.329.66 1.002 1.078 1.742 1.078h9.777c4.294 0 7.786 3.491 7.786 7.784v1.946h-27.251c-1.076 0-1.947.872-1.947 1.946v21.405h-21.412v-25.297c0-4.293 3.49-7.784 7.786-7.784h9.775zm7.743 42.809h25.305v-29.188h-25.305v29.188zm17.519 15.567h-11.679a1.94 1.94 0 0 0-1.376.57l-4.463 4.462-4.463-4.462c-.366-.366-.86-.57-1.376-.57h-11.68c-4.296 0-7.786-3.491-7.786-7.784v-13.621h21.412v7.784c0 1.074.87 1.946 1.947 1.946h27.251v3.892c0 4.293-3.492 7.784-7.786 7.784h0zM643.86 516.52v42.809c0 6.439 5.238 11.675 11.679 11.675h10.871l4.701 4.697v5.032c0 1.074.87 1.946 1.947 1.946s1.947-.872 1.947-1.946v-5.032l4.699-4.697h10.873c6.439 0 11.679-5.236 11.679-11.675V516.52c0-6.439-5.24-11.675-11.679-11.675h-6.523c.45-1.243.683-2.555.683-3.892 0-6.439-5.24-11.675-11.679-11.675s-11.679 5.236-11.679 11.675a11.42 11.42 0 0 0 .681 3.892h-6.521c-6.441 0-11.679 5.236-11.679 11.675h0zm29.197-11.675c1.076 0 1.947-.872 1.947-1.946v-1.946c0-1.074-.87-1.946-1.947-1.946s-1.947.872-1.947 1.946v1.946c0 1.074.87 1.946 1.947 1.946M240.87 535.98c-5.367 0-9.733-4.365-9.733-9.729s4.366-9.729 9.733-9.729 9.733 4.365 9.733 9.729-4.366 9.729-9.733 9.729m-46.97 12.582c-3.622-2.884-12.454-10.428-16.205-18.151a1.84 1.84 0 0 1-.062-1.483c.128-.319.411-.747 1.028-.979a1.41 1.41 0 0 1 .491-.088c.625 0 1.281.389 1.662 1.033.853 1.436 1.816 2.853 2.834 4.226.027.049.066.088.097.134 5.106 6.848 11.679 12.454 14.301 12.454 2.647 0 9.244-5.637 14.358-12.531.033-.047.072-.086.099-.134 1.028-1.395 2.001-2.835 2.859-4.295a1.79 1.79 0 0 1 1.199-.852c.481-.09.965.019 1.363.325.644.492.808 1.518.378 2.382-3.811 7.673-12.541 15.12-16.119 17.966a5.79 5.79 0 0 0-2.19 4.557l.002 2.312H196.1v-2.312c0-1.788-.802-3.452-2.2-4.565m4.146-12.582c2.381 0 5.26-.397 7.728-.837-3.389 3.709-6.542 6.124-7.728 6.622-1.178-.496-4.319-2.901-7.699-6.593 2.455.424 5.322.808 7.699.808m42.824-23.351c-7.512 0-13.626 6.11-13.626 13.621 0 6.85 5.088 12.516 11.679 13.466v23.506c0 8.583-6.986 15.567-15.572 15.567h-7.786c-8.586 0-15.572-6.984-15.572-15.567v-3.892a3.9 3.9 0 0 0 3.893-3.892v-2.312c0-.597.265-1.148.722-1.514 3.78-3.006 13.022-10.907 17.18-19.28 1.012-2.039.79-4.38-.428-6.073 1.127-3.001 3.938-11.298 3.938-19.469 0-6.955-3.677-14.39-11.679-15.433v-.134c0-1.074-.87-1.946-1.947-1.946s-1.947.872-1.947 1.946v3.892c0 1.074.87 1.946 1.947 1.946 1.01 0 1.81-.776 1.91-1.759 6.108 1.117 7.823 7.538 7.823 11.489 0 6.851-2.24 14.036-3.406 17.311a5.6 5.6 0 0 0-2.182-.025 5.67 5.67 0 0 0-3.805 2.697 46.89 46.89 0 0 1-2.357 3.592c-1.954.459-7.693 1.722-11.607 1.722s-9.606-1.216-11.56-1.66c-.806-1.117-1.59-2.286-2.322-3.52-1.308-2.203-3.767-3.298-6.089-2.814-1.164-3.29-3.387-10.467-3.387-17.303 0-3.95 1.715-10.372 7.823-11.489.099.983.899 1.759 1.91 1.759 1.076 0 1.947-.872 1.947-1.946v-3.892c0-1.074-.87-1.946-1.947-1.946s-1.947.872-1.947 1.946v.134c-8.002 1.043-11.679 8.478-11.679 15.433 0 8.165 2.795 16.464 3.92 19.474-.274.374-.518.773-.697 1.216a5.74 5.74 0 0 0 .175 4.627c4.097 8.441 13.451 16.447 17.283 19.498a1.93 1.93 0 0 1 .73 1.52v2.312a3.9 3.9 0 0 0 3.893 3.892v3.892c0 10.73 8.732 19.459 19.465 19.459h7.786c10.733 0 19.465-8.729 19.465-19.459v-23.506c6.591-.95 11.679-6.616 11.679-13.466 0-7.511-6.114-13.621-13.626-13.621"></path>
      <path d="M240.87 518.467c-4.294 0-7.786 3.491-7.786 7.784 0 1.074.87 1.946 1.947 1.946s1.947-.872 1.947-1.946a3.9 3.9 0 0 1 3.893-3.892c1.076 0 1.947-.872 1.947-1.946s-.87-1.946-1.947-1.946m119.569-1.946v-5.838h7.786V502.9h5.84v7.784h7.786v5.838h-7.786v7.784h-5.84v-7.784h-7.786zm17.519 11.675v-7.784h7.786v-13.621h-7.786v-7.784h-13.626v7.784h-7.786v13.621h7.786v7.784h13.626zm-33.091-20.571v2.224c0 2.783-2.001 4.727-4.866 4.727s-4.866-1.944-4.866-4.727v-2.224c0-2.783 2.001-4.725 4.866-4.725s4.866 1.942 4.866 4.725m-13.626 0v2.224c0 4.913 3.767 8.618 8.759 8.618s8.759-3.705 8.759-8.618v-2.224c0-4.911-3.767-8.616-8.759-8.616s-8.759 3.705-8.759 8.616m35.036 51.705v-19.459h40.877a5.85 5.85 0 0 1 5.84 5.838v13.621h-46.717zm-38.931 0h35.037v-7.784h-35.037v7.784zm79.808-23.351H355.51l-9.267-11.105c-2.564-2.567-6.626-3.322-10.112-1.878-3.062 1.267-4.89 3.938-4.89 7.145v3.892c0 1.074.87 1.946 1.947 1.946s1.947-.872 1.947-1.946v-3.892c0-2.193 1.559-3.166 2.486-3.551 2.019-.831 4.43-.407 5.75.905l9.733 11.675c.372.444.919.701 1.497.701h7.786v7.784H327.35v-25.297c0-1.074-.87-1.946-1.947-1.946s-1.947.872-1.947 1.946v48.647c0 1.074.87 1.946 1.947 1.946s1.947-.872 1.947-1.946v-7.784h85.647v7.784c0 1.074.87 1.946 1.947 1.946s1.947-.872 1.947-1.946v-25.297c0-5.365-4.366-9.729-9.733-9.729h0zM552.19 265.272c-.761-.761-1.991-.761-2.752 0l-46.479 46.462c-.761.761-.761 1.993 0 2.753a1.94 1.94 0 0 0 2.752 0l46.479-46.464c.761-.761.761-1.991 0-2.751m-36.41 49.666c-1.832 1.831-4.247 2.788-6.904 2.72-3.494-.084-6.57 1.134-9.121 3.687l-.228.228-3.658-3.658.228-.226c2.552-2.553 3.794-5.62 3.689-9.116a9.27 9.27 0 0 1 2.721-6.904l46.1-46.084c1.989-1.989 4.627-3.01 7.212-3.01 2.063 0 4.092.652 5.725 1.983a9.29 9.29 0 0 1 3.44 6.803 9.4 9.4 0 0 1-2.723 7.116l-8.24 8.237-1.83-1.829c-.761-.761-1.991-.761-2.752 0s-.761 1.991 0 2.751l1.828 1.829-6.863 6.861-1.828-1.829a1.95 1.95 0 0 0-2.752 0c-.761.761-.761 1.993 0 2.753l1.828 1.827-6.863 6.861-1.83-1.829a1.95 1.95 0 0 0-2.752 0c-.759.761-.759 1.993 0 2.751l1.83 1.829-6.863 6.861-1.828-1.829a1.95 1.95 0 0 0-2.752 0c-.761.759-.761 1.993 0 2.751l1.828 1.829-6.638 6.635zm-24.04 14.419c-.535.537-1.259.819-2.038.749-.771-.062-1.45-.451-1.911-1.092-.722-1.002-.522-2.5.463-3.485l4.862-4.863 3.658 3.658-5.034 5.032zm63.655-48.517l9.616-9.613c2.641-2.641 4.049-6.311 3.858-10.064-.187-3.744-1.962-7.25-4.866-9.62l-.002-.002c-5.199-4.244-13.174-3.68-18.147 1.29l-46.1 46.086c-2.562 2.561-3.967 6.122-3.862 9.772.074 2.415-.759 4.46-2.548 6.248l-7.843 7.838c-2.32 2.319-2.694 5.978-.87 8.513a6.51 6.51 0 0 0 4.755 2.697 6.85 6.85 0 0 0 .526.019 6.46 6.46 0 0 0 4.58-1.897l8.014-8.009c1.789-1.788 3.862-2.635 6.252-2.551 3.63.088 7.212-1.298 9.774-3.859l8.012-8.009 9.614-9.611 19.236-19.229h.002zM30.171 260.695c14.243 0 26.278 6.239 26.278 13.621s-12.035 13.621-26.278 13.621-26.278-6.239-26.278-13.621 12.035-13.621 26.278-13.621m0 71.998c-14.243 0-26.278-6.239-26.278-13.621v-36.049c5.133 5.297 14.862 8.807 26.278 8.807s21.145-3.51 26.278-8.807v36.049c0 7.383-12.035 13.621-26.278 13.621m59.27-79.779c-11.919.605-17.018-.574-26.276-2.718l-10.371-2.29c-6.93-1.419-30.584-5.199-43.898 5.663C2.994 258.385 0 265.365 0 274.316v44.755c0 9.821 13.254 17.513 30.171 17.513s30.171-7.692 30.171-17.513v-44.755c0-9.821-13.254-17.513-30.171-17.513-10.085 0-18.84 2.746-24.291 7.034a19.04 19.04 0 0 1 5.478-7.254c9.52-7.77 27.244-7.606 40.657-4.867 4.035.827 7.348 1.594 10.272 2.271 8.757 2.028 14.239 3.294 25.307 2.901v47.258c-10.116 1.582-16.851 1.965-22.689-.167-1.008-.372-2.13.148-2.497 1.16s.15 2.127 1.158 2.495c3.303 1.206 6.758 1.718 10.729 1.718 4.395 0 9.421-.627 15.559-1.625.942-.154 1.633-.967 1.633-1.921v-50.949a1.94 1.94 0 0 0-.607-1.411c-.383-.368-.897-.555-1.438-.533"></path>
      <path d="M30.171 270.424c6.437 0 10.706 2.343 10.706 3.892s-4.269 3.892-10.706 3.892-10.706-2.343-10.706-3.892 4.269-3.892 10.706-3.892m0 11.675c8.321 0 14.599-3.347 14.599-7.784s-6.278-7.784-14.599-7.784-14.599 3.347-14.599 7.784 6.278 7.784 14.599 7.784m10.706 27.242v5.838h-7.786v7.784h-5.84v-7.784h-7.786v-5.838h7.786v-7.784h5.84v7.784h7.786zm-3.893-11.675H23.358v7.784h-7.786v13.621h7.786v7.784h13.626v-7.784h7.786V305.45h-7.786v-7.784zm667.391-30.649v-5.838c0-1.074-.87-1.946-1.947-1.946s-1.947.872-1.947 1.946v5.838c0 1.074.87 1.946 1.947 1.946s1.947-.872 1.947-1.946m0 66.16h-5.84c-2.62 0-4.903-1.539-7.111-3.028-2.145-1.444-4.169-2.81-6.515-2.81v-3.892c2.346 0 4.37-1.366 6.515-2.81 2.207-1.489 4.491-3.028 7.111-3.028h5.84c4.294 0 7.786 3.491 7.786 7.784s-3.492 7.784-7.786 7.784h0zm-29.198-48.647h-9.733v-35.026h9.733a3.9 3.9 0 0 1 3.893 3.892v32.179a7.73 7.73 0 0 0-3.893-1.045h0zm23.806-.397c1.11.251 2.26.397 3.445.397a15.58 15.58 0 0 0 3.445-.397l-1.073 4.289h-4.746l-1.073-4.289zm-8.234-15.17c0-6.439 5.238-11.675 11.679-11.675s11.679 5.236 11.679 11.675-5.238 11.675-11.679 11.675-11.679-5.236-11.679-11.675h0zm13.626 44.755h-5.84c-3.809 0-6.848 2.047-9.287 3.691-1.637 1.103-3.183 2.146-4.339 2.146h-1.947c-1.076 0-1.947.872-1.947 1.946v1.946h-38.931a3.9 3.9 0 0 1-3.893-3.892v-19.459h3.893v1.946c0 4.293 3.492 7.784 7.786 7.784h46.717c4.294 0 7.786-3.491 7.786-7.784v-9.729h1.947c.893 0 1.67-.607 1.888-1.473l2.122-8.488c4.582-2.713 7.669-7.692 7.669-13.39 0-8.583-6.986-15.567-15.572-15.567s-15.572 6.984-15.572 15.567c0 5.698 3.087 10.677 7.669 13.39l2.122 8.488c.218.866.995 1.473 1.888 1.473h1.947v9.729a3.9 3.9 0 0 1-3.893 3.892h-46.717a3.9 3.9 0 0 1-3.893-3.892v-1.946h29.198c4.294 0 7.786-3.491 7.786-7.784v-38.918c0-4.293-3.492-7.784-7.786-7.784h-11.679c-1.076 0-1.947.872-1.947 1.946v38.918c0 1.074.87 1.946 1.947 1.946h11.679a3.9 3.9 0 0 1 3.893 3.892 3.9 3.9 0 0 1-3.893 3.892h-29.198v-1.946c0-1.074-.87-1.946-1.947-1.946s-1.947.872-1.947 1.946v1.946h-3.893v-1.946c0-1.074-.87-1.946-1.947-1.946s-1.947.872-1.947 1.946v1.946h-1.947a3.9 3.9 0 0 1-3.893-3.892 3.9 3.9 0 0 1 3.893-3.892h23.358c1.076 0 1.947-.872 1.947-1.946s-.87-1.946-1.947-1.946H632.35c-1.425 0-2.743.413-3.893 1.082v-32.216a3.9 3.9 0 0 1 3.893-3.892h23.358c1.076 0 1.947-.872 1.947-1.946s-.87-1.946-1.947-1.946H632.35c-4.294 0-7.786 3.491-7.786 7.784v38.918c0 4.293 3.492 7.784 7.786 7.784h1.947v19.459c0 4.293 3.492 7.784 7.786 7.784h38.931v1.946c0 1.074.87 1.946 1.947 1.946h1.947c1.156 0 2.702 1.043 4.339 2.146 2.439 1.644 5.478 3.691 9.287 3.691h5.84c6.441 0 11.679-5.236 11.679-11.675s-5.238-11.675-11.679-11.675h0zm-457.358-29.815a1.95 1.95 0 0 0-2.71.492 1.95 1.95 0 0 0 .492 2.709c1.18.813 1.861 1.603 1.875 2.164.006.292-.169 1.115-1.948 2.473-4.812 3.676-32.661 21.125-32.935 21.296-3.558 2.209-9.277 4.018-13.686 1.854l-4.356-2.107c-4.14-1.987-8.831-4.24-11.066-5.594-.856-.52-1.329-1.129-1.219-1.352.485-.959.099-2.129-.86-2.613s-2.131-.097-2.614.862c-1.129 2.238-.08 4.762 2.675 6.431 2.398 1.454 7.179 3.75 11.399 5.775l4.323 2.092c1.984.973 4.101 1.38 6.217 1.38 4.103 0 8.197-1.531 11.249-3.423l33.239-21.508c2.386-1.821 3.523-3.672 3.475-5.657-.045-1.926-1.207-3.652-3.549-5.273m6.677 15.22c0 4.139-.444 6.297-2.998 8.091l-37.739 24.187c-5.178 3.213-8.958 3.207-14.996 2.006-5.028-1.002-15.979-6.311-19.008-8.595l-.444-.333c-2.583-1.932-4.623-3.458-4.623-7.844l-.002-8.449c-.009-4.24.127-5.789 2.988-7.418l10.716-6.766c2.102 3.088 5.645 5.12 9.657 5.12 6.441 0 11.679-5.236 11.679-11.675 0-2.152-.596-4.162-1.616-5.896l6.534-4.125c5.005-3.104 11.483-4.563 16.111-3.639 5.779 1.158 14.517 5.6 18.667 8.13 4.22 2.571 5.073 3.83 5.073 7.476v9.729zm-56.449-19.459c4.294 0 7.786 3.491 7.786 7.784s-3.492 7.784-7.786 7.784-7.786-3.491-7.786-7.784 3.492-7.784 7.786-7.784h0zm53.403-1.07c-4.551-2.775-13.614-7.359-19.93-8.62-6.39-1.282-14.11 1.162-18.94 4.153l-6.996 4.417a11.63 11.63 0 0 0-7.537-2.771c-6.441 0-11.679 5.236-11.679 11.675 0 1.029.148 2.024.399 2.977l-11.095 7.007c-4.899 2.787-4.888 6.484-4.878 10.765l.002 8.439c0 6.334 3.43 8.899 6.184 10.959l.428.323c3.445 2.598 14.922 8.177 20.596 9.307 2.293.455 4.518.823 6.805.823 3.395 0 6.928-.811 11.029-3.355l37.829-24.25c4.36-3.059 4.722-7.101 4.722-11.321v-9.729c0-5.587-2.237-7.933-6.939-10.8h0zm-76.761-12.551a5.85 5.85 0 0 1 5.84 5.838 5.85 5.85 0 0 1-5.84 5.838 5.85 5.85 0 0 1-5.84-5.838 5.85 5.85 0 0 1 5.84-5.838m0 15.567c5.367 0 9.733-4.365 9.733-9.729s-4.366-9.729-9.733-9.729-9.733 4.365-9.733 9.729 4.366 9.729 9.733 9.729m27.251-33.08c5.367 0 9.733 4.365 9.733 9.729s-4.366 9.729-9.733 9.729-9.733-4.365-9.733-9.729 4.366-9.729 9.733-9.729m0 23.351c7.512 0 13.626-6.11 13.626-13.621s-6.114-13.621-13.626-13.621-13.626 6.11-13.626 13.621 6.114 13.621 13.626 13.621m193.543 16.54c1.982.002 2.745.809 4.23 2.434.528.578 1.09 1.193 1.752 1.812l.607.572c2.303 2.189 5.17 4.911 8.954 4.911h.023 3.893v-3.892h-3.899-.01c-2.237 0-4.387-2.039-6.281-3.841l-.627-.592c-.58-.545-1.073-1.086-1.538-1.594-1.66-1.821-3.379-3.703-7.078-3.703h-.033-29.198c-1.45 0-2.649.597-3.377 1.685-.839 1.249-.919 3.024-.21 4.748.467 1.138 1.158 2.269 2.001 3.296h-15.932a5.85 5.85 0 0 0-5.84 5.838v1.946a5.77 5.77 0 0 0 .358 1.946h-.358a5.85 5.85 0 0 0-5.84 5.838v1.946a5.85 5.85 0 0 0 5.84 5.838h.358a5.77 5.77 0 0 0-.358 1.946v1.946a5.85 5.85 0 0 0 5.84 5.838h6.198a5.77 5.77 0 0 0-.358 1.946v1.946a5.85 5.85 0 0 0 5.84 5.838h40.877c2.996 0 5.52-1.905 7.749-3.586 1.396-1.053 2.98-2.249 3.93-2.251h1.947v-3.892h-1.952c-2.254.006-4.296 1.547-6.272 3.038-1.824 1.378-3.71 2.8-5.402 2.8h-40.877a1.95 1.95 0 0 1-1.947-1.946v-1.946a1.95 1.95 0 0 1 1.947-1.946h15.572v-3.892H347.96a1.95 1.95 0 0 1-1.947-1.946v-1.946a1.95 1.95 0 0 1 1.947-1.946h25.305v-3.892h-31.144a1.95 1.95 0 0 1-1.947-1.946v-1.946a1.95 1.95 0 0 1 1.947-1.946h33.091v-3.892h-27.251a1.95 1.95 0 0 1-1.947-1.946v-1.946a1.95 1.95 0 0 1 1.947-1.946h35.037v-3.892h-11.679c-2.657 0-4.884-2.473-5.826-4.773-.241-.588-.208-1.01-.232-1.037 0-.002.06-.027.218-.027h29.204z"></path>
      <path d="M398.616 250.031l-1.544-.446c-2.881-.86-5.859-1.747-9.359.126l-24.332 12.956a4.74 4.74 0 0 0-2.492 3.707 4.73 4.73 0 0 0 1.688 4.129 14.04 14.04 0 0 0 3.155 1.969l-12.298 6.546c-1.53.815-2.667 2.234-3.2 3.997-.551 1.806-.405 3.767.385 5.244 1.222 2.275 3.498 4.063 5.799 4.063a4.32 4.32 0 0 0 2.052-.518c.946-.508 1.304-1.687.794-2.635s-1.688-1.304-2.634-.796c-.489.263-1.888-.669-2.581-1.956-.247-.463-.374-1.347-.091-2.273.165-.543.524-1.275 1.306-1.691l28.82-15.345c.95-.504 1.31-1.683.804-2.633a1.95 1.95 0 0 0-2.632-.802l-10.155 5.406h0c-2.904 1.549-6.122-.809-7.037-1.572-.304-.249-.319-.57-.304-.737s.099-.483.45-.667l24.343-12.962c1.993-1.068 3.568-.675 6.404.171l1.645.477.87.239c2.986.829 6.702 1.866 10.027.084l5.744-3.059-1.828-3.436-5.75 3.061c-1.948 1.047-4.596.313-7.15-.399l-.901-.249zm-64.283-.526h5.84v9.729h9.733v5.838h-9.733v9.729h-5.84v-9.729H324.6v-5.838h9.733v-9.729zm-3.893 5.838h-9.733v13.621h9.733v9.729h13.626v-9.729h9.733v-13.621h-9.733v-9.729H330.44v9.729zM474.713 23.351a3.9 3.9 0 0 1 3.893-3.892h77.861a3.9 3.9 0 0 1 3.893 3.892v46.701a3.9 3.9 0 0 1-3.893 3.892h-77.861a3.9 3.9 0 0 1-3.893-3.892V23.351zm3.893 54.485h77.861c4.294 0 7.786-3.491 7.786-7.784V23.351c0-4.293-3.492-7.784-7.786-7.784h-77.861c-4.294 0-7.786 3.491-7.786 7.784v46.701c0 4.293 3.492 7.784 7.786 7.784h0zm36.657-34.159a1.94 1.94 0 0 0-1.799-.858c-.71.064-1.328.514-1.61 1.171l-3.642 8.492-4.37-16.02c-.218-.8-.919-1.374-1.744-1.43-.843-.047-1.598.416-1.923 1.175l-5.333 12.442h-6.503v3.892h7.786c.779 0 1.483-.465 1.789-1.179l3.642-8.494 4.37 16.022c.218.798.919 1.372 1.744 1.428l.134.006a1.95 1.95 0 0 0 1.789-1.179l4.424-10.319 1.9 2.847c.36.543.969.868 1.62.868h9.733v-3.892h-8.691l-3.315-4.972z"></path>
      <path d="M484.446 64.214h46.717V29.188h-46.717v35.026zm-1.947 3.892h50.61c1.076 0 1.947-.87 1.947-1.946V27.242c0-1.074-.87-1.946-1.947-1.946h-50.61c-1.076 0-1.947.872-1.947 1.946V66.16c0 1.076.87 1.946 1.947 1.946h0zm58.396-38.917h7.786c1.076 0 1.947-.872 1.947-1.946s-.87-1.946-1.947-1.946h-7.786c-1.076 0-1.947.872-1.947 1.946s.87 1.946 1.947 1.946m0 7.784h7.786c1.076 0 1.947-.872 1.947-1.946s-.87-1.946-1.947-1.946h-7.786c-1.076 0-1.947.872-1.947 1.946s.87 1.946 1.947 1.946m0 7.784h7.786c1.076 0 1.947-.872 1.947-1.946s-.87-1.946-1.947-1.946h-7.786c-1.076 0-1.947.872-1.947 1.946s.87 1.946 1.947 1.946m0 23.351h7.786c1.076 0 1.947-.872 1.947-1.946s-.87-1.946-1.947-1.946h-7.786c-1.076 0-1.947.872-1.947 1.946s.87 1.946 1.947 1.946M10.706 54.243c1.66-.376 3.231-1.146 4.761-1.911 1.791-.895 3.48-1.74 4.969-1.74h.004.002c1.487 0 3.177.845 4.968 1.74 2.116 1.057 4.304 2.15 6.708 2.15s4.592-1.094 6.708-2.15c1.791-.895 3.48-1.74 4.969-1.74h.004.002c1.487 0 3.177.845 4.968 1.74 1.53.765 3.101 1.535 4.761 1.911v6.079c0 5.365-4.366 9.729-9.733 9.729h-9.733V66.16c0-1.074-.87-1.946-1.947-1.946s-1.947.872-1.947 1.946v3.892h-9.733c-5.367 0-9.733-4.365-9.733-9.729v-6.079zm1.947-38.676h38.931a1.95 1.95 0 0 1 1.947 1.946v3.892H26.278v21.405H53.53v7.383c-.962-.329-1.97-.815-3.021-1.341-2.116-1.057-4.304-2.15-6.706-2.15h-.004-.006c-2.404 0-4.592 1.094-6.708 2.15-1.789.895-3.48 1.74-4.968 1.74s-3.179-.845-4.968-1.74c-2.116-1.057-4.304-2.15-6.706-2.15h-.004-.006c-2.404 0-4.592 1.094-6.708 2.15-1.051.525-2.059 1.012-3.021 1.341V17.513a1.95 1.95 0 0 1 1.947-1.946h0zm15.572-7.784a3.9 3.9 0 0 1 3.893-3.892 3.9 3.9 0 0 1 3.893 3.892 3.9 3.9 0 0 1-3.893 3.892 3.9 3.9 0 0 1-3.893-3.892h0zm1.947 31.134H53.53V25.297H30.171v13.621zm-9.733 35.026h9.733v3.892h-1.947c-1.076 0-1.947.872-1.947 1.946s.87 1.946 1.947 1.946h1.947v1.946c0 5.365 4.366 9.729 9.733 9.729h19.465c5.367 0 9.733-4.365 9.733-9.729V54.485a5.85 5.85 0 0 1 5.84-5.838 5.85 5.85 0 0 1 5.84 5.838v36.972c0 1.076.87 1.946 1.947 1.946s1.947-.87 1.947-1.946V54.485c0-5.365-4.366-9.729-9.733-9.729s-9.733 4.365-9.733 9.729v29.188c0 3.22-2.62 5.838-5.84 5.838H39.904c-3.22 0-5.84-2.617-5.84-5.838v-1.946h1.947c1.076 0 1.947-.87 1.947-1.946s-.87-1.946-1.947-1.946h-1.947v-3.892h9.733c7.512 0 13.626-6.11 13.626-13.621V17.513a5.85 5.85 0 0 0-5.84-5.838H38.822c.67-1.15 1.082-2.467 1.082-3.892C39.904 3.493 36.412 0 32.118 0s-7.786 3.493-7.786 7.784c0 1.424.413 2.742 1.082 3.892H12.652a5.85 5.85 0 0 0-5.84 5.838v42.809c0 7.511 6.114 13.621 13.626 13.621h0z"></path>
      <path d="M14.599 25.297h3.893c1.076 0 1.947-.872 1.947-1.946s-.87-1.946-1.947-1.946h-3.893c-1.076 0-1.947.872-1.947 1.946s.87 1.946 1.947 1.946m0 7.784h3.893c1.076 0 1.947-.872 1.947-1.946s-.87-1.946-1.947-1.946h-3.893c-1.076 0-1.947.872-1.947 1.946s.87 1.946 1.947 1.946m0 7.784h3.893c1.076 0 1.947-.872 1.947-1.946s-.87-1.946-1.947-1.946h-3.893c-1.076 0-1.947.872-1.947 1.946s.87 1.946 1.947 1.946m613.006-22.517c0-2.783 2.001-4.725 4.866-4.725s4.866 1.942 4.866 4.725v2.224c0 2.783-2.001 4.725-4.866 4.725s-4.866-1.942-4.866-4.725v-2.224zm4.866 10.841c4.993 0 8.759-3.705 8.759-8.616v-2.224c0-4.911-3.767-8.616-8.759-8.616s-8.759 3.705-8.759 8.616v2.224c0 4.911 3.767 8.616 8.759 8.616h0zm-12.652 40.865h35.037v-7.784h-35.037v7.784zm79.808-19.459a5.85 5.85 0 0 1 5.84 5.838v13.621H658.75V50.593h40.877zm-81.754 33.08c1.076 0 1.947-.87 1.947-1.946v-7.784h85.647v7.784c0 1.076.87 1.946 1.947 1.946s1.947-.87 1.947-1.946V56.431c0-5.365-4.366-9.729-9.733-9.729h-51.645l-9.267-11.105c-2.566-2.565-6.626-3.322-10.112-1.878-3.062 1.267-4.89 3.938-4.89 7.145v3.892c0 1.076.87 1.946 1.947 1.946s1.947-.87 1.947-1.946v-3.892c0-2.193 1.559-3.166 2.486-3.549 2.019-.833 4.43-.407 5.75.903l9.733 11.675c.372.444.919.701 1.497.701h7.786v7.784h-35.037V33.08c0-1.074-.87-1.946-1.947-1.946s-1.947.872-1.947 1.946v48.647c0 1.076.87 1.946 1.947 1.946h0zm56.244-61.192c-.343-.687-.999-1.101-1.824-1.074-.763.031-1.44.51-1.725 1.222l-1.658 4.143-2.433-9.729c-.202-.819-.915-1.413-1.756-1.469-.825-.047-1.623.434-1.939 1.218l-3.403 8.505h-4.524v3.892h5.84c.798 0 1.512-.485 1.808-1.222l1.658-4.143 2.433 9.729c.202.817.913 1.413 1.756 1.469l.13.004c.794 0 1.511-.481 1.808-1.222l2.283-5.707.008.018a1.95 1.95 0 0 0 1.74 1.074h5.84v-3.892h-4.635l-1.409-2.816z"></path>
      <path d="M652.91 36.972h29.198V13.621H652.91v23.351zm-1.947 3.892h33.091c1.076 0 1.947-.87 1.947-1.946V11.675c0-1.074-.87-1.946-1.947-1.946h-33.091c-1.076 0-1.947.872-1.947 1.946v27.242c0 1.076.87 1.946 1.947 1.946h0zm-474.039 3.892c0-3.135 3.27-7.784 7.786-7.784h4.434c.675 1.158 1.917 1.946 3.352 1.946h19.465c1.68 0 3.103-1.076 3.646-2.571 2.013.348 4.039.771 6.03 1.273 3.471.876 5.896 3.937 5.896 7.443V85.62c0 3.347-.545 3.892-3.893 3.892h-42.824c-3.348 0-3.893-.545-3.893-3.892V44.756zm3.893 48.647h42.824c5.53 0 7.786-2.255 7.786-7.784V45.063c0-5.293-3.634-9.905-8.837-11.216-2.219-.56-4.481-1.035-6.725-1.411l-.01.056v-5.25a5.85 5.85 0 0 0-3.893-5.505v-4.225c0-1.592-1.219-3.197-3.893-3.717V7.784h-3.893v9.729h1.947c1.152 0 1.717.216 1.947.342v3.549h-3.893v3.892h3.893 1.947a1.95 1.95 0 0 1 1.947 1.946v7.784h-19.465v-7.784a1.95 1.95 0 0 1 1.947-1.946h1.947 3.893v-3.892h-3.893v-3.549c.23-.126.796-.342 1.947-.342h1.947V7.784h-3.893v6.013c-2.675.52-3.893 2.125-3.893 3.717v4.225a5.85 5.85 0 0 0-3.893 5.505v5.838h-3.893c-6.577 0-11.679 6.277-11.679 11.675V85.62c0 5.528 2.256 7.784 7.786 7.784h0z"></path>
      <path d="M182.766 11.676a1.93 1.93 0 0 0 1.232-.442l5.369-4.4c.786-.595 2.042-.996 3.13-.996h19.465c4.201 0 8.191-.817 10.673-2.189a1.94 1.94 0 0 0 .763-2.643c-.518-.94-1.699-1.284-2.643-.763-1.493.823-4.586 1.703-8.792 1.703h-19.465c-1.929 0-4.029.685-5.542 1.833l-5.425 4.446c-.831.681-.952 1.907-.271 2.738a1.94 1.94 0 0 0 1.507.712m5.838 56.431v-7.784h9.733v-9.729h7.786v9.729h9.733v7.784h-9.733v9.729h-7.786v-9.729h-9.733zm5.84 13.621h15.572v-9.729h9.733V56.431h-9.733v-9.729h-15.572v9.729h-9.733v15.567h9.733v9.729zm132.074-34.479l17.486 17.476c.38.381.878.57 1.376.57s.997-.189 1.376-.57c.761-.759.761-1.991 0-2.751l-17.478-17.468c4.179-3.52 9.446-5.472 14.91-5.472a23.22 23.22 0 0 1 3.253.228c5.832.815 11.773-1.15 15.899-5.269l4.325-4.324 9.096 9.093-4.327 4.324c-4.134 4.133-6.108 10.052-5.281 15.836.954 6.645-.964 13.166-5.238 18.208l-8.913-8.908c-.761-.761-1.991-.761-2.752 0s-.761 1.993 0 2.751l8.925 8.92c-4.306 3.656-9.711 5.631-15.42 5.474a23.02 23.02 0 0 1-16.594-7.472c-7.866-8.517-8.09-21.845-.642-30.644h0zm68.062-38.56a2.23 2.23 0 0 1 1.588-.658c.598 0 1.16.234 1.584.658a2.22 2.22 0 0 1 .658 1.584c0 .599-.234 1.162-.658 1.586l-21.2 21.189-3.173-3.17 21.2-21.189zm-50.904 80.567l.561.006c7.229 0 14.005-2.804 19.134-7.928 6.075-6.073 8.861-14.446 7.638-22.969a14.83 14.83 0 0 1 4.177-12.53l5.703-5.699c.366-.366.57-.86.57-1.376a1.94 1.94 0 0 0-.57-1.376l-1.584-1.586 21.2-21.189a6.09 6.09 0 0 0 1.799-4.337c0-1.638-.638-3.178-1.799-4.335s-2.698-1.798-4.337-1.798-3.181.638-4.341 1.798l-21.2 21.187-1.586-1.584c-.759-.761-1.991-.761-2.752 0l-5.703 5.698c-3.262 3.263-7.983 4.816-12.602 4.17-8.376-1.181-16.701 1.635-22.689 7.494-.074.054-.158.082-.226.148-.06.062-.088.142-.138.21-.298.302-.619.572-.903.889-9.207 10.266-9.088 26.248.273 36.382a26.88 26.88 0 0 0 19.376 8.725h0zm214.049 596.562l-8.259 8.254c-1.838 1.839-4.282 2.851-6.881 2.851s-5.043-1.012-6.881-2.851l-49.553-49.533c-1.838-1.837-2.85-4.281-2.85-6.881s1.012-5.042 2.85-6.879l8.259-8.256c1.896-1.897 4.391-2.845 6.883-2.845a9.7 9.7 0 0 1 6.881 2.845l49.551 49.534c3.794 3.793 3.794 9.967 0 13.759h0zm-46.798-66.045c-5.312-5.31-13.955-5.31-19.269 0l-8.259 8.256a13.52 13.52 0 0 0-3.99 9.63 13.53 13.53 0 0 0 3.99 9.632l49.551 49.533a13.54 13.54 0 0 0 9.635 3.991c3.64 0 7.062-1.417 9.633-3.991l8.259-8.254c5.314-5.31 5.314-13.952 0-19.262l-49.551-49.534zm5.507 66.045l-8.259 8.254c-1.838 1.839-4.282 2.851-6.881 2.851s-5.045-1.012-6.883-2.851l-8.259-8.254c-1.838-1.837-2.85-4.281-2.85-6.881s1.012-5.042 2.85-6.879l8.259-8.254a1.95 1.95 0 0 0 0-2.753 1.95 1.95 0 0 0-2.754 0l-8.257 8.256c-2.573 2.571-3.99 5.993-3.99 9.63s1.417 7.062 3.99 9.632l8.257 8.254a13.54 13.54 0 0 0 9.637 3.991c3.64 0 7.062-1.417 9.633-3.991l8.259-8.254c.761-.761.761-1.991 0-2.751s-1.991-.761-2.752 0m33.032-33.023c-.761.761-.761 1.991 0 2.751a1.94 1.94 0 0 0 2.752 0l8.259-8.254a13.64 13.64 0 0 0 0-19.264l-8.259-8.256a13.65 13.65 0 0 0-19.267 0l-8.261 8.256a1.95 1.95 0 0 0 0 2.753 1.95 1.95 0 0 0 2.754 0l8.259-8.258a9.75 9.75 0 0 1 13.762 0l8.259 8.258c3.794 3.793 3.794 9.965 0 13.759l-8.259 8.254z"></path>
      <path d="M519.187 636.284c-.761-.761-1.991-.761-2.752 0l-16.516 16.511c-.761.761-.761 1.993 0 2.751.38.381.878.57 1.376.57a1.94 1.94 0 0 0 1.376-.57l16.516-16.511c.761-.761.761-1.991 0-2.751m22.022 24.768l-16.516 16.509c-.761.761-.761 1.993 0 2.751.38.381.878.57 1.376.57s.995-.189 1.376-.57l16.516-16.509c.761-.761.761-1.991 0-2.751s-1.991-.761-2.752 0m-27.527-11.01l-1.378 1.376a1.95 1.95 0 0 0 1.376 3.323 1.95 1.95 0 0 0 1.376-.568l1.378-1.376a1.95 1.95 0 0 0 .002-2.753 1.95 1.95 0 0 0-2.754-.002m6.881 6.881l-1.376 1.376c-.761.761-.761 1.991 0 2.751a1.94 1.94 0 0 0 2.752 0l1.376-1.376c.761-.761.761-1.991 0-2.751s-1.991-.761-2.752 0m1.376-4.933a1.94 1.94 0 0 0 1.376-.57l1.376-1.376c.761-.761.761-1.991 0-2.751s-1.991-.761-2.752 0l-1.376 1.376c-.761.761-.761 1.991 0 2.751a1.94 1.94 0 0 0 1.376.57m8.258 8.255a1.94 1.94 0 0 0 1.376-.57l1.376-1.376c.761-.761.761-1.991 0-2.751s-1.991-.761-2.752 0l-1.376 1.376c-.761.761-.761 1.991 0 2.751a1.94 1.94 0 0 0 1.376.57m-19.27-1.946l-1.376 1.376c-.761.761-.761 1.991 0 2.751a1.94 1.94 0 0 0 2.752 0l1.376-1.376c.761-.761.761-1.991 0-2.751s-1.991-.761-2.752 0m8.26 8.257l-1.376 1.376c-.761.761-.761 1.991 0 2.751a1.94 1.94 0 0 0 2.752 0l1.376-1.376c.761-.761.761-1.991 0-2.751s-1.991-.761-2.752 0m8.258 1.946a1.94 1.94 0 0 0 1.376-.57l1.376-1.376c.761-.761.761-1.991 0-2.751s-1.991-.761-2.752 0l-1.376 1.376c-.761.761-.761 1.991 0 2.751a1.94 1.94 0 0 0 1.376.57M71.451 615.086c-.761-.761-1.991-.761-2.752 0s-.761 1.991 0 2.751l4.463 4.462-12.249 12.245c-.761.761-.761 1.991 0 2.751a1.94 1.94 0 0 0 2.752 0l12.249-12.245 3.087 3.086-12.249 12.245c-.761.761-.761 1.991 0 2.751a1.94 1.94 0 0 0 2.752 0l12.249-12.245 4.463 4.462a1.94 1.94 0 0 0 2.752 0c.761-.761.761-1.991 0-2.751l-17.519-17.513zm-17.754 46.131H31.95l8.045-8.042 2.517 2.516a1.94 1.94 0 0 0 2.752 0c.761-.759.761-1.991 0-2.751l-2.517-2.516 3.802-3.8 2.517 2.516a1.94 1.94 0 0 0 2.752 0c.761-.761.761-1.991 0-2.751l-2.517-2.516 5.201-5.199 10.873 10.87-11.679 11.675zM38.36 676.549c-.761.761-1.991.761-2.752 0l-8.121-8.12a1.92 1.92 0 0 1-.57-1.374 1.94 1.94 0 0 1 .57-1.376l.57-.57h21.747l-11.444 11.44zm-16.143 2.181l5.034-5.032 3.087 3.086-5.034 5.032-3.087-3.086zm48.663-29.188l-1.376-1.376-13.626-13.621-1.376-1.376-2.517-2.516c-.761-.761-1.991-.761-2.752 0s-.761 1.991 0 2.751l2.517 2.516-25.873 25.865-.004.004-1.139 1.138a5.8 5.8 0 0 0-1.711 4.127c0 1.448.543 2.8 1.499 3.868l-7.809 7.807 2.92 2.919-17.116 17.11c-.761.761-.761 1.991 0 2.751a1.94 1.94 0 0 0 2.752 0l17.116-17.11 2.92 2.919 7.809-7.807c1.104.983 2.48 1.494 3.87 1.494 1.497 0 2.99-.568 4.129-1.707l14.764-14.76.004-.004 12.248-12.244 2.517 2.516a1.94 1.94 0 0 0 2.752 0c.761-.761.761-1.991 0-2.751l-2.517-2.516zm564.38 30.161h15.572v-21.405H635.26v21.405zm5.84-62.268a1.95 1.95 0 0 1 1.947-1.946h31.144a1.95 1.95 0 0 1 1.947 1.946v7.784H641.1v-7.784zm42.824 72.12a1.95 1.95 0 0 0-1.947 1.946v3.769c0 3.218-2.618 5.838-5.84 5.838H641.1a5.85 5.85 0 0 1-5.84-5.838v-11.675h19.465v-29.188H635.26v-5.838c0-4.925 2.268-6.816 5.141-9.206 2.748-2.29 5.805-4.88 6.412-10.253h23.613c.607 5.373 3.663 7.963 6.412 10.253 2.871 2.39 5.139 4.281 5.139 9.206 0 1.076.872 1.946 1.947 1.946s1.947-.87 1.947-1.946c0-6.75-3.475-9.644-6.538-12.199-2.457-2.043-4.458-3.738-4.989-7.26h5.688v-11.675c0-3.218-2.618-5.838-5.84-5.838h-31.144a5.85 5.85 0 0 0-5.84 5.838v11.675h5.69c-.531 3.522-2.532 5.217-4.989 7.26-3.064 2.555-6.54 5.448-6.54 12.199v46.701c0 5.365 4.368 9.729 9.733 9.729h35.037c5.367 0 9.733-4.365 9.733-9.729v-3.769c0-1.074-.87-1.946-1.947-1.946h0zm11.75-20.455l-6.883 6.881-11.847-11.843 6.883-6.881c2.083-2.082 4.753-3.152 7.28-3.152 2.075 0 4.051.722 5.524 2.193 3.266 3.267 2.836 9.009-.958 12.802h0zm-16.516 16.511c-3.794 3.794-9.54 4.226-12.806.959s-2.836-9.008.96-12.802l6.881-6.879 11.847 11.843-6.881 6.879zm1.917-31.105l-16.516 16.511c-5.314 5.31-5.746 13.52-.962 18.305 2.229 2.226 5.199 3.324 8.275 3.324 3.531 0 7.198-1.446 10.038-4.283l16.516-16.511c5.314-5.31 5.742-13.522.958-18.305s-12.997-4.349-18.309.959h0zm-433.232-3.823l-3.323 3.322a1.94 1.94 0 0 0-.57 1.376v9.729a3.9 3.9 0 0 1-3.893 3.892 3.9 3.9 0 0 1-3.893-3.892v-9.729a1.94 1.94 0 0 0-.57-1.376l-3.323-3.322v-3.724c1.44-.518 4.228-1.308 7.786-1.308s6.348.79 7.786 1.306v3.726zm-83.701 24.156h54.503v-44.755h-54.503v44.755zm86.517-30.928c-.177-.088-4.376-2.152-10.603-2.152s-10.426 2.065-10.603 2.152a1.94 1.94 0 0 0-1.076 1.74v5.838c0 .518.204 1.012.57 1.376l3.323 3.322v8.924c0 3.617 2.492 6.637 5.84 7.507v10.006a5.85 5.85 0 0 1-5.84 5.838h-13.626a5.85 5.85 0 0 1-5.84-5.838v-3.892h7.786c1.076 0 1.947-.87 1.947-1.946v-48.647c0-1.076-.87-1.946-1.947-1.946h-58.396c-1.076 0-1.947.87-1.947 1.946v48.647c0 1.076.87 1.946 1.947 1.946h46.717v3.892c0 5.365 4.366 9.729 9.733 9.729h13.626c5.367 0 9.733-4.365 9.733-9.729v-10.006c3.348-.87 5.84-3.89 5.84-7.507v-8.924l3.323-3.322c.366-.364.57-.858.57-1.376v-5.838c0-.737-.417-1.411-1.076-1.74h0zm-14.732-6.28a5.85 5.85 0 0 1 8.259 0 1.94 1.94 0 0 0 2.752 0c.761-.761.761-1.991 0-2.751a9.75 9.75 0 0 0-13.764 0c-.761.761-.761 1.991 0 2.751s1.991.761 2.752 0"></path>
      <path d="M227.67 629.376c-.761.761-.761 1.991 0 2.751s1.991.761 2.752 0c5.31-5.306 13.957-5.31 19.269 0a1.95 1.95 0 0 0 2.754 0c.759-.761.759-1.991 0-2.751-6.83-6.828-17.941-6.83-24.775 0m-36.275 33.787a35.46 35.46 0 0 1-18.706-5.308l10.231-15.404c5.199 2.814 11.749 2.814 16.95 0l10.231 15.404a35.47 35.47 0 0 1-18.706 5.308h0zm10.679-24.427a1.94 1.94 0 0 0-1.254-.835c-.514-.099-1.045.014-1.475.311-4.707 3.259-11.196 3.255-15.901 0a1.94 1.94 0 0 0-2.729.524l-12.353 18.599c-.588.881-.36 2.07.514 2.676a39.39 39.39 0 0 0 22.519 7.044c8.074 0 15.862-2.436 22.519-7.044.874-.605 1.102-1.794.514-2.676l-12.355-18.599zm187.39 56.534a3.9 3.9 0 0 1-3.893 3.892h-42.824a3.9 3.9 0 0 1-3.893-3.892v-46.701c0-4.16 2.569-6.073 5.544-8.291 2.875-2.14 6.135-4.569 6.135-9.222v-1.946h27.251v1.946c0 4.653 3.26 7.081 6.135 9.222 2.974 2.218 5.544 4.131 5.544 8.291v46.701zm-42.8-77.835h35.014v7.784h-35.034l.019-7.784zm39.583 19.723c-2.832-2.109-4.569-3.536-4.569-6.102v-1.946h1.947c1.076 0 1.947-.87 1.947-1.946v-9.729c0-2.146-1.621-3.892-3.615-3.892h-35.596c-1.991 0-3.613 1.745-3.613 3.892v9.729c0 1.076.87 1.946 1.947 1.946h1.947v1.946c0 2.567-1.736 3.993-4.568 6.102-3.169 2.362-7.111 5.297-7.111 11.411v46.701c0 4.293 3.492 7.784 7.786 7.784h42.824c4.294 0 7.786-3.491 7.786-7.784v-46.701c0-6.114-3.942-9.048-7.111-11.411h0zm-22.089 48.383a17.54 17.54 0 0 1-17.519-17.513 17.54 17.54 0 0 1 17.519-17.513 17.54 17.54 0 0 1 17.519 17.513 17.54 17.54 0 0 1-17.519 17.513m0-38.918c-11.806 0-21.412 9.603-21.412 21.405s9.606 21.405 21.412 21.405 21.412-9.603 21.412-21.405-9.606-21.405-21.412-21.405m7.787 19.459v3.892h-5.84v5.838h-3.893v-5.838h-5.84v-3.892h5.84v-5.838h3.893v5.838h5.84zm-1.947-9.729h-11.679v5.838h-5.84v11.675h5.84v5.838h11.679v-5.838h5.84v-11.675h-5.84v-5.838zM562.2 137.677l-39.112 45.549a1.94 1.94 0 0 0-.459 1.452l.619 6.54c-3.874 3.715-16.933 15.106-31.882 14.637l65.872-72.716c1.166-1.269 3.087-1.457 4.473-.434.012.01.023.018.037.025.749.568 1.219 1.397 1.314 2.335.097.952-.199 1.87-.862 2.611m1.779-8.136a7.25 7.25 0 0 0-9.616.975l-68.477 75.59a1.95 1.95 0 0 0-.395 1.946c.234.671.816 1.164 1.518 1.28a31.53 31.53 0 0 0 5.174.424c17.094-.002 31.526-13.479 34.467-16.421a1.94 1.94 0 0 0 .561-1.561l-.629-6.641 38.545-44.892a7.27 7.27 0 0 0-1.102-10.665.48.48 0 0 0-.047-.035m-37.263 80.343c1.076 0 1.947-.872 1.947-1.946s-.87-1.946-1.947-1.946h-9.733c-1.076 0-1.947.872-1.947 1.946s.87 1.946 1.947 1.946h9.733zm17.519 0c1.076 0 1.947-.872 1.947-1.946s-.87-1.946-1.947-1.946h-9.733c-1.076 0-1.947.872-1.947 1.946s.87 1.946 1.947 1.946h9.733zm17.519 0c1.076 0 1.947-.872 1.947-1.946s-.87-1.946-1.947-1.946h-9.733c-1.076 0-1.947.872-1.947 1.946s.87 1.946 1.947 1.946h9.733zM20.507 143.819L34.8 129.531c2.275-2.273 5.98-2.275 8.259 0l39.6 39.585a5.85 5.85 0 0 1 0 8.256l-14.295 14.287c-2.203 2.205-6.05 2.209-8.257 0l-6.13-6.126 4.968-4.966c2.239-2.238 2.188-6.069-.113-8.369l-1.263-1.263 1.376-1.376c2.239-2.238 2.188-6.069-.113-8.367l-1.263-1.263.002-.002c2.274-2.277 2.26-5.993-.058-8.311-2.285-2.283-5.888-2.259-8.203.056l-1.489-1.489c-1.111-1.111-2.519-1.705-4.131-1.654-1.493.043-2.922.671-4.014 1.767l-7.481 7.478c-.078-.467-.181-.924-.36-1.35-.703-1.677-2.056-2.862-3.621-3.17-1.335-.265-2.673.163-3.681 1.169l-.839.839-3.188-3.187a5.85 5.85 0 0 1 0-8.256h0zm43.336-14.123c.387-.389.876-.611 1.374-.627.313 0 .819.074 1.263.516l1.489 1.489-8.931 8.928-2.752-2.751 7.556-7.554zm12.357 1.348c.761.761.775 2.035.029 2.781l-11.685 11.679-2.752-2.751 11.683-11.679c.773-.773 1.956-.798 2.725-.029h0zm1.292 9.548c.794.794.847 2.131.113 2.864l-7.554 7.552-2.752-2.753 8.931-8.928 1.263 1.265zm0 11.008c.794.792.847 2.131.113 2.864l-2.048 2.047-2.754-2.751 3.426-3.425 1.263 1.265zM5.266 190.197c2.719-2.718 4.099-5.771 4.218-9.331.031-.878 0-1.681-.031-2.434-.088-2.201-.13-3.306 1.314-4.742l15.459-15.454 1.061-1.061c.121-.119.15-.109.175-.103.179.035.549.298.783.854.341.813.165 2.384-.041 3.837l-9.174 9.171 2.752 2.751 20.649-20.64c.387-.389.876-.611 1.374-.627.311.006.821.074 1.263.516l1.489 1.489-15.142 15.135 2.754 2.751 17.892-17.887c.773-.771 1.956-.796 2.725-.029.761.761.775 2.035.029 2.781l-17.892 17.889 2.752 2.751 15.14-15.135 1.263 1.263c.794.794.847 2.131.113 2.864l-13.764 13.759 2.752 2.751 9.635-9.632 1.263 1.265c.794.792.847 2.131.113 2.864l-23.399 23.39c-1.329 1.329-3.393 2.008-5.386 2.668-2.046.675-4.164 1.374-5.754 2.979l-1.748 2.131 3.011 2.465 1.618-1.987c.81-.809 2.406-1.337 4.094-1.893 2.312-.763 4.934-1.629 6.918-3.612l15.679-15.672 6.13 6.128a9.67 9.67 0 0 0 6.881 2.849c2.601 0 5.045-1.012 6.881-2.849l14.295-14.289a9.74 9.74 0 0 0 0-13.759l-7.103-7.101 2.048-2.047c2.239-2.238 2.188-6.069-.113-8.369l-1.263-1.263 1.376-1.376c2.239-2.238 2.188-6.069-.113-8.367l-1.263-1.263.002-.002c2.274-2.277 2.26-5.993-.058-8.311-2.285-2.284-5.888-2.261-8.203.056l-1.489-1.489c-1.111-1.111-2.56-1.714-4.131-1.654-1.493.043-2.922.671-4.014 1.767l-7.554 7.552-7.722-7.719a9.75 9.75 0 0 0-13.764 0l-14.293 14.289c-3.794 3.793-3.794 9.967 0 13.759l3.19 3.187L8.02 170.928c-2.657 2.641-2.558 5.19-2.46 7.655.027.665.058 1.378.033 2.152-.086 2.561-1.065 4.692-3.079 6.706l-1.943 1.934 2.748 2.757 1.945-1.938z"></path>
      <path d="M87.506 181.46l-2.449 3.028c1.612 1.302 2.536 3.234 2.536 5.301 0 3.491-2.639 6.384-6.139 6.733l-1.974.197.274 2.279c.023.171.053.342.053.521a6.82 6.82 0 0 1-6.813 6.811c-1.511 0-2.967-.518-4.203-1.498l-2.126-1.681-.917 2.549c-.969 2.705-3.535 4.522-6.381 4.522a6.82 6.82 0 0 1-6.813-6.811c0-.146.025-.288.043-.43l.29-2.561-2.396.072c-1.629-.033-3.177-.747-4.263-1.975l-2.916 2.576a9.74 9.74 0 0 0 5.378 3.1 10.72 10.72 0 0 0 10.677 9.92c3.683 0 7.068-1.924 9.001-4.966a10.47 10.47 0 0 0 4.625 1.074 10.72 10.72 0 0 0 10.692-10.171c4.555-1.269 7.8-5.398 7.8-10.261 0-3.25-1.45-6.285-3.981-8.328m-74.268-19.93l.775-3.814c-3.607-.732-6.227-3.94-6.227-7.628 0-2.456 1.152-4.723 3.157-6.219l1.571-1.171-1.182-1.561c-1.047-1.385-1.6-2.999-1.6-4.67 0-4.291 3.492-7.784 7.786-7.784a7.72 7.72 0 0 1 6.229 3.113l3.114-2.337a11.59 11.59 0 0 0-9.343-4.668c-6.439 0-11.679 5.238-11.679 11.675a11.44 11.44 0 0 0 1.398 5.482c-2.143 2.172-3.344 5.053-3.344 8.14 0 5.53 3.932 10.342 9.345 11.442m631.768 34.733c-1.076 0-1.947.872-1.947 1.946v13.621h-3.893c-1.076 0-1.947.872-1.947 1.946s.87 1.946 1.947 1.946h19.465c1.076 0 1.947-.872 1.947-1.946s-.87-1.946-1.947-1.946h-3.893v-13.621c0-1.074-.87-1.946-1.947-1.946s-1.947.872-1.947 1.946v13.621h-3.893v-13.621c0-1.074-.87-1.946-1.947-1.946m-1.947-36.972a1.95 1.95 0 0 1 1.947-1.946h7.786a1.95 1.95 0 0 1 1.947 1.946v3.892h-3.895c-1.076 0-1.947.872-1.947 1.946s.87 1.946 1.947 1.946h3.895v5.838h-3.895c-1.076 0-1.947.872-1.947 1.946s.87 1.946 1.947 1.946h3.895v5.838h-3.895c-1.076 0-1.947.872-1.947 1.946s.87 1.946 1.947 1.946h3.895v3.892h-11.679v-31.134zm3.893-5.838h3.893v-5.838h-3.893v5.838zm15.572 38.918c0-1.074-.87-1.946-1.947-1.946h-1.947v-31.134c0-2.534-1.631-4.674-3.893-5.48v-6.196a3.9 3.9 0 0 0-3.893-3.892v-19.459c0-1.074-.87-1.946-1.947-1.946s-1.947.872-1.947 1.946v19.459a3.9 3.9 0 0 0-3.893 3.892v6.196c-2.262.806-3.893 2.946-3.893 5.48v31.134h-1.947c-1.076 0-1.947.872-1.947 1.946s.87 1.946 1.947 1.946h1.947 1.947 15.572 1.947 1.947c1.076 0 1.947-.872 1.947-1.946h0zm17.519-5.838h3.893c1.076 0 1.947-.872 1.947-1.946v-3.892h3.893v3.892c0 1.074.87 1.946 1.947 1.946h3.893v3.892h-3.893c-1.076 0-1.947.872-1.947 1.946v3.892h-3.893v-3.892c0-1.074-.87-1.946-1.947-1.946h-3.893v-3.892zm-1.947 7.784h3.893v3.892c0 1.074.87 1.946 1.947 1.946h7.786c1.076 0 1.947-.872 1.947-1.946v-3.892h3.893c1.076 0 1.947-.872 1.947-1.946v-7.784c0-1.074-.87-1.946-1.947-1.946h-3.893v-3.892c0-1.074-.87-1.946-1.947-1.946h-7.786c-1.076 0-1.947.872-1.947 1.946v3.892h-3.893c-1.076 0-1.947.872-1.947 1.946v7.784c0 1.074.87 1.946 1.947 1.946h0z"></path>
      <path d="M676.766 170.867c.794-.265 1.331-1.008 1.331-1.847v-3.892h9.733c1.074 0 1.947-.87 1.947-1.946s-.872-1.946-1.947-1.946h-11.679c-1.074 0-1.947-.872-1.947-1.946v-5.838a1.95 1.95 0 0 1 1.947-1.946h23.358a1.95 1.95 0 0 1 1.947 1.946v5.838a1.95 1.95 0 0 1-1.947 1.946h-3.893c-1.076 0-1.947.872-1.947 1.946s.87 1.946 1.947 1.946h1.947v3.892c0 .839.535 1.582 1.329 1.847.952.317 4.51 1.924 4.51 3.991v35.026a1.95 1.95 0 0 1-1.947 1.946h-27.251c-1.074 0-1.947-.872-1.947-1.946v-35.026c0-2.01 3.34-3.596 4.508-3.991m-8.401 3.991v35.026c0 3.22 2.618 5.838 5.84 5.838h27.251c3.22 0 5.84-2.617 5.84-5.838v-35.026c0-3.919-3.735-6.184-5.84-7.149v-2.913a5.85 5.85 0 0 0 3.893-5.505v-5.838a5.85 5.85 0 0 0-5.84-5.838h-23.358c-3.222 0-5.84 2.619-5.84 5.838v5.838a5.85 5.85 0 0 0 3.893 5.505v2.913c-2.104.965-5.84 3.23-5.84 7.149m-479.879-15.566a1.95 1.95 0 0 1 1.947-1.946h7.786a1.95 1.95 0 0 1 1.947 1.946v3.892h-3.893c-1.076 0-1.947.872-1.947 1.946s.87 1.946 1.947 1.946h3.893v5.838h-3.893c-1.076 0-1.947.872-1.947 1.946s.87 1.946 1.947 1.946h3.893v5.838h-3.893c-1.076 0-1.947.872-1.947 1.946s.87 1.946 1.947 1.946h3.893v3.892h-11.679v-31.134zm3.893-5.838h3.893v-5.838h-3.893v5.838zm1.947-31.134c-1.076 0-1.947.872-1.947 1.946v19.459a3.9 3.9 0 0 0-3.893 3.892v6.196c-2.262.806-3.893 2.946-3.893 5.48v31.134h-1.947c-1.076 0-1.947.872-1.947 1.946s.87 1.946 1.947 1.946h1.947 1.947 15.572 1.947 1.947c1.076 0 1.947-.872 1.947-1.946s-.87-1.946-1.947-1.946h-1.947v-31.134c0-2.534-1.631-4.674-3.893-5.48v-6.196a3.9 3.9 0 0 0-3.893-3.892v-19.459c0-1.074-.87-1.946-1.947-1.946h0zm-9.733 93.402h19.465c1.076 0 1.947-.872 1.947-1.946s-.87-1.946-1.947-1.946h-3.893v-13.621c0-1.074-.87-1.946-1.947-1.946s-1.947.872-1.947 1.946v13.621h-3.893v-13.621c0-1.074-.87-1.946-1.947-1.946s-1.947.872-1.947 1.946v13.621h-3.893c-1.076 0-1.947.872-1.947 1.946s.87 1.946 1.947 1.946m46.449-68.116l1.452 8.326 1.345 7.745c.177 1.057-.364 2.592-.888 4.077-.498 1.424-1.018 2.895-1.018 4.287 0 3.699 2.599 5.84 4.553 7.128.664.438.664.759.664.994v2.479h-11.679c-1.076 0-1.947.872-1.947 1.946v19.459c0 1.074.87 1.946 1.947 1.946h11.679v4.423c0 .78-.625 1.415-1.39 1.415h-16.686c-.767 0-1.39-.634-1.39-1.415v-30.253c0-.235 0-.557.662-.994 1.954-1.286 4.553-3.429 4.553-7.128 0-1.391-.518-2.862-1.018-4.287-.524-1.485-1.065-3.02-.888-4.075l1.345-7.747 1.452-8.326c1.002-5.828 2.219-5.828 3.628-5.828s2.62 0 3.622 5.828h0zm-3.624 54.495h9.733v-15.567h-9.733v15.567zm-.002-64.214c-5.446 0-6.673 4.476-7.459 9.058l-1.45 8.317-1.353 7.778c-.341 2.043.401 4.149 1.055 6.009.391 1.113.798 2.267.798 2.993 0 1.424-.837 2.584-2.803 3.88-1.579 1.039-2.412 2.508-2.412 4.242v30.253c0 2.927 2.369 5.306 5.283 5.306h16.686c2.912 0 5.283-2.38 5.283-5.306v-30.253c0-1.734-.835-3.203-2.414-4.244-1.964-1.294-2.803-2.454-2.803-3.878 0-.726.407-1.88.798-2.993.654-1.86 1.396-3.966 1.055-6.011l-1.351-7.776-1.45-8.315c-.788-4.585-2.013-9.06-7.459-9.06h-.004zm116.651 21.405a1.95 1.95 0 0 1 1.947-1.946h7.786a1.95 1.95 0 0 1 1.947 1.946v3.892h-3.893c-1.076 0-1.947.872-1.947 1.946s.87 1.946 1.947 1.946h3.893v5.838h-3.893c-1.076 0-1.947.872-1.947 1.946s.87 1.946 1.947 1.946h3.893v5.838h-3.893c-1.076 0-1.947.872-1.947 1.946s.87 1.946 1.947 1.946h3.893v3.892h-11.679v-31.134zm3.893-5.838h3.893v-5.838h-3.893v5.838zm1.947-31.134c-1.076 0-1.947.872-1.947 1.946v19.459a3.9 3.9 0 0 0-3.893 3.892v6.196c-2.262.806-3.893 2.946-3.893 5.48v31.134h-1.947c-1.076 0-1.947.872-1.947 1.946s.87 1.946 1.947 1.946h1.947 1.947 15.572 1.947 1.947c1.076 0 1.947-.872 1.947-1.946s-.87-1.946-1.947-1.946h-1.947v-31.134c0-2.534-1.631-4.674-3.893-5.48v-6.196a3.9 3.9 0 0 0-3.893-3.892v-19.459c0-1.074-.87-1.946-1.947-1.946h0zm-3.893 73.944c-1.076 0-1.947.872-1.947 1.946v13.621h-3.893c-1.076 0-1.947.872-1.947 1.946s.87 1.946 1.947 1.946h19.465c1.076 0 1.947-.872 1.947-1.946s-.87-1.946-1.947-1.946h-3.893v-13.621c0-1.074-.87-1.946-1.947-1.946s-1.947.872-1.947 1.946v13.621h-3.893v-13.621c0-1.074-.87-1.946-1.947-1.946m31.76-17.613c.794-.265 1.331-1.008 1.331-1.847v-3.892h3.893c1.074 0 1.947-.87 1.947-1.946s-.872-1.946-1.947-1.946h-5.84c-1.074 0-1.947-.872-1.947-1.946v-3.892a1.95 1.95 0 0 1 1.947-1.946h15.572a1.95 1.95 0 0 1 1.947 1.946v3.892a1.95 1.95 0 0 1-1.947 1.946h-1.947c-1.076 0-1.947.872-1.947 1.946s.87 1.946 1.947 1.946v3.892c0 .839.535 1.582 1.329 1.847.952.317 4.51 1.924 4.51 3.991v1.946h-15.572c-1.076 0-1.947.872-1.947 1.946v17.513c0 1.076.87 1.946 1.947 1.946h15.572v3.892a1.95 1.95 0 0 1-1.947 1.946h-19.465c-1.074 0-1.947-.872-1.947-1.946v-27.242c0-2.01 3.34-3.596 4.508-3.991h0zm5.224 23.45h13.626v-13.621h-13.626V202.1zm-13.626-19.459v27.242c0 3.22 2.618 5.838 5.84 5.838h19.465c3.22 0 5.84-2.617 5.84-5.838v-27.242c0-3.919-3.735-6.184-5.84-7.149v-2.913a5.85 5.85 0 0 0 3.893-5.505v-3.892a5.85 5.85 0 0 0-5.84-5.838h-15.572c-3.222 0-5.84 2.619-5.84 5.838v3.892a5.85 5.85 0 0 0 3.893 5.505v2.913c-2.104.965-5.84 3.23-5.84 7.149h0z"></path>
    </g>
  </g>
</svg>
