<?xml version="1.0" encoding="UTF-8"?>
<svg xmlns="http://www.w3.org/2000/svg" xmlns:v="https://vecta.io/nano" width="79" height="95">
  <path fill="#0096d3" fill-rule="evenodd" d="M10.508 28.01c2.883-3.367 5.808-5.306 6.834-5.931 4.456.539 7.659 9.627 8.637 13.527-3.155 7.62-6.385 13.591-12.444 13.591-4.132 0-8.347-1.838-10.122-2.713.21-7 2.591-13.212 7.095-18.473m3.654-19.529c-.166-.465-.136-.989.103-1.437 1.293-2.424 3.016-3.652 5.122-3.652.053 0 .102.007.153.012-.172 1.024-.62 2.614-1.797 3.726-.882.833-2.088 1.283-3.58 1.351m8.275-2.72c.593.786 1.063 1.84 1.219 3.428a6.73 6.73 0 0 0 .057 1.124v6.651c0 .937.76 1.696 1.696 1.696s1.696-.759 1.696-1.696v-5.058c.807.214 1.759.376 2.812.376 1.22 0 2.571-.217 3.974-.812v6.507c-2.359 3.914-4.168 8.291-5.895 12.613-1.616-4.508-4.658-10.634-9.497-11.75-.213-1.595-.794-4.271-2.375-7.202 1.546-.339 2.881-1.024 3.975-2.067 1.209-1.152 1.919-2.553 2.338-3.81m5.133 1.964c.525-.623 1.51-.939 2.928-.939 1.919 0 2.752.531 3.115 1.011-2.617 1.593-5.096 1.079-6.409.589a2.06 2.06 0 0 1 .366-.661m21.256 51.617c.112.023.224.033.335.033.792 0 1.501-.557 1.662-1.364l1.075-5.374 2.848 2.848a1.69 1.69 0 0 0 2.399 0c.662-.663.662-1.737 0-2.399l-5.082-5.082-.007-.007c-.07-.07-.147-.132-.228-.189-.027-.019-.057-.034-.085-.052-.042-.026-.083-.055-.128-.077l-5.848-2.924v-9.13c0-.937-.76-1.696-1.696-1.696s-1.696.76-1.696 1.696v9.728l-6.342 11.099-7.181 4.309-4.196-2.797c-.435-.29-.981-.363-1.477-.198l-5.089 1.696c-.889.296-1.369 1.257-1.073 2.146s1.257 1.37 2.146 1.073l4.302-1.434 3.404 2.269-1.407 5.626c-.227.909.325 1.83 1.234 2.057.138.035.277.051.413.051.76 0 1.452-.514 1.644-1.285l1.526-6.104 5.31-3.186v3.789.001 13.571c0 .937.76 1.696 1.696 1.696s1.696-.759 1.696-1.696V68.56l5.586 5.586a1.69 1.69 0 0 0 2.399 0c.662-.663.662-1.737 0-2.399l-7.985-7.985v-5.632l5.766-10.09 4.192 2.096-1.442 7.211c-.184.918.412 1.812 1.331 1.996M74.68 26.995c-.04 1.475-.514 3.95-3.129 4.856-.511.177-1.069-.041-1.328-.518.025-1.82.475-3.076 1.347-3.733s2.143-.709 3.11-.605m-31.221-3.276c-1.636 1.414-3.876 3.35-4.627 3.424-.933.004-1.688.762-1.688 1.696s.76 1.696 1.696 1.696c1.92 0 3.983-1.783 6.838-4.25 3.722-3.217 8.821-7.624 13.801-7.624 4.872 0 9.442 2.84 12.353 5.149-.781.196-1.566.528-2.285 1.065-.969.724-1.679 1.702-2.133 2.919a9.55 9.55 0 0 0-6.38-2.347c-7.492 0-9.954 5.901-10.055 6.152a1.69 1.69 0 0 0 .93 2.195c.86.355 1.85-.057 2.212-.915.07-.165 1.765-4.039 6.913-4.039 3.287 0 5.189 2.236 6.206 4.111a4.48 4.48 0 0 0 3.941 2.357 4.51 4.51 0 0 0 1.48-.251c5.154-1.787 5.73-7.151 5.314-9.737-.008-.054-.023-.106-.037-.159-.006-.023-.009-.046-.016-.068-.028-.091-.064-.179-.107-.264-.013-.026-.029-.05-.043-.075-.034-.061-.072-.119-.114-.175a1.69 1.69 0 0 0-.061-.079c-.013-.015-.023-.032-.036-.046-.338-.375-8.391-9.184-18.083-9.184-6.243 0-11.894 4.884-16.02 8.451M40.678 95c2.957 0 6.096-1.828 9.328-5.435 2.709-3.022 5.454-7.281 7.939-12.316 4.969-10.071 8.18-21.748 8.18-29.749 0-9.151-5.686-15.816-5.928-16.095l-2.564 2.222c.051.059 5.099 5.975 5.099 13.873 0 7.52-3.074 18.608-7.83 28.248-4.827 9.782-10.277 15.859-14.224 15.859-2.519 0-11.44-5.387-20.982-15.129-9.166-9.358-14.87-18.702-16.065-26.16 2.422 1.029 6.125 2.271 9.904 2.271 9.353 0 13.142-9.514 17.153-19.587 1.793-4.502 3.609-9.061 5.936-13.008.324-.251.555-.613.63-1.033 3.766-5.961 8.881-10.285 17.17-10.465l6.751-.015c1.32 0 3.535.661 3.535 5.089h3.393c0-2.881-.762-5.103-2.264-6.606-1.21-1.21-2.866-1.877-4.664-1.877l-6.096.013c-.041-.003-.081-.013-.123-.013-.201 0-.397.011-.595.015h-.102v.002c-6.881.169-12.45 2.831-16.974 8.121V8.512c.003-.185-.008-1.849-1.397-3.262-1.211-1.232-3.023-1.857-5.389-1.857-1.953 0-3.518.459-4.683 1.354-.872-1.569-2.011-2.506-2.845-3.188l-.506-.423C21.638.403 20.545 0 19.387 0c-3.359 0-6.241 1.935-8.115 5.448-.937 1.757-.774 3.925.416 5.523 2.551 3.425 3.266 6.869 3.466 8.468C11.636 21.665 0 30.326 0 47.5c0 5.123 2.244 16.008 17.272 31.352C24.939 86.68 35.748 95 40.678 95"></path>
</svg>
