<?xml version="1.0" encoding="UTF-8"?>
<svg xmlns="http://www.w3.org/2000/svg" xmlns:v="https://vecta.io/nano" width="88" height="96">
  <path fill="#0096d3" fill-rule="evenodd" d="M38.559 89.327l-1.386 1.346c-.316.308-.73.49-1.17.468a1.62 1.62 0 0 1-1.158-.496c-.622-.636-.612-1.656.012-2.288l1.41-1.376.002.002c.304-.298.706-.46 1.13-.46h.02c.432.004.836.178 1.158.508.616.63.606 1.686-.018 2.296h0zm-8.563-55.333h15.998v-3.999H29.996v3.999zm0-7.999h27.996v-3.999H29.996v3.999zM17.997 11.998v3.999h7.999V7.999h-3.999v3.999h-3.999zM73.99 37.994V0h-54.82L9.999 9.17v30.823h3.999V10.826l6.827-6.827H69.99v33.994h3.999zm-41.92 47.49c-.012.012-.02.028-.032.04l-2.51 2.45c-.318.306-.744.432-1.176.456a1.63 1.63 0 0 1-1.108-2.796l4.955-4.837c.178-.17.318-.364.468-.552l.042.042c.312-.298.712-.44 1.154-.446.432.012.834.19 1.152.526.618.65.592 1.684-.074 2.322l-2.868 2.8-.004-.004zm-7.573-2.766c-.014.016-.024.032-.04.048l-.962.938c-.314.306-.668.434-1.174.464a1.63 1.63 0 0 1-1.154-.502c-.624-.646-.606-1.68.042-2.308l.404-.396c.02-.016.042-.028.06-.046l-.006-.006 5.481-5.349c.304-.294.702-.454 1.122-.454h.028c.432.008.838.182 1.13.486l.028.028a1.66 1.66 0 0 1-.044 2.31l-4.911 4.791-.004-.004zm-6.779-4.209a1.63 1.63 0 0 1-1.158-.502c-.624-.646-.606-1.682.03-2.3l2.052-1.964c.31-.3.752-.446 1.154-.456.432.006.834.182 1.154.512.26.27 1.044 1.21.246 1.986h0l-2.334 2.278c-.312.292-.72.426-1.144.446h0zm51.863-35.86l-.96-.64a11.96 11.96 0 0 0-6.655-2.016H47.993h-1.188-8.711-9.677-2.422v.32c-1.104.276-2.164.718-3.124 1.36l-1.97 1.312a5.97 5.97 0 0 1-3.328 1.008H0v3.999h17.576c1.982 0 3.901-.58 5.547-1.68l1.97-1.312c.986-.66 2.136-1.008 3.326-1.008h9.677c.362 0 .722.132 1.088.36l-3.444 3.483-5.945 6.157-1.336 1.412 1.374 1.376c4.035 4.037 8.311 3.713 11.184 2.728 2.432-.83 5.335-2.714 6.521-3.517h3.669l6.851 6.377c.734.768 10.477 10.978 13.462 13.552.594.512.31 1.718-.316 2.482-.838 1.02-1.882 1.054-3.034.154-2.804-2.398-11.952-11.158-12.044-11.246l-2.768 2.888 12.186 11.372c-.666.89-1.574 1.74-2.534 1.998-.512.136-1.328.216-2.444-.624-2.806-2.398-8.723-7.997-8.783-8.053l-2.75 2.902c.246.236 6.051 5.729 9.029 8.267.04.03.078.046.118.076-.722.912-1.53 1.536-2.352 1.722-.838.19-1.69-.06-2.55-.736-2.162-1.704-5.553-5.163-5.587-5.197l-2.858 2.796c.138.144 3.242 3.303 5.583 5.225-.502.572-1.114 1.03-1.77 1.244-.768.248-1.49.172-2.14-.234-.994-.618-2.512-1.692-3.509-2.408a5.63 5.63 0 0 0-1.58-4.329c-.61-.624-1.348-1.068-2.148-1.35.452-1.812.012-3.813-1.378-5.275a5.57 5.57 0 0 0-3.933-1.748c-.044-.002-.088.008-.132.008-.176-1.096-.67-2.15-1.496-3.006l-1.44 1.388 1.42-1.41c-1.044-1.082-2.446-1.692-3.949-1.716a5.94 5.94 0 0 0-3.569 1.248c-.266-.47-.578-.928-.986-1.352a5.58 5.58 0 0 0-3.945-1.716c-1.462-.08-2.924.536-3.997 1.576l-.994.952c-1.864-1.108-4.301-1.744-6.873-1.744v3.999c1.882 0 3.368.452 4.429.994-.652 1.934-.256 4.153 1.254 5.719.828.858 1.886 1.406 3.036 1.616a5.62 5.62 0 0 0 1.57 4.043 5.61 5.61 0 0 0 3.967 1.724c.032 0 .064.002.098.002.198 0 .39-.036.584-.056.224.928.662 1.816 1.364 2.558 1.04 1.096 2.444 1.718 3.953 1.756a3.41 3.41 0 0 0 .142.002c.884 0 1.728-.226 2.504-.614.262.584.61 1.14 1.082 1.624 1.054 1.082 2.466 1.684 3.977 1.702h.064a5.59 5.59 0 0 0 3.941-1.606l1.332-1.292c.986.702 2.208 1.55 3.098 2.106 1.042.65 2.206.98 3.398.98a6.83 6.83 0 0 0 2.1-.34c1.666-.544 3.136-1.69 4.169-3.187.398.076.8.12 1.204.12a6.49 6.49 0 0 0 1.446-.164c2.072-.468 3.927-1.926 5.335-4.141.124.006.254.028.374.028a6.31 6.31 0 0 0 1.628-.214c2.416-.65 4.201-2.6 5.249-4.265.144.012.29.038.432.038 1.842 0 3.468-.928 4.565-2.26 1.368-1.666 1.964-4.055 1.218-6.057 1.116-.614 2.51-.898 4.477-.898v-3.999c-2.124 0-4.729.252-7.067 1.792-1.744-1.656-4.369-4.313-6.733-6.743.664-.058 1.374-.15 2.186-.318l-.808-3.917c-3.5.724-4.383.152-6.321-1.098l-.558-.356-7.909-7.357h-6.509l-.522.374c-.034.024-3.513 2.5-6.023 3.357-2.032.692-3.859.52-5.543-.54l4.403-4.535 5.609-5.687a4.01 4.01 0 0 1 2.612-.968h1.188 13.972c1.584 0 3.118.466 4.435 1.344l.962.64c1.976 1.318 4.277 2.016 6.655 2.016h13.97v-3.999h-13.97c-1.586 0-3.12-.464-4.437-1.344h0z"></path>
</svg>
