<?xml version="1.0" encoding="UTF-8"?>
<svg xmlns="http://www.w3.org/2000/svg" xmlns:v="https://vecta.io/nano" viewBox="1022 929 265 71" width="353.333" height="94.667">
  <clipPath id="A">
    <path d="M1022 929h265v71h-265v-71z" fill="#fff"></path>
  </clipPath>
  <g clip-path="url(#A)">
    <path d="M1275.849 960.891l10.838-14.758a.59.59 0 0 0 .048-.627.61.61 0 0 0-.545-.329h-.789c-.196 0-.381.093-.496.249l-10.206 13.834-10.162-13.833a.62.62 0 0 0-.497-.25h-.833a.61.61 0 0 0-.546.329c-.105.202-.086.443.049.627l10.837 14.758-10.836 14.714c-.136.185-.155.425-.05.628a.61.61 0 0 0 .546.329h.833a.62.62 0 0 0 .497-.249l10.162-13.833 10.206 13.833c.115.156.3.249.496.249h.789a.61.61 0 0 0 .545-.328.59.59 0 0 0-.049-.629l-10.837-14.714zm-55.761 13.8h-12.319v-13.765h12.319c4.551 0 6.624 3.568 6.624 6.882 0 1.824-.592 3.517-1.667 4.766-1.192 1.385-2.906 2.117-4.957 2.117h0zm-12.319-16.106v-11.57h11.07c2.402 0 4.281 1.234 5.153 3.38.597 1.529.598 3.28.004 4.8-.876 2.154-2.755 3.39-5.157 3.39h-11.07zm15.126.855c1.283-.799 2.269-2.002 2.885-3.536.743-1.967.742-4.288-.003-6.215-1.167-2.924-3.696-4.602-6.938-4.602h-12.616a.41.41 0 0 0-.413.406v30.675a.41.41 0 0 0 .413.406h13.865c5.385 0 8.146-3.961 8.494-7.887.333-3.766-1.526-7.956-5.687-9.247h0zm-131.31-27.618v54.475c0 6.06-4.622 10.989-10.307 10.989h-56.734V942.7c0-6.058 4.622-10.987 10.304-10.987h56.737v.109zm0-2.822h-56.737c-7.083 0-12.848 6.149-12.848 13.7v54.76 2.54h2.544 56.734c7.086 0 12.85-6.145 12.85-13.703v-54.475V929h-2.543zm190.5 11.868h.518c.566 0 1.059-.169 1.059-.655 0-.387-.246-.654-.985-.654-.296 0-.469.024-.592.048v1.261zm0 2.28h-.764v-4.05c.419-.073.863-.121 1.429-.121.69 0 1.035.121 1.306.315.247.17.419.485.419.849 0 .509-.369.824-.813.97v.048c.37.146.567.461.69.971.123.63.197.873.296 1.018h-.789c-.123-.145-.221-.509-.32-1.067-.099-.436-.37-.63-.961-.63h-.493v1.697zm.69-5.311c-1.774 0-3.129 1.431-3.129 3.177 0 1.795 1.355 3.201 3.178 3.201 1.774.025 3.08-1.406 3.08-3.177s-1.306-3.201-3.104-3.201h-.025zm.049-.68c2.218 0 3.967 1.698 3.967 3.857 0 2.207-1.749 3.905-3.991 3.905s-4.017-1.698-4.017-3.905c0-2.159 1.775-3.857 4.017-3.857h.024zm4.013 48.682a2.6 2.6 0 0 0-.495-.925 2.17 2.17 0 0 0-.839-.6c-.33-.135-.714-.203-1.141-.203a3.17 3.17 0 0 0-1.583.403c-.321.181-.619.406-.888.671l-.037-.605a.4.4 0 0 0-.42-.354h-.389c-.115 0-.209.093-.209.206v7.187c0 .114.094.206.209.206h.705c.115 0 .209-.092.209-.206v-5.333c.295-.375.631-.672 1.001-.885a2.43 2.43 0 0 1 1.226-.329c.579 0 .994.162 1.268.497.281.344.423.834.423 1.456v4.594c0 .114.094.206.21.206h.704c.115 0 .209-.092.209-.206v-4.594c0-.437-.055-.836-.163-1.186h0zm-9.017 4.1c-.146.145-.297.283-.448.412a3.06 3.06 0 0 1-.532.361c-.188.1-.394.179-.613.235-.358.091-.821.133-1.218.013-.148-.044-.28-.115-.391-.209s-.201-.214-.268-.362a1.27 1.27 0 0 1-.103-.539c0-.211.062-.393.191-.557.135-.172.351-.325.644-.455.306-.136.706-.246 1.189-.328.437-.073.958-.124 1.549-.15v1.579zm.469-5.05c-.214-.253-.486-.45-.809-.585-.318-.133-.691-.201-1.109-.201-.561 0-1.072.104-1.519.309-.441.201-.866.502-1.263.893-.068.067-.081.169-.033.25l.128.215a.53.53 0 0 0 .143.151c.161.115.404.113.667-.123a3.83 3.83 0 0 1 .396-.3c.157-.106.354-.206.586-.296.222-.087.498-.13.822-.13.509 0 .88.15 1.131.461.26.319.391.792.391 1.406v.551c-.749.025-1.406.092-1.956.2-.606.119-1.112.281-1.504.482-.407.208-.713.459-.908.747s-.299.616-.299.959c0 .357.063.67.185.929a1.81 1.81 0 0 0 .497.646c.204.166.438.29.698.37.254.078.519.118.789.118.312 0 .605-.031.87-.092a3.5 3.5 0 0 0 .742-.262 3.8 3.8 0 0 0 .657-.413c.101-.078.203-.163.306-.252l.061.545c.058.228.231.358.476.358h.278c.115 0 .209-.092.209-.206v-4.68a3.99 3.99 0 0 0-.155-1.146c-.106-.351-.266-.655-.477-.904h0zm-5.805 5.742c-.1-.124-.208-.15-.281-.15-.116 0-.214.073-.277.127-.053.046-.121.095-.205.15s-.178.101-.294.147c-.181.071-.477.087-.701.008-.093-.033-.172-.083-.241-.153s-.124-.161-.165-.275a1.31 1.31 0 0 1-.065-.44v-4.67h2.095c.116 0 .209-.092.209-.206v-.513c0-.114-.093-.206-.209-.206h-2.095v-2.539c0-.113-.093-.206-.209-.206h-.33c-.147 0-.235.067-.283.123s-.089.13-.11.236l-.164 2.392-1.065.074c-.11.008-.195.098-.195.206v.267a.35.35 0 0 0 .125.279c.071.061.164.093.268.093h.84v4.706c0 .618.16 1.087.477 1.396s.754.464 1.302.464c.336 0 .664-.068.976-.201s.574-.315.78-.538c.062-.069.071-.169.022-.247l-.205-.324zm-5.805-9.276c-.076-.076-.167-.137-.27-.181a.85.85 0 0 0-.666 0 .87.87 0 0 0-.27.18c-.077.076-.139.166-.184.271s-.068.216-.068.33.023.225.07.327c.045.097.106.185.182.259s.168.137.269.18.217.068.334.068.229-.022.333-.068.194-.104.27-.18a.96.96 0 0 0 .184-.255c.05-.102.075-.214.075-.331a.78.78 0 0 0-.074-.335c-.047-.102-.11-.192-.185-.265h0zm-.251 2.871h-.697c-.116 0-.209.093-.209.206v7.187c0 .114.093.206.209.206h.697c.116 0 .209-.092.209-.206v-7.187c0-.113-.093-.206-.209-.206h0zm-3.187 3.877a2.95 2.95 0 0 0-.699-.377 11.33 11.33 0 0 0-.759-.262l-.743-.23c-.23-.073-.435-.159-.61-.258a1.33 1.33 0 0 1-.397-.33c-.088-.113-.132-.256-.132-.437 0-.152.034-.294.104-.432s.171-.264.301-.37.3-.198.493-.264c.416-.142.995-.12 1.343-.019a2.64 2.64 0 0 1 .477.186c.129.07.232.132.31.188.305.219.554.143.677-.071l.147-.238c.052-.083.036-.191-.036-.257-.302-.278-.643-.486-1.014-.621-.366-.133-.789-.2-1.257-.2-.394 0-.756.057-1.076.171s-.6.27-.826.465-.408.428-.533.689-.188.539-.188.824c0 .334.069.62.204.851.131.223.305.415.518.571a2.95 2.95 0 0 0 .699.374c.247.093.5.179.759.257l.742.23a3 3 0 0 1 .607.264 1.28 1.28 0 0 1 .399.348c.092.124.137.28.137.478 0 .188-.036.37-.106.54a1.25 1.25 0 0 1-.305.437 1.52 1.52 0 0 1-.515.299c-.211.076-.461.114-.743.114-.303 0-.558-.035-.757-.104a2.94 2.94 0 0 1-.523-.231 2.42 2.42 0 0 1-.334-.229c-.235-.2-.459-.196-.607-.105a.45.45 0 0 0-.149.149l-.162.246c-.056.085-.04.197.036.265a3.95 3.95 0 0 0 1.054.667c.397.172.872.26 1.412.26.434 0 .826-.063 1.166-.186s.636-.297.873-.512a2.16 2.16 0 0 0 .547-.773 2.47 2.47 0 0 0 .184-.953c0-.323-.068-.606-.203-.838a1.89 1.89 0 0 0-.515-.576h0zm-10.953-1.009c.046-.265.118-.51.215-.732.121-.277.283-.518.481-.716s.432-.347.701-.451a2.59 2.59 0 0 1 1.77-.006 1.86 1.86 0 0 1 .643.438c.18.191.322.428.422.705.081.228.131.483.147.762h-4.379zm4.54-2.1a2.82 2.82 0 0 0-.991-.659c-.375-.149-.787-.224-1.222-.224-.546 0-1.042.096-1.476.285s-.806.456-1.107.792-.53.738-.687 1.198c-.155.454-.234.956-.234 1.492 0 .631.083 1.201.248 1.693.168.499.41.928.721 1.274s.694.619 1.132.802.922.272 1.447.272a4.51 4.51 0 0 0 .858-.083c.281-.055.549-.13.797-.223a3.55 3.55 0 0 0 .687-.342 2.16 2.16 0 0 0 .514-.448c.062-.076.061-.183-.001-.258l-.181-.219a.38.38 0 0 0-.319-.161c-.1 0-.208.048-.36.161a3.6 3.6 0 0 1-.412.251c-.17.091-.385.176-.638.251s-.549.11-.894.11c-.381 0-.729-.065-1.034-.193-.3-.125-.559-.316-.772-.567s-.385-.576-.504-.958c-.115-.37-.176-.805-.181-1.293h5.103c.172 0 .267-.077.314-.14.059-.076.086-.185.086-.341 0-.528-.08-1.005-.237-1.416a3.08 3.08 0 0 0-.657-1.056h0zm-6.673 5.341c-.153-.189-.405-.22-.675.029a2.17 2.17 0 0 1-.331.244c-.14.087-.323.17-.544.246-.213.074-.488.111-.815.111a2.32 2.32 0 0 1-.955-.191 1.95 1.95 0 0 1-.724-.553c-.202-.244-.361-.552-.473-.915-.113-.369-.171-.801-.171-1.284 0-.465.056-.887.165-1.257.107-.362.266-.674.472-.925s.456-.441.75-.574.643-.201 1.031-.201c.282 0 .521.029.713.088.198.06.363.126.493.196a2.28 2.28 0 0 1 .308.195c.231.181.416.173.55.072.027-.021.056-.047.108-.101l.184-.245c.063-.084.052-.201-.025-.272-.292-.272-.636-.489-1.025-.647s-.843-.24-1.342-.24c-.555 0-1.057.097-1.491.289s-.81.467-1.112.816-.531.765-.686 1.241a5.09 5.09 0 0 0-.23 1.565c0 .603.081 1.149.242 1.625s.392.894.685 1.23.655.598 1.066.775a3.39 3.39 0 0 0 1.357.267c.287 0 .566-.027.831-.08a3.8 3.8 0 0 0 .742-.226 3.1 3.1 0 0 0 .621-.349c.187-.136.344-.286.467-.444.058-.075.057-.178-.001-.252l-.185-.233zm-12.301-3.241c.046-.265.119-.51.215-.732a2.3 2.3 0 0 1 .481-.716 2 2 0 0 1 .701-.451c.511-.198 1.233-.225 1.77-.006.248.102.464.249.643.438s.322.428.421.705c.082.228.132.483.148.762h-4.379zm4.54-2.1a2.82 2.82 0 0 0-.991-.659c-.376-.149-.787-.224-1.223-.224-.545 0-1.041.096-1.475.285s-.807.456-1.107.792-.53.738-.687 1.197-.235.957-.235 1.493c0 .631.084 1.201.249 1.693.168.499.41.928.721 1.274s.694.619 1.132.802a3.77 3.77 0 0 0 1.446.272 4.52 4.52 0 0 0 .859-.083c.282-.055.55-.13.797-.223a3.55 3.55 0 0 0 .687-.342 2.16 2.16 0 0 0 .514-.448c.062-.076.061-.183-.001-.258l-.182-.219c-.073-.104-.186-.161-.318-.161-.1 0-.208.048-.361.161-.098.073-.236.157-.41.251s-.386.176-.64.251a3.2 3.2 0 0 1-.893.11c-.381 0-.729-.065-1.034-.193-.3-.125-.559-.316-.772-.567s-.385-.576-.504-.958c-.115-.37-.175-.805-.181-1.293h5.103c.172 0 .266-.077.314-.14.058-.076.086-.185.086-.341 0-.528-.08-1.005-.237-1.416a3.08 3.08 0 0 0-.657-1.056h0zm-7.842-.08c-.222-.26-.505-.462-.84-.6-.33-.135-.714-.203-1.141-.203a3.17 3.17 0 0 0-1.583.403c-.321.182-.618.406-.887.671l-.038-.604c-.036-.222-.193-.355-.42-.355h-.389c-.115 0-.209.093-.209.206v7.187c0 .114.094.206.209.206h.705c.115 0 .209-.092.209-.206v-5.333c.295-.374.631-.672 1.001-.885a2.43 2.43 0 0 1 1.226-.329c.579 0 .994.162 1.268.497.281.344.423.834.423 1.456v4.594c0 .114.094.206.21.206h.704c.116 0 .209-.092.209-.206v-4.594c0-.438-.054-.838-.163-1.186a2.6 2.6 0 0 0-.494-.925h0zm-11.692 3.189a2.93 2.93 0 0 0-.699-.377 11.53 11.53 0 0 0-.759-.262l-.743-.23c-.229-.073-.434-.159-.609-.258-.163-.091-.297-.202-.397-.329-.089-.114-.132-.257-.132-.438 0-.152.033-.294.103-.432s.171-.264.301-.37c.135-.109.301-.198.494-.264.414-.141.994-.12 1.343-.019.19.056.35.119.477.186s.232.132.309.187c.3.219.555.144.678-.07l.146-.238c.052-.083.036-.191-.036-.257-.303-.278-.643-.486-1.013-.621s-.79-.2-1.258-.2c-.393 0-.755.057-1.076.171s-.599.27-.826.465-.409.428-.532.689-.189.539-.189.824c0 .333.069.62.204.851.131.223.306.415.518.571.206.15.441.276.7.374a11.62 11.62 0 0 0 .758.257l.742.23c.226.072.431.161.608.263a1.31 1.31 0 0 1 .399.349c.092.124.136.28.136.478 0 .189-.035.371-.106.54s-.171.313-.305.437-.308.225-.516.299-.46.114-.742.114c-.303 0-.557-.035-.756-.104a3.02 3.02 0 0 1-.524-.231 2.42 2.42 0 0 1-.334-.229c-.233-.199-.455-.196-.606-.105-.06.036-.111.088-.15.149l-.162.246c-.055.085-.04.197.036.265.309.274.663.498 1.054.667.397.172.873.26 1.413.26.434 0 .826-.063 1.165-.186s.636-.297.873-.511.423-.477.547-.774.185-.614.185-.953c0-.323-.069-.606-.204-.838a1.89 1.89 0 0 0-.515-.576h0zm-6.883 1.169c-.1.359-.252.669-.451.92a1.96 1.96 0 0 1-.737.572c-.297.134-.651.201-1.054.201s-.758-.067-1.054-.201-.54-.325-.737-.572a2.64 2.64 0 0 1-.455-.921c-.104-.368-.157-.788-.157-1.249s.053-.875.158-1.245c.102-.363.255-.675.455-.929s.444-.444.737-.579.65-.204 1.053-.204.756.068 1.052.204a1.97 1.97 0 0 1 .738.579 2.61 2.61 0 0 1 .452.928 4.76 4.76 0 0 1 .154 1.246c0 .461-.052.882-.154 1.25h0zm.367-4.079a3.07 3.07 0 0 0-1.121-.802c-.438-.186-.939-.28-1.488-.28s-1.05.094-1.488.28a3.11 3.11 0 0 0-1.124.801c-.304.343-.538.76-.695 1.239-.155.473-.234 1.009-.234 1.591s.079 1.117.234 1.588c.157.477.391.892.695 1.235s.684.613 1.124.798.938.276 1.488.276 1.049-.093 1.487-.276.819-.454 1.122-.799a3.52 3.52 0 0 0 .69-1.234 5.06 5.06 0 0 0 .234-1.588c0-.582-.078-1.117-.234-1.591-.157-.479-.389-.895-.69-1.238h0zm-8.275-.279c-.221-.26-.504-.462-.839-.6-.33-.135-.714-.203-1.141-.203a3.17 3.17 0 0 0-1.583.403c-.321.182-.618.406-.888.671l-.037-.605a.4.4 0 0 0-.42-.354h-.389c-.115 0-.209.093-.209.206v7.187c0 .114.094.206.209.206h.705c.115 0 .209-.092.209-.206v-5.333a3.52 3.52 0 0 1 1-.885c.38-.218.792-.329 1.227-.329.579 0 .994.162 1.268.497.28.344.423.834.423 1.456v4.594c0 .114.094.206.209.206h.704c.116 0 .21-.092.21-.206v-4.594a4 4 0 0 0-.164-1.186c-.11-.358-.277-.669-.494-.925h0zm-16.407 2.18c.047-.266.118-.511.215-.732.121-.277.283-.518.481-.716s.432-.347.702-.451c.509-.197 1.232-.225 1.769-.006a1.84 1.84 0 0 1 .642.438 2 2 0 0 1 .423.705c.082.228.131.483.147.762h-4.379zm4.54-2.1a2.82 2.82 0 0 0-.991-.659c-.375-.149-.787-.224-1.222-.224-.546 0-1.042.096-1.475.285s-.807.456-1.108.792-.53.738-.687 1.198c-.155.454-.234.956-.234 1.492 0 .631.083 1.201.248 1.693.167.498.409.927.721 1.274s.694.619 1.132.802.922.272 1.447.272a4.53 4.53 0 0 0 .859-.083c.281-.055.549-.13.796-.223a3.58 3.58 0 0 0 .687-.342c.211-.137.384-.288.514-.448.061-.076.061-.183-.001-.258l-.181-.219a.38.38 0 0 0-.319-.161c-.101 0-.209.048-.36.161a3.6 3.6 0 0 1-.412.251c-.169.091-.384.175-.638.251-.248.073-.549.11-.894.11-.381 0-.729-.065-1.033-.193s-.561-.317-.773-.567-.385-.577-.504-.958c-.115-.369-.176-.804-.181-1.293h5.103c.173 0 .267-.077.315-.141.058-.077.085-.185.085-.34 0-.528-.08-1.005-.237-1.416s-.38-.77-.657-1.056h0zm-8.381 4.698c-.277.393-.597.703-.952.922a2.24 2.24 0 0 1-1.202.337c-.691 0-1.203-.221-1.563-.676-.367-.463-.554-1.214-.554-2.231 0-.451.053-.869.158-1.242a2.76 2.76 0 0 1 .456-.941c.197-.254.445-.454.736-.593s.642-.211 1.039-.211.759.078 1.069.231c.292.145.565.398.813.753v3.651zm.906-8.788h-.697c-.115 0-.209.092-.209.206v3.725c-.197-.181-.412-.329-.644-.442-.39-.192-.854-.29-1.378-.29-.543 0-1.032.105-1.454.311a3.11 3.11 0 0 0-1.065.848c-.285.354-.503.776-.649 1.252s-.218.986-.218 1.53c0 1.266.267 2.235.795 2.881.538.66 1.299.994 2.262.994.574 0 1.099-.139 1.56-.412a3.93 3.93 0 0 0 .847-.679l.042.635c.036.227.195.362.427.362h.381c.116 0 .209-.092.209-.206V981.11c0-.114-.093-.206-.209-.206h0zm-8.454 4.01c-.221-.26-.504-.462-.839-.6s-.714-.203-1.141-.203a3.17 3.17 0 0 0-1.583.403 4.24 4.24 0 0 0-.888.671l-.038-.604c-.035-.222-.192-.355-.419-.355h-.389c-.115 0-.209.093-.209.206v7.187c0 .114.094.206.209.206h.704c.116 0 .21-.092.21-.206v-5.333c.295-.375.631-.672 1-.885.38-.218.792-.329 1.227-.329.579 0 .994.162 1.268.497.28.344.423.834.423 1.456v4.594c0 .114.094.206.209.206h.705c.115 0 .209-.092.209-.206v-4.594c0-.437-.055-.836-.163-1.186a2.6 2.6 0 0 0-.495-.925h0zm-8.353 4.358c-.1.359-.252.669-.451.92s-.444.44-.737.572-.65.201-1.054.201-.757-.067-1.054-.201c-.292-.132-.54-.325-.737-.572a2.64 2.64 0 0 1-.455-.921c-.104-.368-.157-.788-.157-1.249s.053-.875.158-1.245c.102-.363.255-.675.455-.929s.445-.445.738-.579.649-.204 1.052-.204.757.068 1.053.204.541.329.737.579a2.61 2.61 0 0 1 .452.928c.102.37.154.789.154 1.246a4.7 4.7 0 0 1-.154 1.25h0zm.367-4.079c-.303-.345-.68-.614-1.121-.802s-.938-.28-1.488-.28-1.05.094-1.488.28a3.12 3.12 0 0 0-1.124.801c-.304.343-.537.76-.695 1.239-.155.473-.233 1.009-.233 1.591s.078 1.117.234 1.588c.157.477.39.892.694 1.235s.684.613 1.125.798.938.276 1.487.276 1.05-.093 1.488-.276a3.05 3.05 0 0 0 1.121-.799c.301-.342.533-.757.69-1.234a5.06 5.06 0 0 0 .234-1.588c0-.582-.078-1.117-.233-1.591a3.53 3.53 0 0 0-.691-1.238h0zm-8.813 4.499a3.32 3.32 0 0 1-.952.922 2.24 2.24 0 0 1-1.202.337c-.691 0-1.203-.221-1.563-.676-.367-.463-.554-1.214-.554-2.231 0-.451.053-.869.158-1.242.102-.365.256-.682.456-.941s.444-.454.736-.593.642-.211 1.039-.211a2.39 2.39 0 0 1 1.069.231c.291.145.564.398.813.753v3.651zm.906-8.788h-.697c-.115 0-.209.092-.209.206v3.725c-.197-.181-.413-.329-.644-.442-.39-.192-.854-.29-1.378-.29-.543 0-1.033.105-1.454.311a3.11 3.11 0 0 0-1.065.848 3.72 3.72 0 0 0-.65 1.253c-.144.472-.217.987-.217 1.529 0 1.265.267 2.235.794 2.881.538.66 1.3.994 2.262.994.575 0 1.1-.139 1.561-.412.307-.182.591-.41.847-.679l.042.634a.4.4 0 0 0 .427.363h.381c.116 0 .209-.092.209-.206V981.11c0-.114-.093-.206-.209-.206h0zm-12.073 7.199a2.97 2.97 0 0 0-.699-.377 11.53 11.53 0 0 0-.759-.262l-.743-.23a3.25 3.25 0 0 1-.609-.257c-.164-.092-.298-.203-.397-.33-.089-.114-.133-.257-.133-.438 0-.152.034-.294.103-.432a1.13 1.13 0 0 1 .302-.37c.134-.109.3-.198.493-.264.414-.141.994-.12 1.343-.019a2.67 2.67 0 0 1 .477.186c.129.07.232.132.309.187.3.219.555.144.678-.07l.146-.238c.052-.083.037-.191-.036-.257-.303-.278-.643-.486-1.013-.621s-.789-.2-1.257-.2c-.394 0-.756.057-1.077.171a2.58 2.58 0 0 0-.825.465c-.229.196-.409.428-.533.689a1.9 1.9 0 0 0-.189.824c0 .333.069.62.204.851.132.223.307.415.519.571a2.95 2.95 0 0 0 .699.374c.247.093.499.179.758.257l.743.23c.226.072.43.161.607.263a1.3 1.3 0 0 1 .399.349c.092.124.137.28.137.478 0 .189-.036.371-.106.54a1.25 1.25 0 0 1-.305.437c-.136.124-.309.225-.516.299s-.46.114-.743.114c-.303 0-.557-.035-.756-.104-.208-.072-.384-.149-.523-.231a2.42 2.42 0 0 1-.334-.229c-.234-.199-.456-.196-.607-.105-.06.036-.111.088-.15.149l-.161.246c-.056.085-.041.197.035.265a3.96 3.96 0 0 0 1.054.667c.397.172.872.26 1.413.26.434 0 .826-.063 1.166-.186s.636-.297.872-.511.423-.477.547-.774a2.45 2.45 0 0 0 .185-.953c0-.324-.068-.606-.204-.838a1.9 1.9 0 0 0-.514-.576h0zm-6.884 1.169c-.1.359-.252.669-.451.92a1.96 1.96 0 0 1-.737.572c-.297.134-.651.201-1.054.201s-.758-.067-1.054-.201a1.96 1.96 0 0 1-.737-.572 2.63 2.63 0 0 1-.455-.921c-.104-.369-.157-.789-.157-1.249a4.63 4.63 0 0 1 .157-1.245c.103-.362.256-.675.456-.929s.444-.444.737-.579.65-.204 1.053-.204.757.068 1.053.204.541.33.737.579a2.61 2.61 0 0 1 .452.928c.102.371.154.79.154 1.246s-.052.882-.154 1.25h0zm.367-4.079c-.303-.345-.68-.614-1.121-.802s-.938-.28-1.488-.28-1.05.094-1.488.28a3.11 3.11 0 0 0-1.124.801c-.303.342-.537.759-.695 1.239-.155.473-.233 1.008-.233 1.591s.078 1.118.234 1.588c.157.477.391.893.694 1.235a3.09 3.09 0 0 0 1.125.798c.437.183.938.276 1.487.276s1.05-.093 1.488-.276.817-.454 1.121-.799.533-.757.69-1.234c.156-.471.234-1.005.234-1.588s-.078-1.118-.233-1.591a3.53 3.53 0 0 0-.691-1.238h0zm-8.298-.31c-.221-.254-.495-.45-.813-.58-.533-.217-1.229-.258-1.858-.083a2.44 2.44 0 0 0-.734.343 2.51 2.51 0 0 0-.596.587c-.062.084-.119.174-.171.269-.131-.317-.31-.583-.535-.796-.359-.34-.839-.512-1.425-.512a2.4 2.4 0 0 0-1.358.404c-.245.164-.473.362-.684.591l-.034-.525c-.035-.222-.192-.355-.419-.355h-.389c-.116 0-.209.093-.209.206v7.187c0 .114.093.206.209.206h.704c.116 0 .21-.092.21-.206v-5.385c.24-.361.513-.647.812-.852.305-.209.626-.31.982-.31.477 0 .826.155 1.069.473.252.333.38.831.38 1.48v4.594c0 .114.093.206.209.206h.705c.115 0 .209-.092.209-.206v-4.594c0-.329.048-.62.144-.865s.222-.446.38-.605a1.58 1.58 0 0 1 .544-.361 1.78 1.78 0 0 1 .653-.122c.511 0 .89.156 1.159.477.274.329.414.826.414 1.476v4.594c0 .114.094.206.209.206h.698c.115 0 .209-.092.209-.206v-4.594c0-.452-.057-.861-.171-1.217-.116-.363-.285-.674-.503-.925h0zm-12.241 5.056c-.146.145-.297.283-.448.412a3.03 3.03 0 0 1-.533.361c-.187.1-.393.179-.612.235-.359.091-.821.132-1.219.013-.147-.044-.279-.115-.391-.209s-.201-.214-.268-.361-.103-.33-.103-.54.063-.393.191-.557c.136-.172.352-.325.644-.455.307-.136.707-.246 1.189-.328.438-.073.958-.123 1.55-.15v1.579zm.469-5.05c-.214-.253-.486-.45-.809-.585s-.692-.201-1.11-.201c-.56 0-1.072.104-1.519.309-.441.202-.866.503-1.263.893-.067.067-.08.169-.032.25l.128.215c.039.062.088.114.143.151.16.115.403.113.667-.123.1-.089.232-.19.395-.3a3.02 3.02 0 0 1 .587-.296c.221-.087.498-.13.821-.13.51 0 .881.15 1.132.461.259.319.391.792.391 1.406v.551c-.749.025-1.406.092-1.956.2-.606.119-1.113.281-1.505.482-.406.207-.711.459-.907.747a1.69 1.69 0 0 0-.299.959c0 .357.062.669.184.929a1.84 1.84 0 0 0 .497.646c.204.166.439.291.698.37s.519.118.789.118c.313 0 .606-.031.87-.092a3.51 3.51 0 0 0 .743-.262c.228-.113.449-.251.656-.413.102-.078.204-.163.307-.252l.061.545c.058.228.231.358.475.358h.279c.115 0 .209-.092.209-.206v-4.68a3.99 3.99 0 0 0-.156-1.146c-.106-.351-.266-.655-.476-.904h0zm-5.805 5.742c-.101-.124-.208-.15-.281-.15-.117 0-.215.073-.277.127-.053.046-.122.095-.205.15s-.179.101-.293.146c-.183.073-.478.088-.702.009-.093-.033-.172-.083-.241-.153a.73.73 0 0 1-.165-.275c-.044-.119-.065-.267-.065-.44v-4.67h2.094c.116 0 .21-.092.21-.206v-.513c0-.114-.094-.206-.21-.206h-2.094v-2.539c0-.113-.094-.206-.21-.206h-.33a.36.36 0 0 0-.283.123c-.052.059-.087.127-.109.236l-.164 2.392-1.066.074c-.109.008-.194.098-.194.206v.267a.35.35 0 0 0 .124.279.41.41 0 0 0 .269.093h.84v4.706c0 .618.16 1.087.476 1.396s.754.464 1.303.464c.336 0 .664-.068.976-.201s.574-.315.779-.538c.063-.068.072-.169.023-.247l-.205-.324zm-5.978-2.528a2.95 2.95 0 0 0-.699-.377 11.33 11.33 0 0 0-.759-.262l-.743-.23c-.229-.072-.434-.159-.61-.258-.163-.091-.297-.202-.396-.33a.68.68 0 0 1-.133-.437c0-.152.034-.294.104-.432s.171-.264.301-.37.3-.198.493-.264c.415-.142.994-.12 1.343-.019a2.64 2.64 0 0 1 .477.186c.129.07.233.132.309.187.299.218.554.145.679-.07l.146-.238c.052-.083.036-.191-.036-.257a3.03 3.03 0 0 0-1.014-.621c-.366-.133-.789-.2-1.257-.2-.394 0-.756.057-1.077.171a2.58 2.58 0 0 0-.825.465c-.229.195-.408.427-.533.689a1.9 1.9 0 0 0-.188.824c0 .334.068.62.204.851.131.223.306.416.518.571a2.95 2.95 0 0 0 .699.374c.247.093.5.179.759.257l.742.23c.227.072.431.161.607.263.165.096.3.214.4.349.091.123.136.28.136.478 0 .189-.036.371-.106.54a1.22 1.22 0 0 1-.305.437 1.52 1.52 0 0 1-.515.299c-.211.076-.461.114-.743.114-.303 0-.558-.035-.757-.104-.208-.072-.384-.149-.523-.231s-.252-.159-.334-.229c-.236-.2-.459-.194-.606-.106-.06.036-.111.088-.15.15l-.162.246c-.056.085-.04.197.036.265a3.95 3.95 0 0 0 1.054.667c.396.172.871.26 1.412.26.434 0 .826-.063 1.166-.186s.636-.297.873-.512.423-.477.547-.774.184-.613.184-.952c0-.324-.068-.606-.203-.838a1.89 1.89 0 0 0-.515-.576h0zm-5.633 2.696h-5.272v-3.849h4.34c.116 0 .209-.092.209-.206v-.6c0-.114-.093-.206-.209-.206h-4.34v-3.719h5.257c.116 0 .21-.093.21-.206v-.614c0-.114-.094-.206-.21-.206h-6.222c-.116 0-.209.092-.209.206v10.22c0 .114.093.206.209.206h6.222c.114 0 .207-.089.21-.201l.014-.614c.002-.055-.02-.109-.059-.149s-.093-.062-.15-.062h0zm152.457-29.99c0 3.784-1.483 7.352-4.175 10.045-2.728 2.729-6.349 4.232-10.196 4.232-3.817 0-7.422-1.503-10.151-4.232-2.721-2.722-4.219-6.289-4.219-10.045s1.498-7.323 4.219-10.045c2.728-2.729 6.333-4.232 10.151-4.232 3.847 0 7.468 1.503 10.196 4.232 2.692 2.693 4.175 6.261 4.175 10.045h0zm-2.797-11.431c-3.08-3.079-7.19-4.774-11.574-4.774-4.338 0-8.541 1.741-11.529 4.774-3.094 3.094-4.799 7.154-4.799 11.431s1.705 8.337 4.797 11.429c2.99 3.035 7.193 4.775 11.531 4.775 4.384 0 8.494-1.695 11.574-4.773 3.095-3.094 4.799-7.154 4.799-11.431s-1.704-8.337-4.799-11.431h0z" fill-rule="evenodd" fill="#0096d3"></path>
  </g>
  <path d="M1038.399 939.739h45.176v43.223c0 3.471-2.623 6.295-5.846 6.295h-45.177v-43.224c0-3.471 2.623-6.294 5.847-6.294h0zm-8.38 6.294v45.809h47.71c4.622 0 8.382-3.983 8.382-8.88v-45.805h-47.712c-4.621 0-8.38 3.982-8.38 8.876h0zm147.37 21.003v-21.867h4.634v21.911c0 3.444 3.77 5.143 7.132 5.143 3.316 0 7.087-1.744 7.087-5.187v-21.867h4.633v21.911c0 6.35-6.269 9.659-11.72 9.659-5.588 0-11.766-3.309-11.766-9.703h0zm-16.036 4.874h14.946v4.516h-19.534v-31.257h4.588v26.741zm-41.745-18.692c-.636-2.817-3.725-4.024-6.496-3.98-2.135.045-4.498.761-5.77 2.37-.636.805-.863 1.834-.772 2.907.227 3.22 3.816 3.622 7.223 3.935 4.361.537 9.767 1.655 10.994 6.663.136.671.227 1.431.227 2.057 0 6.037-6.088 9.525-11.812 9.525-4.906 0-10.857-2.862-11.448-8.452l-.045-.85 4.634-.089.045.671v-.179c.318 2.907 3.907 4.427 6.86 4.427 3.407 0 7.132-1.878 7.132-5.098 0-.313-.045-.671-.136-1.073-.545-2.37-3.816-2.773-6.996-3.086-4.952-.491-10.767-1.565-11.266-8.093v.044c-.182-2.101.363-4.203 1.726-5.947 2.135-2.728 5.951-4.159 9.631-4.159 4.906 0 9.994 2.504 10.812 8.228l-4.543.179zm17.079 9.748h7.905l-3.907-11.045-3.998 11.045zm9.677 4.249h-11.403l-3.816 9.211h-4.952l12.766-31.704h3.361l12.766 31.704h-4.906l-3.816-9.211z" fill-rule="evenodd" fill="#6eb136"></path>
</svg>
