<?xml version="1.0" encoding="UTF-8"?>
<svg xmlns="http://www.w3.org/2000/svg" xmlns:v="https://vecta.io/nano" width="1000" height="1000" viewBox="0 0 633.333 633.333">
  <path d="M632.5 296.667C622.5 131.667 485 0 316.667 0S10.833 131.667.833 296.667c0 6.667.833 13.333 1.667 20C9.167 371.667 30 422.5 61.667 465c57.5 78.333 150 129.167 255 129.167C170 594.167 50 480 40 336.667c-.833-6.667-.833-13.333-.833-20s0-13.333.833-20c10-143.333 130-257.5 276.667-257.5 105 0 197.5 50.833 255 129.167 31.667 42.5 52.5 93.333 59.167 148.333.833 6.667 1.667 13.333 1.667 19.167 0-6.667.833-13.333.833-20 0-5.833 0-12.5-.833-19.167" fill="#89d329"></path>
  <path d="M.833 336.667c10 165 147.5 296.667 315.833 296.667S622.5 501.667 632.5 336.667c0-6.667-.833-13.333-1.667-20-6.667-55-27.5-105.833-59.167-148.333-57.5-78.333-150-129.167-255-129.167 146.667 0 266.667 114.167 276.667 257.5.833 6.667.833 13.333.833 20s0 13.333-.833 20c-10 144.167-130 257.5-276.667 257.5-105 0-197.5-50.833-255-129.167C30 422.5 9.167 371.667 2.5 316.667 1.667 310 .833 303.333.833 297.5c0 6.667-.833 13.333-.833 20 0 5.833 0 12.5.833 19.167" fill="#00bcff"></path>
  <path d="M277.5 60.833v87.5h60.833c15 0 26.667-11.667 26.667-26.667 0-7.5-3.334-14.167-8.334-19.167 3.333-4.167 5.833-10 6.666-15.833 0-14.167-11.666-25.833-25.833-25.833zm20 18.334h36.667a7.5 7.5 0 1 1 0 15H297.5zm0 33.333H335c5 0 8.334 3.334 8.334 8.334S340 129.167 335 129.167h-37.5zm9.167 52.499l-43.334 87.5h22.501l6.666-15h49.167l6.666 15h22.499l-44.166-87.5zm10 22.501l15 31.667h-29.999zm30 84.167h25L327.5 328.333v30.833h-20.833v-30.833L262.5 271.667h25l30 40zm143.333 0v87.5h20.833v-33.333h15.833l25.001 33.333h24.999L550.833 325C561.666 321.667 570 311.667 570 299.167c0-15-11.667-27.501-26.667-27.501zM511.667 290h30c4.167 0 8.334 4.167 8.334 8.334s-3.334 8.334-8.334 8.334h-30zm-447.5-18.334v87.5H125c15 0 26.667-11.667 26.667-26.667 0-7.5-3.334-14.167-8.334-19.167 3.333-4.167 5.833-10 6.666-15.833 0-14.167-11.666-25.833-25.833-25.833zM84.166 290h36.667a7.5 7.5 0 1 1 0 15H84.166zm0 33.333h37.5c5 0 8.334 3.334 8.334 8.334S126.666 340 121.666 340h-37.5zm123.335-51.666l-43.334 87.5h22.501l6.666-15h49.167l6.666 15h22.499l-44.166-87.5zm10 22.501l15 31.667h-29.999zM462.5 271.667v18.808h-58.333v14.72h56.667v18.808h-56.667v16.355H462.5v18.808h-79.167v-87.5zm-185.834 215v87.5H297.5v-33.333h15.833l25.001 33.333h24.999L337.5 540.001c10.833-3.333 19.167-13.333 19.167-25.833 0-15-11.667-27.501-26.667-27.501zM298.333 505h30c4.167 0 8.334 4.167 8.334 8.334s-3.334 8.334-8.334 8.334h-30zm58.334-126.861v18.808h-58.333v14.72H355v18.808h-56.667v16.355h58.333v18.808H277.5v-87.5z" fill="#10384f"></path>
</svg>
