<?xml version="1.0" encoding="UTF-8"?>
<svg xmlns="http://www.w3.org/2000/svg" xmlns:xlink="http://www.w3.org/1999/xlink" xmlns:v="https://vecta.io/nano" width="240" height="57">
  <defs>
    <path id="A" d="M0 0h240v45.862H0z"></path>
  </defs>
  <g fill-rule="evenodd">
    <mask id="B" fill="#fff">
      <use xlink:href="#A"></use>
    </mask>
    <g fill="#005eba">
      <path d="M236.803 7.514c.232 0 .396-.174.396-.395a.38.38 0 0 0-.396-.395h-.763v.79h.763zm-1.574-1.415c0-.097.077-.183.184-.183h1.496c.599 0 1.189.443 1.189 1.194 0 .636-.387.925-.686 1.069l.444 1.002c.058.134-.028.26-.164.26h-.522c-.077 0-.145-.068-.174-.135l-.424-1.078h-.503v1.03c0 .096-.077.183-.183.183h-.473c-.106 0-.184-.087-.184-.183V6.099zm1.294 4.295c1.507 0 2.714-1.213 2.714-2.706a2.7 2.7 0 0 0-2.714-2.706c-1.497 0-2.714 1.204-2.714 2.706 0 1.492 1.217 2.706 2.714 2.706h0zm0-6.173c1.913 0 3.478 1.56 3.478 3.467s-1.564 3.456-3.478 3.456-3.468-1.55-3.468-3.456 1.555-3.467 3.468-3.467h0zM19.107 26.327c-3.058 0-5.536-2.47-5.536-5.518s2.478-5.518 5.536-5.518 5.536 2.47 5.536 5.518-2.478 5.518-5.536 5.518h0zM23.005 0C10.299 0 0 10.266 0 22.931c0 6.902 3.063 13.086 7.903 17.29-.563-.488.243-2.826.477-3.343.645-1.429 1.784-2.563 3.085-3.386 3.044-1.926 6.172-3.118 9.706-3.854 7.981-1.66 18.517-2.579 20.649-12.169l.288-1.313c-.046-1.019-.028-2.634-.548-3.55 1.043 1.839 1.581 4.081 1.76 6.165.334 3.869-.854 7.641-3.298 10.662-3.914 4.841-9.622 6.942-15.365 8.744-2.84.891-6.196 2.315-7.486 5.203-.234.525-.389 1.06-.477 1.601 2.005.57 4.12.88 6.309.88 12.705 0 23.005-10.266 23.005-22.931S35.71 0 23.005 0h0zm198.482 7.595c0-4.524 7.307-4.69 7.307 0V39.1c0 4.58-7.307 4.69-7.307 0V7.595zm-35.981 4.966c1.273-10.704 17.491-12.636 25.13-6.787 3.764 3.035-.221 7.835-3.542 5.407-4.096-2.593-13.395-3.807-14.558 1.931-1.495 9.049 22.584 3.862 22.197 18.539-.388 14.015-20.758 14.346-28.397 8.056-1.826-1.49-1.771-3.918-.774-5.407 1.439-1.436 3.044-1.932 4.926-.387 4.539 3.091 16.219 5.408 17.049-2.427-.719-8.167-23.747-3.256-22.031-18.926h0zm-40.021-4.415c0-1.986.443-3.918 3.321-3.918 1.993 0 2.436.497 3.931 1.931l18.322 22.843V7.595c0-1.821 1.605-3.807 3.487-3.807 1.993 0 3.93 1.986 3.93 3.807v31.064c0 2.427-1.494 3.365-2.934 3.806-1.937 0-2.878-.441-4.483-1.93l-18.322-23.174v21.298c0 2.427-1.495 3.806-3.488 3.806s-3.764-1.379-3.764-3.806V8.146zm-30.722 34.319a3.37 3.37 0 0 1-3.432-3.421V7.705c0-1.986 1.495-3.421 3.432-3.421h19.872c5.093 0 4.982 7.173 0 7.173h-15.941v8.276h13.948c4.927 0 4.927 7.228 0 7.228h-13.948v8.277h16.882c5.037 0 5.425 7.227 0 7.227h-20.813zM95.888 7.595c0-4.524 7.307-4.69 7.307 0V39.1c0 4.58-7.307 4.69-7.307 0V7.595zm-33.046 28.14h13.506c6.422 0 6.422-9.766 0-9.766H62.842v9.766zm11.68-24.719h-11.68v8.222h11.68c2.38 0 3.874-1.49 3.874-4.415 0-1.821-1.494-3.807-3.874-3.807h0zm-15.555 31.45c-1.993 0-3.377-1.489-3.377-3.421V7.705c0-1.986 1.384-3.421 3.377-3.421h15.555c7.251 0 11.181 4.911 11.181 10.539 0 2.483-.719 4.911-3.044 6.952 4.373 1.71 6.31 5.076 6.31 9.159 0 6.345-4.318 11.531-12.621 11.531H58.967z" mask="url(#B)"></path>
      <path d="M99.039 50.851l.761-1.152.64.294-.905.858h-.496zM43.361 18.59c-.18-2.076-.718-4.309-1.764-6.141.528.924.502 2.564.551 3.577.132 2.748-.355 5.532-1.555 8.022-1.845 3.832-5.245 6.479-9.031 8.266-2.405 1.135-5.099 1.768-7.69 2.382-2.08.492-4.183 1.063-5.977 2.217-2.914 1.875-3.746 4.43-3.393 7.047.715.283 1.448.531 2.196.741.088-.539.242-1.072.477-1.595 1.292-2.877 4.653-4.296 7.497-5.183 5.751-1.796 11.466-3.888 15.386-8.711 2.447-3.01 3.637-6.767 3.303-10.622h0zm184.671 34.676a2.09 2.09 0 0 0-.465-.703 2.15 2.15 0 0 0-.733-.469c-.289-.114-.609-.171-.962-.171h-1.314v4.401h1.314c.353 0 .673-.055.962-.166a2.1 2.1 0 0 0 .733-.465 2.11 2.11 0 0 0 .465-.695 2.26 2.26 0 0 0 .164-.866 2.3 2.3 0 0 0-.164-.866h0zm.604 1.95c-.144.342-.348.638-.613.887a2.92 2.92 0 0 1-.945.588c-.366.143-.768.214-1.206.214h-1.947v-5.561h1.947c.438 0 .84.07 1.206.211a2.84 2.84 0 0 1 .945.584 2.58 2.58 0 0 1 .613.882c.145.339.216.704.216 1.097a2.79 2.79 0 0 1-.216 1.099h0zm-7.812-.687c0 .408-.056.766-.168 1.073a2.1 2.1 0 0 1-.477.771 1.97 1.97 0 0 1-.737.465c-.285.104-.605.155-.958.155-.347 0-.664-.051-.949-.155a1.99 1.99 0 0 1-.737-.461c-.206-.203-.365-.457-.477-.759a2.97 2.97 0 0 1-.169-1.041v-3.233h.634v3.194c0 .603.15 1.067.452 1.39s.723.485 1.262.485c.518 0 .93-.153 1.234-.461s.457-.765.457-1.374v-3.233h.633v3.185zm-10.984-3.185h.633v4.981h3.157v.58h-3.79v-5.561zm-5.568.699l-1.282 2.836h2.555l-1.274-2.836zm2.86 4.862h-.681l-.657-1.469h-3.053l-.665 1.469h-.649l2.556-5.601h.593l2.555 5.601zm-11.28-3.819c.042.106.12.203.232.29s.267.167.465.239a5.56 5.56 0 0 0 .761.203c.625.138 1.085.329 1.382.573s.445.58.445 1.01c0 .239-.047.456-.142.652s-.226.363-.393.502-.368.244-.603.318-.491.111-.769.111c-.449 0-.859-.072-1.23-.215s-.726-.366-1.062-.667l.393-.461c.294.265.591.462.89.592s.643.194 1.034.194c.379 0 .682-.087.909-.262s.34-.406.34-.692a.91.91 0 0 0-.064-.354c-.043-.104-.118-.198-.226-.283s-.255-.161-.445-.231-.432-.135-.727-.199c-.321-.068-.601-.148-.839-.239s-.436-.198-.591-.326a1.19 1.19 0 0 1-.345-.446c-.075-.169-.112-.371-.112-.604 0-.222.045-.427.136-.613s.219-.346.385-.481.361-.241.585-.318a2.25 2.25 0 0 1 .738-.116 3.13 3.13 0 0 1 1.077.169c.307.112.605.281.894.507l-.369.484c-.262-.212-.526-.366-.79-.461s-.541-.143-.829-.143a1.59 1.59 0 0 0-.493.072c-.147.048-.272.111-.376.191s-.185.174-.241.286-.084.231-.084.358c0 .133.021.253.064.358h0zm-8.364-1.741h.617v5.561h-.505l-3.621-4.56v4.56h-.617v-5.561h.593l3.534 4.457v-4.457zm-7.042.573h-3.421v1.898h3.061v.573h-3.061v1.946h3.461v.572h-4.094v-5.561h4.054v.573zm-14.621-.573h.633v4.981h3.157v.58h-3.79v-5.561zm-5.569.699l-1.282 2.836h2.555l-1.274-2.836zm2.861 4.862h-.681l-.657-1.469h-3.053l-.665 1.469h-.649l2.555-5.601h.593l2.556 5.601zm-9.191-4.69c-.252-.193-.605-.291-1.061-.291h-1.735v2.264h1.727c.209 0 .401-.026.579-.08s.329-.129.458-.227.228-.219.301-.362a1.07 1.07 0 0 0 .109-.486c0-.352-.126-.624-.377-.818h0zm.434 4.69l-1.626-2.161h-1.603v2.161h-.633v-5.561h2.412c.309 0 .589.04.837.119s.461.192.637.338.312.321.409.524.144.431.144.68c0 .233-.037.442-.112.624s-.18.342-.316.477-.298.248-.485.338-.39.153-.609.19l1.722 2.271h-.777zm-7.855-.154c-.382.166-.811.25-1.286.25-.444 0-.84-.074-1.19-.222a2.66 2.66 0 0 1-.897-.612c-.249-.259-.438-.564-.569-.913s-.196-.723-.196-1.12a3 3 0 0 1 .204-1.097c.136-.35.327-.657.573-.921s.541-.476.885-.632a2.75 2.75 0 0 1 1.15-.234 4.03 4.03 0 0 1 .645.047 2.81 2.81 0 0 1 .545.143c.169.063.326.142.473.234s.289.198.428.314l-.409.477a2.78 2.78 0 0 0-.336-.258 2.22 2.22 0 0 0-.38-.198c-.136-.056-.286-.1-.449-.132s-.343-.047-.541-.047c-.309 0-.596.061-.857.183a2.07 2.07 0 0 0-.673.493 2.31 2.31 0 0 0-.441.728c-.107.279-.16.575-.16.887 0 .334.052.643.156.927a2.14 2.14 0 0 0 .445.736 2.02 2.02 0 0 0 .697.486 2.32 2.32 0 0 0 .921.175c.32 0 .622-.055.905-.164s.521-.24.713-.395v-1.388h-1.707v-.556h2.315v2.211c-.261.232-.583.432-.965.598h0zm-6.807-4.834h-3.42v1.898h3.06v.573h-3.06v1.946h3.461v.572h-4.094v-5.561h4.054v.573zm-8.733 4.988h-.633v-4.981h-1.882v-.58h4.399v.58h-1.883v4.981zm-5.92-5.561h.617v5.561h-.504l-3.622-4.56v4.56h-.617v-5.561h.593l3.534 4.457v-4.457zm-8.004 5.561h.633v-5.562h-.633v5.562zm-7.867-5.561h.617v5.561h-.505l-3.621-4.56v4.56h-.617v-5.561h.593l3.534 4.457v-4.457zm-16.416 5.561h.633v-5.562h-.633v5.562zm-3.217-.481c-.158.119-.327.221-.509.306s-.377.151-.585.198a3.13 3.13 0 0 1-.697.072c-.406 0-.78-.074-1.122-.222s-.638-.351-.889-.608a2.78 2.78 0 0 1-.589-.91c-.142-.35-.212-.726-.212-1.128s.071-.772.212-1.12a2.87 2.87 0 0 1 .589-.918c.251-.262.55-.468.897-.62a2.83 2.83 0 0 1 1.138-.226c.256 0 .487.02.693.063a2.86 2.86 0 0 1 .573.179c.176.077.339.169.489.278a4.26 4.26 0 0 1 .432.362l-.432.46a3.56 3.56 0 0 0-.773-.548c-.276-.143-.605-.214-.99-.214a2.11 2.11 0 0 0-.861.174 2.09 2.09 0 0 0-.689.485c-.195.206-.347.449-.457.727a2.44 2.44 0 0 0-.164.902 2.47 2.47 0 0 0 .164.905 2.24 2.24 0 0 0 .457.731 2.13 2.13 0 0 0 .689.488c.264.119.551.18.861.18.385 0 .715-.07.993-.211s.55-.338.817-.592l.417.405c-.144.148-.295.282-.453.401h0zm-8.16-5.08h.617v5.561h-.505l-3.621-4.56v4.56h-.617v-5.561h.593l3.534 4.457v-4.457zm-7.042.573h-3.421v1.898h3.061v.573h-3.061v1.946h3.461v.572h-4.094v-5.561h4.054v.573zm-8.733 4.988h-.633v-4.981H63.09v-.58h4.399v.58h-1.882v4.981zm-6.963-4.862l-1.281 2.836h2.555l-1.274-2.836zm2.861 4.862h-.681l-.657-1.469h-3.053l-.665 1.469h-.649l2.555-5.601h.593l2.555 5.601zm39.782-3.67c-.11-.28-.264-.524-.461-.731s-.431-.371-.701-.492a2.12 2.12 0 0 0-.885-.182c-.32 0-.615.059-.885.179a2.08 2.08 0 0 0-.693.488c-.192.207-.343.449-.453.727s-.164.576-.164.894.055.617.164.898.263.525.461.731.431.371.701.492a2.12 2.12 0 0 0 .885.183 2.16 2.16 0 0 0 .885-.18 2.07 2.07 0 0 0 .693-.488 2.29 2.29 0 0 0 .453-.727 2.43 2.43 0 0 0 .164-.893c0-.318-.055-.617-.164-.898h0zm.612 1.982c-.139.348-.334.653-.585.918s-.553.475-.905.631-.742.235-1.17.235-.815-.077-1.166-.23-.65-.362-.901-.624a2.77 2.77 0 0 1-.58-.913c-.136-.347-.204-.714-.204-1.1s.069-.753.208-1.1.334-.654.585-.918a2.78 2.78 0 0 1 .905-.632c.353-.156.742-.234 1.169-.234a2.88 2.88 0 0 1 1.166.229c.35.154.65.362.901.624s.445.567.581.914.204.713.204 1.1a2.93 2.93 0 0 1-.209 1.099h0z" opacity=".7"></path>
    </g>
  </g>
</svg>
