<?xml version="1.0" encoding="UTF-8"?>
<svg xmlns="http://www.w3.org/2000/svg" xmlns:xlink="http://www.w3.org/1999/xlink" xmlns:v="https://vecta.io/nano" width="270" height="71">
  <defs>
    <path id="A" d="M0 0h270v71H0z"></path>
  </defs>
  <g fill-rule="evenodd">
    <mask id="B" fill="#fff">
      <use xlink:href="#A"></use>
    </mask>
    <g fill="#fff">
      <path d="M258.639 31.891l11.042-14.758c.138-.185.157-.425.05-.627s-.32-.329-.556-.329h-.804c-.199 0-.388.093-.505.248L257.467 30.26l-10.354-13.833c-.117-.156-.306-.25-.506-.25h-.849c-.236 0-.449.126-.556.328s-.088.443.05.628l11.042 14.758-11.041 14.715a.58.58 0 0 0-.051.628c.107.203.32.329.556.329h.849c.2 0 .389-.093.506-.25l10.354-13.833 10.399 13.833c.117.156.306.249.505.249h.804c.236 0 .449-.126.556-.329s.088-.444-.05-.628l-11.041-14.715zm-56.814 13.8h-12.552V31.926h12.552c4.637 0 6.749 3.568 6.749 6.882 0 1.824-.603 3.516-1.698 4.765-1.214 1.385-2.961 2.117-5.051 2.117h0zm-12.552-16.106v-11.57h11.28c2.447 0 4.361 1.234 5.249 3.38.609 1.528.609 3.28.004 4.8-.892 2.155-2.807 3.39-5.253 3.39h-11.28zm15.412.855c1.308-.799 2.312-2.003 2.939-3.537.757-1.966.757-4.288-.003-6.214-1.189-2.925-3.765-4.602-7.068-4.602h-12.855c-.232 0-.42.182-.42.406v30.675c0 .224.188.406.42.406h14.127c5.487 0 8.3-3.961 8.654-7.887.34-3.767-1.554-7.956-5.794-9.247h0zM70.898 2.822v54.475c0 6.06-4.708 10.989-10.501 10.989H2.592V13.7c0-6.058 4.71-10.987 10.498-10.987h57.807v.109zm0-2.822H13.09C5.874 0 0 6.149 0 13.7v54.76V71h2.592 57.805c7.219 0 13.092-6.145 13.092-13.703V2.822 0h-2.591zm194.095 11.868h.527c.577 0 1.08-.17 1.08-.655 0-.388-.251-.655-1.004-.655a3.04 3.04 0 0 0-.603.049v1.261zm0 2.28h-.778v-4.05a8.34 8.34 0 0 1 1.456-.121c.703 0 1.055.121 1.331.315.251.17.427.485.427.849 0 .509-.376.825-.828.97v.049c.376.146.577.461.703.97.125.631.201.873.301 1.019h-.803c-.126-.146-.226-.509-.326-1.067-.101-.437-.377-.631-.979-.631h-.502v1.698zm.703-5.312c-1.807 0-3.188 1.431-3.188 3.177 0 1.795 1.381 3.201 3.239 3.201 1.807.024 3.138-1.407 3.138-3.177s-1.331-3.201-3.163-3.201h-.025zm.05-.679c2.259 0 4.042 1.698 4.042 3.856 0 2.207-1.783 3.905-4.067 3.905s-4.092-1.698-4.092-3.905c0-2.159 1.808-3.856 4.092-3.856h.025zm4.088 48.681c-.113-.357-.282-.668-.504-.925s-.514-.462-.855-.599-.728-.204-1.163-.204c-.588 0-1.131.136-1.613.403-.327.182-.63.407-.904.671l-.039-.605c-.037-.222-.197-.354-.427-.354h-.396a.21.21 0 0 0-.213.206v7.187a.21.21 0 0 0 .213.206h.718a.21.21 0 0 0 .213-.206v-5.333a3.57 3.57 0 0 1 1.02-.885 2.51 2.51 0 0 1 1.249-.329c.59 0 1.013.163 1.292.497.286.344.432.834.432 1.456v4.594a.21.21 0 0 0 .213.206h.718a.21.21 0 0 0 .213-.206v-4.594c0-.437-.056-.837-.166-1.187h0zm-9.187 4.1a8.02 8.02 0 0 1-.457.412 3.1 3.1 0 0 1-.542.362c-.191.1-.401.179-.624.234-.365.091-.837.133-1.241.013a1.12 1.12 0 0 1-.399-.209c-.112-.093-.204-.215-.273-.362s-.105-.329-.105-.539a.86.86 0 0 1 .195-.557c.138-.172.358-.325.656-.455.312-.136.72-.247 1.212-.328.446-.073.976-.124 1.579-.151v1.579zm.478-5.05c-.218-.253-.495-.45-.824-.585-.324-.133-.704-.201-1.13-.201-.572 0-1.093.104-1.548.308-.449.202-.882.502-1.287.894a.2.2 0 0 0-.033.25l.131.215c.04.062.09.114.146.151.164.115.412.113.679-.123a3.87 3.87 0 0 1 .403-.3c.16-.106.361-.206.597-.296.226-.086.507-.13.837-.13.519 0 .896.151 1.153.461.264.32.399.793.399 1.406v.551a13.04 13.04 0 0 0-1.993.2c-.617.119-1.133.281-1.533.481-.414.208-.726.46-.924.748a1.66 1.66 0 0 0-.304.959c0 .357.063.669.188.928s.296.479.506.646.447.29.711.37c.258.078.529.118.804.118.318 0 .616-.031.886-.092a3.57 3.57 0 0 0 .757-.262c.232-.112.457-.251.669-.413a7.29 7.29 0 0 0 .312-.252l.063.545c.059.228.235.359.484.359h.284a.21.21 0 0 0 .213-.206v-4.68a3.91 3.91 0 0 0-.158-1.146c-.108-.351-.271-.655-.486-.904h0zm-5.915 5.742c-.102-.124-.212-.15-.286-.15-.119 0-.218.073-.283.127-.054.045-.123.095-.209.149a1.75 1.75 0 0 1-.3.147 1.15 1.15 0 0 1-.715.008c-.095-.033-.175-.083-.245-.153s-.126-.162-.168-.276a1.28 1.28 0 0 1-.066-.44v-4.67h2.134a.21.21 0 0 0 .213-.206v-.513a.21.21 0 0 0-.213-.206h-2.134v-2.539a.21.21 0 0 0-.213-.206h-.337a.37.37 0 0 0-.288.122c-.054.061-.09.13-.111.236l-.167 2.393-1.086.074c-.112.008-.198.097-.198.205v.267a.35.35 0 0 0 .126.279.42.42 0 0 0 .273.093h.856v4.706c0 .618.163 1.088.486 1.396s.768.464 1.327.464a2.55 2.55 0 0 0 .993-.201c.318-.134.585-.315.795-.538.064-.068.073-.169.023-.247l-.209-.324zm-5.915-9.277a.89.89 0 0 0-.275-.181c-.215-.09-.466-.09-.679 0-.105.044-.197.105-.275.18a.86.86 0 0 0-.188.272c-.046.105-.069.216-.069.329a.77.77 0 0 0 .071.327.87.87 0 0 0 .186.259.88.88 0 0 0 .275.181c.106.045.221.068.34.068s.233-.023.34-.068.197-.105.274-.18a.95.95 0 0 0 .188-.255.74.74 0 0 0 .077-.332c0-.115-.025-.228-.075-.335-.049-.102-.112-.191-.189-.265h0zm-.255 2.872h-.711a.21.21 0 0 0-.213.206v7.187a.21.21 0 0 0 .213.206h.711a.21.21 0 0 0 .213-.206v-7.187a.21.21 0 0 0-.213-.206h0zm-3.247 3.877c-.207-.15-.447-.277-.713-.378a11.9 11.9 0 0 0-.773-.261l-.757-.231a3.31 3.31 0 0 1-.621-.257c-.166-.091-.302-.203-.404-.33-.09-.113-.135-.256-.135-.437a.93.93 0 0 1 .105-.433 1.13 1.13 0 0 1 .307-.369c.137-.109.306-.198.502-.264.424-.142 1.014-.121 1.368-.019a2.62 2.62 0 0 1 .486.186c.131.069.237.131.316.187.311.22.564.143.69-.07l.149-.238a.2.2 0 0 0-.037-.258 3.09 3.09 0 0 0-1.032-.62c-.373-.133-.804-.201-1.281-.201-.402 0-.771.058-1.097.171s-.611.27-.841.465a2.09 2.09 0 0 0-.543.689 1.87 1.87 0 0 0-.192.824c0 .334.07.621.208.851a1.91 1.91 0 0 0 .528.571 3.01 3.01 0 0 0 .712.374c.251.093.509.179.773.257l.756.23c.231.072.44.161.619.263.168.095.305.213.407.348.094.124.139.281.139.478 0 .189-.036.37-.108.54s-.175.313-.311.437-.315.226-.525.3-.469.114-.757.114c-.309 0-.568-.035-.771-.104a3.01 3.01 0 0 1-.533-.231c-.144-.083-.258-.16-.34-.228-.239-.201-.468-.197-.618-.106-.061.037-.113.088-.152.15l-.165.246a.2.2 0 0 0 .037.265c.315.274.676.498 1.073.667.405.172.889.259 1.44.259.442 0 .841-.063 1.187-.186s.648-.296.89-.511a2.16 2.16 0 0 0 .557-.774c.125-.293.188-.614.188-.952 0-.324-.07-.606-.208-.839a1.91 1.91 0 0 0-.524-.575h0zm-11.16-1.009a3.18 3.18 0 0 1 .219-.731 2.29 2.29 0 0 1 .491-.716c.199-.195.439-.347.714-.451a2.68 2.68 0 0 1 1.803-.005 1.88 1.88 0 0 1 .655.438 2 2 0 0 1 .43.705c.083.228.134.483.15.762h-4.462zm4.626-2.1c-.284-.287-.624-.509-1.009-.659s-.802-.225-1.246-.225c-.556 0-1.061.096-1.503.285s-.822.456-1.129.793-.539.738-.7 1.197-.239.957-.239 1.492c0 .631.085 1.201.253 1.693a3.59 3.59 0 0 0 .735 1.274c.319.349.707.619 1.153.801s.939.272 1.474.272c.291 0 .586-.028.875-.084s.559-.129.812-.222a3.66 3.66 0 0 0 .7-.342c.215-.137.391-.288.524-.448a.2.2 0 0 0-.001-.259l-.185-.219a.39.39 0 0 0-.325-.16c-.102 0-.212.048-.367.16a3.65 3.65 0 0 1-.419.251c-.173.091-.392.176-.651.251-.253.073-.559.11-.911.11-.388 0-.743-.065-1.053-.193s-.57-.317-.787-.567-.392-.576-.513-.957c-.117-.371-.179-.806-.185-1.294h5.2a.38.38 0 0 0 .319-.14c.06-.076.088-.185.088-.341 0-.528-.081-1.004-.241-1.416s-.387-.769-.67-1.056h0zm-6.799 5.341c-.156-.189-.412-.22-.687.03-.079.072-.193.154-.337.243s-.33.171-.555.247c-.217.074-.497.111-.83.111a2.41 2.41 0 0 1-.973-.191 2 2 0 0 1-.737-.553 2.63 2.63 0 0 1-.482-.916c-.116-.369-.174-.801-.174-1.284 0-.465.057-.888.168-1.257.109-.363.271-.674.481-.925s.464-.441.763-.574.656-.201 1.051-.201c.287 0 .531.03.726.088a2.8 2.8 0 0 1 .502.197c.134.071.24.137.314.194.236.181.424.174.56.072a.94.94 0 0 0 .11-.101l.188-.246c.064-.084.053-.201-.025-.272-.298-.271-.649-.489-1.045-.647s-.859-.24-1.368-.24c-.566 0-1.077.097-1.519.289a3.18 3.18 0 0 0-1.133.816c-.307.347-.542.765-.699 1.241-.155.47-.234.997-.234 1.565 0 .602.082 1.149.246 1.625.165.481.4.895.698 1.23s.667.598 1.086.776.881.267 1.382.267c.292 0 .577-.027.847-.08a3.96 3.96 0 0 0 .756-.226c.233-.097.446-.214.633-.349a2.36 2.36 0 0 0 .476-.445.2.2 0 0 0-.001-.252l-.188-.233zm-12.533-3.241a3.2 3.2 0 0 1 .219-.731c.123-.278.288-.519.491-.716s.439-.347.714-.451a2.68 2.68 0 0 1 1.803-.005 1.88 1.88 0 0 1 .655.438c.183.191.328.428.43.705.083.228.134.483.15.762h-4.461zm4.626-2.1c-.284-.287-.623-.509-1.009-.659s-.802-.225-1.246-.225c-.556 0-1.061.096-1.503.285s-.822.456-1.128.793-.539.738-.7 1.197c-.159.454-.239.956-.239 1.492 0 .632.085 1.202.254 1.693.17.499.417.928.734 1.274s.707.619 1.153.801.94.272 1.474.272c.291 0 .586-.028.875-.084s.56-.13.812-.222.49-.209.699-.342c.215-.137.391-.288.524-.448a.2.2 0 0 0-.001-.259l-.185-.219a.39.39 0 0 0-.324-.16c-.102 0-.212.048-.367.16-.1.073-.241.157-.419.251a3.52 3.52 0 0 1-.651.251c-.253.073-.559.11-.911.11-.388 0-.742-.065-1.053-.193-.306-.126-.57-.317-.787-.567s-.392-.576-.513-.957c-.117-.371-.179-.806-.185-1.294h5.199a.38.38 0 0 0 .319-.14c.06-.076.088-.185.088-.341 0-.528-.081-1.004-.241-1.416s-.386-.769-.67-1.056h0zm-7.99-.08c-.226-.26-.514-.462-.855-.6-.337-.135-.728-.204-1.163-.204-.588 0-1.13.136-1.612.403a4.33 4.33 0 0 0-.905.671l-.039-.604c-.036-.222-.196-.355-.427-.355h-.396a.21.21 0 0 0-.213.206v7.187a.21.21 0 0 0 .213.206h.718a.21.21 0 0 0 .213-.206v-5.333c.301-.374.643-.672 1.02-.885a2.51 2.51 0 0 1 1.249-.329c.59 0 1.013.163 1.292.497.286.344.431.834.431 1.456v4.594a.21.21 0 0 0 .213.206h.718a.21.21 0 0 0 .213-.206v-4.594a3.94 3.94 0 0 0-.166-1.187c-.112-.357-.282-.668-.504-.925h0zm-11.912 3.189c-.206-.15-.446-.277-.712-.378-.255-.096-.515-.184-.773-.261l-.757-.231c-.234-.073-.443-.159-.621-.257-.166-.092-.303-.203-.404-.33-.09-.113-.135-.256-.135-.437a.93.93 0 0 1 .105-.433c.071-.139.174-.263.307-.369a1.64 1.64 0 0 1 .503-.264 2.62 2.62 0 0 1 1.368-.019c.194.056.358.118.486.186a2.9 2.9 0 0 1 .315.187c.306.218.565.144.69-.07l.149-.238a.2.2 0 0 0-.037-.258c-.308-.277-.655-.486-1.032-.62s-.805-.201-1.281-.201c-.401 0-.77.058-1.097.171a2.65 2.65 0 0 0-.842.465 2.08 2.08 0 0 0-.543.689 1.87 1.87 0 0 0-.192.824c0 .334.07.62.208.851.134.223.312.415.528.571.209.15.449.276.713.374.251.093.509.179.772.257l.756.23a3.19 3.19 0 0 1 .619.263c.168.096.305.213.407.348.093.124.139.28.139.478a1.38 1.38 0 0 1-.108.54c-.07.166-.175.313-.311.437s-.314.225-.526.3-.469.114-.757.114c-.308 0-.567-.035-.77-.104a3.06 3.06 0 0 1-.534-.231c-.144-.083-.258-.16-.34-.228-.238-.2-.464-.197-.618-.106a.47.47 0 0 0-.152.15l-.165.246a.2.2 0 0 0 .037.265c.314.273.676.498 1.073.667.405.172.889.259 1.439.259.442 0 .842-.063 1.187-.186s.648-.296.89-.511a2.16 2.16 0 0 0 .557-.774c.125-.293.188-.614.188-.952 0-.324-.07-.606-.207-.839a1.91 1.91 0 0 0-.525-.576h0zm-7.014 1.169c-.101.359-.256.669-.459.921s-.453.439-.751.572-.663.201-1.073.201-.772-.068-1.074-.201-.551-.324-.751-.572-.359-.561-.463-.922c-.106-.368-.16-.788-.16-1.248s.054-.875.161-1.245c.104-.363.26-.676.464-.929a2.01 2.01 0 0 1 .751-.579c.301-.136.662-.204 1.073-.204s.771.069 1.072.204.552.329.752.579.359.567.46.928c.104.371.157.79.157 1.246s-.053.881-.157 1.249h0zm.374-4.079a3.13 3.13 0 0 0-1.142-.802c-.446-.186-.956-.281-1.516-.281s-1.07.094-1.517.281-.834.457-1.145.801-.548.759-.708 1.239c-.158.473-.238 1.008-.238 1.591s.08 1.117.238 1.587c.16.477.398.893.708 1.235a3.14 3.14 0 0 0 1.146.798c.446.184.956.276 1.516.276s1.069-.093 1.515-.276.834-.454 1.143-.799.543-.757.703-1.234c.159-.471.239-1.005.239-1.587s-.08-1.117-.238-1.591-.396-.895-.703-1.238h0zm-8.431-.279c-.226-.26-.513-.462-.855-.6-.337-.135-.728-.204-1.163-.204-.588 0-1.131.136-1.613.403-.327.182-.63.407-.904.671l-.038-.605c-.037-.222-.197-.354-.427-.354h-.396a.21.21 0 0 0-.213.206v7.187a.21.21 0 0 0 .213.206h.718a.21.21 0 0 0 .213-.206v-5.333c.3-.374.643-.672 1.02-.885a2.51 2.51 0 0 1 1.249-.329c.59 0 1.013.163 1.292.497.286.344.431.834.431 1.456v4.594a.21.21 0 0 0 .213.206h.718a.21.21 0 0 0 .213-.206v-4.594c0-.437-.056-.837-.166-1.187-.113-.357-.282-.668-.504-.925h0zm-16.717 2.18c.048-.265.121-.51.219-.731.123-.278.288-.519.49-.716a2.06 2.06 0 0 1 .715-.452 2.68 2.68 0 0 1 1.803-.005 1.87 1.87 0 0 1 .654.438c.184.191.329.428.43.705.083.228.134.483.15.762h-4.462zm4.626-2.1a2.88 2.88 0 0 0-1.009-.659c-.383-.149-.802-.225-1.246-.225a3.8 3.8 0 0 0-1.503.285c-.442.189-.822.456-1.129.793s-.539.738-.7 1.197a4.53 4.53 0 0 0-.239 1.492c0 .631.085 1.201.253 1.693.17.498.417.927.734 1.275s.708.619 1.154.801a3.89 3.89 0 0 0 1.474.272c.291 0 .586-.028.875-.084s.56-.13.812-.222a3.66 3.66 0 0 0 .7-.342c.215-.137.391-.288.524-.449a.2.2 0 0 0-.001-.258l-.185-.219a.39.39 0 0 0-.324-.16c-.103 0-.213.048-.367.16-.1.072-.241.157-.42.251-.173.091-.391.175-.65.251-.253.073-.559.11-.911.11a2.75 2.75 0 0 1-1.053-.193c-.306-.126-.571-.317-.787-.567s-.392-.576-.513-.957c-.117-.37-.179-.805-.185-1.294h5.2c.175 0 .271-.077.32-.141.059-.077.087-.185.087-.34 0-.528-.081-1.004-.241-1.416s-.387-.769-.67-1.056h0zm-8.539 4.698a3.36 3.36 0 0 1-.97.922 2.32 2.32 0 0 1-1.225.337c-.705 0-1.226-.221-1.593-.676-.374-.463-.564-1.214-.564-2.231 0-.451.054-.869.161-1.242a2.72 2.72 0 0 1 .465-.941c.201-.254.452-.454.749-.593s.654-.211 1.059-.211a2.47 2.47 0 0 1 1.089.231c.298.144.576.398.829.753v3.651zm.923-8.788h-.71a.21.21 0 0 0-.213.206v3.725a2.81 2.81 0 0 0-.656-.442c-.398-.192-.87-.289-1.404-.289-.554 0-1.052.105-1.482.311s-.793.49-1.086.848-.512.776-.661 1.253c-.147.471-.222.986-.222 1.53 0 1.266.272 2.235.81 2.881.548.66 1.323.994 2.304.994.585 0 1.12-.139 1.59-.412.313-.182.602-.41.863-.679l.042.635c.037.227.199.362.435.362h.389a.21.21 0 0 0 .213-.206V52.11a.21.21 0 0 0-.213-.206h0zm-8.613 4.01c-.226-.26-.514-.462-.855-.6-.337-.135-.728-.204-1.163-.204-.588 0-1.131.136-1.612.403-.328.182-.63.407-.905.671l-.039-.604c-.037-.222-.196-.355-.427-.355h-.396a.21.21 0 0 0-.213.206v7.187a.21.21 0 0 0 .213.206h.718a.21.21 0 0 0 .213-.206v-5.333c.301-.375.643-.672 1.02-.885a2.51 2.51 0 0 1 1.249-.329c.59 0 1.013.163 1.292.498.286.343.432.833.432 1.456v4.594a.21.21 0 0 0 .213.206h.718a.21.21 0 0 0 .213-.206v-4.594c0-.437-.056-.837-.166-1.187-.113-.357-.282-.668-.504-.925h0zm-8.511 4.358c-.101.359-.256.669-.459.921s-.453.439-.751.572-.663.201-1.074.201-.772-.068-1.074-.201a2 2 0 0 1-.751-.572c-.203-.251-.359-.561-.463-.922-.106-.368-.16-.788-.16-1.248s.054-.875.161-1.245c.104-.363.26-.676.463-.929a2.02 2.02 0 0 1 .752-.579c.301-.136.662-.204 1.072-.204s.771.069 1.073.204a2.01 2.01 0 0 1 .751.579c.204.254.359.567.46.928.104.37.157.789.157 1.246s-.053.882-.157 1.249h0zm.374-4.079c-.309-.345-.693-.614-1.142-.802a3.92 3.92 0 0 0-1.516-.281c-.56 0-1.07.094-1.516.281s-.834.457-1.146.801-.547.76-.708 1.239c-.158.473-.238 1.008-.238 1.591s.08 1.117.238 1.587a3.47 3.47 0 0 0 .707 1.235c.311.345.697.613 1.146.798s.955.276 1.515.276 1.07-.093 1.516-.276.834-.454 1.143-.799.543-.757.703-1.234c.159-.471.239-1.005.239-1.587s-.08-1.117-.238-1.591c-.16-.479-.397-.896-.704-1.238h0zm-8.979 4.499c-.283.393-.609.703-.97.922-.367.223-.779.337-1.225.337-.705 0-1.226-.221-1.592-.676-.375-.464-.565-1.215-.565-2.231 0-.451.054-.869.161-1.242a2.72 2.72 0 0 1 .465-.942c.2-.254.452-.454.749-.593s.654-.21 1.058-.21.774.078 1.089.231c.297.144.575.398.829.753v3.651zm.924-8.788h-.711a.21.21 0 0 0-.213.206v3.725a2.82 2.82 0 0 0-.656-.442c-.398-.192-.87-.289-1.403-.289-.554 0-1.052.105-1.482.311a3.16 3.16 0 0 0-1.085.848c-.29.354-.512.775-.662 1.253s-.222.987-.222 1.529c0 1.266.272 2.235.809 2.881.549.66 1.324.994 2.305.994.585 0 1.12-.139 1.591-.412.313-.182.602-.409.863-.679l.042.635c.036.227.198.363.435.363h.389a.21.21 0 0 0 .213-.206V52.11a.21.21 0 0 0-.213-.206h0zm-12.302 7.199c-.206-.15-.446-.277-.712-.378a11.92 11.92 0 0 0-.773-.261l-.757-.231c-.234-.073-.443-.159-.62-.257-.167-.092-.303-.203-.404-.33-.09-.113-.135-.256-.135-.437a.93.93 0 0 1 .105-.433 1.13 1.13 0 0 1 .307-.369 1.64 1.64 0 0 1 .503-.264 2.62 2.62 0 0 1 1.368-.019 2.65 2.65 0 0 1 .486.186c.132.069.237.131.315.187.305.218.565.144.69-.07l.149-.238a.2.2 0 0 0-.037-.258 3.09 3.09 0 0 0-1.032-.62c-.373-.133-.804-.201-1.281-.201-.402 0-.77.058-1.097.171a2.66 2.66 0 0 0-.841.465 2.09 2.09 0 0 0-.543.689 1.87 1.87 0 0 0-.192.824c0 .334.07.62.208.851a1.92 1.92 0 0 0 .528.571c.208.15.448.276.712.374a12.25 12.25 0 0 0 .772.257l.757.23a3.16 3.16 0 0 1 .619.263c.168.096.305.213.407.348.093.124.139.28.139.478a1.38 1.38 0 0 1-.108.54c-.07.166-.175.313-.311.437s-.315.226-.525.3-.469.114-.757.114c-.308 0-.567-.035-.77-.104a3.06 3.06 0 0 1-.533-.231c-.144-.083-.258-.16-.34-.228-.238-.2-.464-.197-.619-.106a.47.47 0 0 0-.152.15l-.165.246a.2.2 0 0 0 .036.265c.314.273.675.498 1.074.667.404.172.888.259 1.439.259.443 0 .842-.063 1.188-.186s.648-.296.889-.511.431-.477.557-.774a2.41 2.41 0 0 0 .188-.953c0-.324-.07-.607-.208-.839a1.91 1.91 0 0 0-.525-.576h0zm-7.014 1.168c-.102.359-.256.669-.459.921s-.453.439-.751.572-.664.201-1.074.201-.772-.068-1.074-.201a1.99 1.99 0 0 1-.751-.572c-.203-.252-.36-.562-.463-.922-.106-.368-.16-.788-.16-1.248s.054-.875.16-1.245c.104-.362.26-.675.464-.93.199-.249.452-.444.751-.579s.662-.204 1.073-.204.771.069 1.073.204.551.33.751.579c.204.254.358.567.46.928.104.371.157.79.157 1.246s-.053.881-.157 1.249h0zm.374-4.079c-.309-.345-.693-.614-1.142-.802a3.92 3.92 0 0 0-1.516-.281 3.92 3.92 0 0 0-1.516.281c-.449.187-.834.457-1.145.801a3.47 3.47 0 0 0-.708 1.239c-.158.473-.238 1.008-.238 1.591s.08 1.118.239 1.587c.16.478.398.893.707 1.235a3.14 3.14 0 0 0 1.146.798c.446.184.956.276 1.516.276s1.07-.093 1.516-.276.833-.454 1.143-.799.543-.757.703-1.234c.158-.47.238-1.004.238-1.587s-.08-1.118-.238-1.591c-.161-.479-.397-.895-.704-1.238h0zm-8.455-.31c-.225-.255-.504-.45-.828-.58-.543-.217-1.253-.259-1.893-.084a2.51 2.51 0 0 0-.749.344 2.55 2.55 0 0 0-.607.586 2.42 2.42 0 0 0-.174.269 2.28 2.28 0 0 0-.545-.796c-.366-.34-.854-.513-1.452-.513-.51 0-.975.136-1.383.404-.25.164-.483.362-.697.591l-.034-.525c-.036-.222-.196-.355-.427-.355h-.396a.21.21 0 0 0-.213.206v7.187a.21.21 0 0 0 .213.206h.718a.21.21 0 0 0 .213-.206v-5.385c.245-.361.523-.647.828-.852.311-.208.638-.31 1-.31.486 0 .842.155 1.089.473.257.333.387.831.387 1.48v4.594a.21.21 0 0 0 .213.206h.718a.21.21 0 0 0 .213-.206v-4.594c0-.329.049-.62.147-.865s.227-.446.388-.606a1.6 1.6 0 0 1 .554-.36 1.84 1.84 0 0 1 .665-.123c.521 0 .907.156 1.181.478.28.329.422.825.422 1.476v4.594a.21.21 0 0 0 .213.206h.711a.21.21 0 0 0 .213-.206v-4.594c0-.452-.058-.862-.174-1.218a2.59 2.59 0 0 0-.513-.924h0zm-12.472 5.056a8.08 8.08 0 0 1-.456.412 3.09 3.09 0 0 1-.543.362c-.191.1-.401.179-.624.234-.365.091-.836.132-1.241.013a1.12 1.12 0 0 1-.399-.209 1.03 1.03 0 0 1-.273-.362c-.069-.148-.104-.329-.104-.54a.86.86 0 0 1 .195-.557c.138-.172.358-.325.656-.455.312-.136.72-.247 1.211-.328a13.65 13.65 0 0 1 1.579-.151v1.579zm.478-5.05a2.16 2.16 0 0 0-.824-.585c-.324-.133-.705-.201-1.13-.201-.572 0-1.092.104-1.548.308-.45.202-.883.503-1.287.894a.2.2 0 0 0-.033.25l.131.215c.04.062.09.114.146.151.164.115.411.113.68-.123.102-.09.237-.191.403-.3.161-.106.362-.206.598-.296.226-.086.507-.13.837-.13.52 0 .897.151 1.153.461.264.319.398.793.398 1.406v.551c-.763.025-1.433.093-1.992.2-.618.119-1.134.281-1.534.481-.414.208-.725.459-.924.748-.202.294-.305.616-.305.959 0 .356.063.668.188.928a1.83 1.83 0 0 0 .506.646c.208.166.448.29.711.37.258.078.529.118.804.118.319 0 .617-.031.886-.092a3.57 3.57 0 0 0 .757-.262c.232-.112.458-.251.669-.413a7.42 7.42 0 0 0 .312-.252l.063.545c.059.228.235.359.483.359h.284a.21.21 0 0 0 .213-.206v-4.68c0-.418-.053-.803-.158-1.146-.108-.351-.271-.655-.485-.904h0zm-5.915 5.742c-.102-.124-.212-.15-.286-.15-.119 0-.219.073-.282.127-.054.045-.124.095-.209.149s-.182.101-.299.147c-.186.073-.487.088-.715.008-.095-.033-.175-.083-.245-.152a.74.74 0 0 1-.169-.276c-.044-.119-.066-.267-.066-.44v-4.67h2.134a.21.21 0 0 0 .213-.206v-.513a.21.21 0 0 0-.213-.206h-2.134v-2.539a.21.21 0 0 0-.213-.206h-.337a.37.37 0 0 0-.288.122c-.053.059-.088.128-.111.236l-.167 2.393-1.086.074c-.112.008-.198.097-.198.205v.267a.35.35 0 0 0 .126.279.42.42 0 0 0 .274.093h.856v4.706c0 .618.163 1.088.485 1.396s.768.464 1.328.464c.342 0 .676-.068.994-.201s.585-.315.794-.538a.2.2 0 0 0 .023-.247l-.209-.323zm-6.09-2.528c-.207-.15-.447-.277-.713-.378a11.92 11.92 0 0 0-.773-.261l-.757-.231a3.29 3.29 0 0 1-.621-.257c-.167-.092-.303-.203-.404-.33-.09-.113-.135-.256-.135-.437a.93.93 0 0 1 .105-.433 1.13 1.13 0 0 1 .307-.369c.137-.109.306-.198.502-.264.423-.142 1.013-.121 1.368-.019a2.62 2.62 0 0 1 .486.186c.131.069.237.131.315.187.304.218.564.144.691-.07l.149-.238c.052-.084.037-.191-.037-.258-.308-.277-.656-.486-1.032-.62s-.805-.201-1.281-.201c-.401 0-.77.058-1.097.171a2.66 2.66 0 0 0-.841.465 2.09 2.09 0 0 0-.543.689 1.87 1.87 0 0 0-.192.824c0 .334.07.62.208.851.134.224.312.416.528.571.209.15.448.276.712.374.251.093.509.179.773.257l.756.23a3.16 3.16 0 0 1 .619.263c.168.096.305.213.407.349.093.123.139.28.139.478 0 .189-.036.371-.108.54s-.173.312-.311.437-.315.226-.525.3-.469.114-.757.114c-.309 0-.568-.035-.771-.104a3.06 3.06 0 0 1-.533-.231 2.44 2.44 0 0 1-.34-.229c-.241-.2-.468-.195-.618-.106-.061.036-.113.088-.153.15l-.165.246c-.057.085-.041.197.036.265.315.274.676.498 1.074.667.404.172.888.259 1.439.259.443 0 .842-.063 1.188-.186s.648-.296.89-.511a2.16 2.16 0 0 0 .557-.774c.125-.293.188-.614.188-.952 0-.324-.069-.607-.207-.839a1.91 1.91 0 0 0-.524-.575h0zm-5.739 2.696h-5.372v-3.85h4.423a.21.21 0 0 0 .213-.206v-.599a.21.21 0 0 0-.213-.206h-4.423v-3.72h5.357a.21.21 0 0 0 .213-.206v-.614a.21.21 0 0 0-.213-.206h-6.34a.21.21 0 0 0-.213.206v10.22a.21.21 0 0 0 .213.206h6.34a.21.21 0 0 0 .213-.201l.015-.614c.001-.055-.021-.109-.061-.149s-.095-.062-.152-.062h0zm155.333-29.99c0 3.784-1.511 7.352-4.254 10.045-2.779 2.729-6.468 4.231-10.388 4.231a14.68 14.68 0 0 1-10.342-4.231c-2.772-2.722-4.299-6.29-4.299-10.045s1.527-7.323 4.299-10.045a14.68 14.68 0 0 1 10.342-4.231c3.919 0 7.608 1.503 10.388 4.231 2.743 2.694 4.254 6.261 4.254 10.046h0zm-2.85-11.432c-3.138-3.078-7.325-4.773-11.792-4.773-4.42 0-8.702 1.741-11.747 4.773-3.153 3.094-4.89 7.154-4.89 11.432s1.737 8.337 4.888 11.429c3.046 3.035 7.328 4.775 11.749 4.775 4.467 0 8.654-1.695 11.792-4.773 3.154-3.095 4.89-7.154 4.89-11.431s-1.737-8.337-4.89-11.432h0z" mask="url(#B)"></path>
      <path d="M16.535 10.596h46.007v43.472c0 3.491-2.671 6.332-5.954 6.332H10.58V16.927c0-3.491 2.671-6.331 5.955-6.331h0zM8 16.927V63h48.587c4.707 0 8.537-4.007 8.537-8.932V8h-48.59C11.829 8 8 12.005 8 16.927h0zM158.081 38.05V16.058h4.719v22.038c0 3.463 3.84 5.172 7.263 5.172 3.377 0 7.217-1.754 7.217-5.217V16.058H182v22.038c0 6.386-6.384 9.715-11.936 9.715-5.691 0-11.983-3.328-11.983-9.76h0zm-16.331 4.902h15.221v4.542h-19.894V16.058h4.672v26.895zm-42.513-18.8c-.648-2.833-3.794-4.048-6.616-4.003-2.174.045-4.58.765-5.875 2.384-.648.81-.879 1.844-.787 2.923.231 3.238 3.886 3.643 7.356 3.958 4.441.54 9.947 1.664 11.196 6.701.139.675.231 1.439.231 2.069 0 6.072-6.199 9.58-12.029 9.58-4.996 0-11.057-2.878-11.658-8.5l-.046-.855 4.719-.09.046.675v-.18c.324 2.923 3.979 4.453 6.986 4.453 3.47 0 7.264-1.889 7.264-5.127 0-.315-.046-.675-.139-1.079-.555-2.384-3.886-2.789-7.125-3.103-5.043-.495-10.965-1.574-11.474-8.14v.045c-.185-2.114.37-4.228 1.758-5.982 2.175-2.743 6.061-4.183 9.808-4.183 4.996 0 10.178 2.519 11.011 8.275l-4.626.18zm17.394 9.805h8.05l-3.979-11.109-4.071 11.109zm9.854 4.273h-11.613l-3.886 9.265h-5.043l13-31.887h3.423l13 31.887h-4.996l-3.886-9.265z"></path>
    </g>
  </g>
</svg>
