<?xml version="1.0" encoding="UTF-8"?>
<svg xmlns="http://www.w3.org/2000/svg" xmlns:xlink="http://www.w3.org/1999/xlink" xmlns:v="https://vecta.io/nano" viewBox="937.103 618.103 963.794 528.903" width="1285.059" height="705.204">
  <style><![CDATA[.B{fill-rule:evenodd}.C{stroke-width:3.794}.D{stroke-linecap:round}.E{stroke-linejoin:round}]]></style>
  <path d="M1822.189 923.273c-.255-.732-.377-2.497-.328-3.296s.548-2.254-.177-2.952c-.369-.354-1.959-.707-1.837-.001-.65-.082-.685-.865-.95-1.314-.355-.601-.957-1.097-1.335-1.706-.724-1.165-2.265-2.115-3.632-1.886-.742.124-1.683 1.012-2.416 1.32-.908.381-1.51.338-2.483.261-1.009-.08-.268-.344-.966.105-.349.223-4.14 2.115-4.141 2.089-1.2.084-8.453-1.544-9.09-1.723-1.46-.412-2.384-.449-3.88-.464-1.243-.012-2.004-.314-3.274.273-.715.331-1.231.99-1.947 1.166-.997.246-2.107-.403-3.15-.354-1.392.065-2.552.703-3.862.992-1.472.325-1.892 1.373-2.987 2.275-1.005.828-2.462.948-3.654 1.351-5.464 1.847-11.166 2.566-16.833 3.644-2.797.531-5.675.736-8.35 1.879-1.023.437-1.674 1.024-2.554 1.633-.982.679-2.212.669-3.197 1.251-.74.438-1.302.977-2.092 1.405-1.002.544-1.851 1.286-2.725 2.004-1.167.96-1.537 1.879-1.9 3.336-.323 1.301-.816 3.984-1.303 4.938-.471.923-.206 1.61-.234 2.641-.034 1.315-.709 2.564-.596 3.877.106 1.225.718 2.35.652 3.558-.12 2.21-.45 4.279-.236 6.413.103 1.018-.109 1.48.331 2.455.2.442.732 1.294.728 1.748-.021 2.217-2.841 3.525-4.192 4.93-.974 1.012-1.76 2.653-1.692 4.037.028.581.21.964.181 1.578-.044.957-.029 1.854-.02 2.826.011 1.17-.034 2.928-.365 4.056-.408 1.387-1.517 1.705-2.461 2.571-.841.771-1.237 1.917-2.059 2.706-.965.929-2.07 1.487-3.157 2.231-1.418.971-2.205 2.296-3.832 3.005-.989.431-1.933.912-2.89 1.428-1.803.973-3.238 2.13-4.095 3.895 1.596.938 3.118.692 3.905.804.499.071.433-.425 1.139-.387.494.026 1.314 1.09 1.369 1.556.067.574.19 2.853-.069 2.948-.187.068-1.183 1.053-1.981 1.491-.67.368-1.356.306-2.075.626-.87.385-2.642 1.252-2.431 2.388.469-.079-.405.421-1.169.468-.614.037-1.127-.05-1.708-.102-.92-.08-1.741-.362-2.707-.572-.149-.032-.931-.362-1.046-.218-.367.458-2.274-1.037-1.73-.993.046-.937.191-2.044.14-2.454-.05-.404-.623-.529-1.002-.814-.649-.49-.781-1.291-1.357-1.765-.82-.674-1.248-.181-2.089.053-1.9.529-3.959 1.111-5.923 1.105-1.712-.005-3.02.288-4.584.766-1.035.309-2.007.959-3.048 1.212-.683.165-2.36-.154-2.496.558-.083.433-2.123 2.257-2.357 2.472-.99.912-2.028 1.688-3.32 2.127-1.222.416-3.877-.173-4.858.516-1.045.733-8.295-.08-11.527.98-1.114.366-6.658 3.88-6.49 3.456-.552.071-1.56.624-2.102.842-.838.336-1.507.862-2.35 1.213-1.497.622-1.792 1.064-2.621.952-.784-.105-2.204.856-2.988 1.061-1.798.466-4.47 1.351-6.27.658-1.754-.675-1.571-2.142-2.483-3.455-.765-1.101-2.082-1.688-2.842-2.835-.682-1.025-.681-2.663-1.817-3.301-1.151-.647-3.097-.123-4.417-.48-1.502-.407-1.617-1.581-2.944-2.431-1.406-.9-2.382-1.715-4.153-1.724-1.332-.007-2.58.355-3.908.428-1.261.07-2.636-.016-3.884-.22-.9-.147-1.809-.378-2.593-.855-.474-.288-.882-.886-1.392-1.087-1.304 1.466-.94-.164-2.546-.863-1.076-.468-1.648-.878-2.312-1.851-.387-.568-.662-1.107-.856-1.755-.156-.522-.069-1.823-.436-2.192-.562-.568-1.164-.002-1.912-.29-1.076-.415-1.091-1.635-1.372-2.508-.064-.199-.371-.825-.449-.96-.453-.782.027-.398-.696-.895.013.01-.846-.249-1.005-.345-.434-.259-.935-.682-1.374-.98-1.706-1.156-2.025-2.715-2.19-4.439-.088-.915-.374-.978-.955-1.783-.673-.933-1-2.373-1.275-3.492-.511-2.077-.398-4.156-1.802-6.026-.57-.758-1.372-1.293-1.938-2.062-.761-1.032-1.322-1.948-2.205-2.89-1.427-1.523-2.289-3.269-3.803-4.743-1.581-1.539-3.088-2.781-4.402-4.638-1.107-1.564-2.853-2.378-4.095-3.906-1.216-1.498-2.452-2.938-2.758-4.742-.008-.055.053-.78-.162-1.252-.179-.393-.374-.71-.585-1.079-.608-1.062-1.343-2.075-1.927-3.14-.835-1.522-1.718-3.151-2.386-4.776-.295-.719-.381-1.429-.632-2.151-.093-.268-.096-.583-.239-.834-.127-.222-.443-.032-.58-.252-.391-.633-.709-1.461-1.099-2.144a7.84 7.84 0 0 1-.752-1.825c-.098-.389-.815-1.73-1.347-1.852-1.28-.291-2.233-3.049-2.828-4.112-1.022-1.823-1.524-4.477-1.572-6.465-.024-.998.305-1.342 1.173-.972-1.144-1.765-2.356-3.641-3.056-5.639-.532-1.519.016-3.262-.679-4.674-.502-.992-.684-1.87-.888-2.956-.23-1.225-.839-2.433-.888-3.684-.02-.532.767-3.505.065-3.654-.117-.024-.412-1.946-.08-2.267.418-.405.552-.671.82-1.222.439-.901 1.084-2.129 1.044-1.465.421-1.896.346-4.045.012-5.949-.509-2.897-.821-5.655-.803-8.612.012-2.074.092-4.139.269-6.204.063-.727-.505-4.155-.022-4.67.285-.305.064-1.596.06-1.941l-.013-5.789c.15-6.508.944-12.861 2.221-19.224 1.06-5.278 2.125-10.125 4.66-14.904 1.226-2.311 2.388-4.644 3.198-7.005.388-1.129.744-2.3 1.107-3.429.472-1.466.17-2.77.313-4.292.104-1.11.469-2.191.391-3.316-.569-.055-1 .264-1.548.336-.255.034-1.159-.169-1.286-.113-.423.186-.191.52-.584.819-.847.643-1.453.088-1.755 1.043-.207.652-1.023 1.028-1.151.999-.132.091-1.095-.027-1.134-.281-.028-.45-.33-.521-.907-.215-.372-.145-.669-.363-1.056-.595-1.375-.826-1.985-2.041-3.193-2.846-.658-.438-1.251-.391-2.04-.343-.38.023-.869.023-1.221-.087-.09-.161-.115-.339-.075-.537-.206-.141-.401-.12-.585.064-1.055-.317-2.741.245-3.896.247-.419.001-1.25-.149-1.618-.037-.345.105-.334.838-.987.654-.645-.181-.179-.928-1.254-.896-.252-.033-.422.087-.509.36-.309.111-.567.04-.774-.213-.244.099-.88.031-.968-.127-.755-.125-1.488-.138-2.183-.621-.389-.269-.552-.721-.905-.992-.54-.416-.783-.064-1.339-.384-.095-.371.331-.581.192-.967-.762-.203-2.106-1.377-2.429-.207-.297-.105-.647-.405-.975-.544-.158-.18-.347-.308-.568-.385-.205-.171-.389-.126-.551.134-.401-.106-.391-.416-.816-.382-.269.021-.902.272-1.128.271-.485-.003-1.568-.243-1.918-.559-.137-.123.339-.422.275-.462-.23-.146-.739-.234-1.16-.376.005-.005.315-.499.299-.512a16.68 16.68 0 0 0-1.388-.857c-.589-.244-.409-.163-1.06-.244-.495-.062-1.235.214-1.807-.022-.219-.09-.366-.474-.553-.521-.515-.129-.168.242-.608.262-.003-.002-.409-.624-.465-.616-.112.023-.72.15-.567.17.552.075-.72.229-.593.214-.225.027-.382-.494-.608-.514-.426-.039-.674.499-1.069.409-1.349-.306-.209-1.6-.322-2.301-.2-1.239-1.829-.981-2.218-2.14-.152-.453.008-.932-.076-1.344-.103-.507-.399-.869-.592-1.397-.516-1.417-.784-2.807-1.732-4.077-.478-.639-.895-1.055-1.26-1.757-.494-.952-1.309-1.08-1.849-1.934-.162-.256.098-.681-.11-.962-.123-.166-.754-.253-.754-.253-.459-.717-.624-1.847-.821-2.668-.259-1.08-.066-1.778-.064-2.833.001-.906-.51-1.044-.764-1.631-.346-.799-.486-2.224-.573-3.09-.056-.557.22-1.646.009-2.172-.293-.727-.522-.32-.878-.863s.212-1.43-.042-2.029c-.367-.862-1.15-.868-1.755-1.186-.268-.139-.25-.506-.601-.662-.147-.066-.617.374-.71.346-.653-.196-2.035-.898-.887-.667-1.786-1.377-3.485-2.868-5.122-4.418-.036-.698-.568-.438-.687-.864-.145-.519.264-.787-.071-1.322-.236-.374-.921-.394-1.162-.826-.179-.322.155-.856-.14-1.164-.258-.268-1.02.108-1.518-.417-.513-.542-.093-1.158-.365-1.61-.209-.346-.707-.305-.942-.602-.228-.287-.191-.839-.4-1.171-.721-1.148-2.09-.88-3.03-1.639-.274-.221-.385-.627-.661-.915-.429-.45-1.05-.652-1.461-1.424-.548-1.031-1.424-2.003-1.816-3.162-.046-.136-.77-2.033-.762-2.084.076-.499.026-.739-.213-.959-.377-.347-.615-.564-.862-1.027-.149-.282.122-.727-.099-1.012-.232-.301-.716-.217-.972-.469-.379-.375.08-.489-.143-.8s-.7-.469-.934-.81c-.484-.708-.747-1.828-1.081-2.651-.899-2.215-2.166-4.317-3.306-6.589-.276-.55-.329-1.395-.676-1.89-.465-.664-.389-.305-.834-.657-.628-.496-1.51-.972-1.873-1.618-.238-.421-.059-.939-.376-1.436-.176-.276-.586-.645-.874-.819-.79-.479-1.214-.573-1.962-1.208-.666-.564-1.369-.71-2.134-1.107-.502-.26-.984-.493-1.256-1.025-.202-.393.003-.851-.192-1.212-.65-1.204-1.825-.633-2.83-1.242-.41-.248-.589-.69-.995-.935-.302-.182-.783-.034-1.013-.289-.484-.535.361-1.555-.367-1.96-.762-.423-1.708-.784-1.813-.899-.355-.39-1.094-.053-1.588-.637s-1.104-1.985-1.1-2.548c-.202.011-.672.316-.815.239.112.061-.92-.361-.766-.513-.366.118-.596.463-.987.523-1.112.173-.306-.309-.634-.797-.51-.762-.035-.194-.666.234-.417.283-.419.452-1.09.56-.776.124-1.481-.012-2.283-.104-.479-.055-1.801-.096-2.084-.164-.527-.127-.524-.566-1.076-.501-.065.448-1.547.374-2.201.404-.579.028-.868-.476-1.396-.475.055 0-.835.338-.896.358-.35.114-.807.262-1.175.286-.566.038-1.193-.09-1.727-.269-.621-.209-1.133-.668-1.656-.853-.258-.091-.709-.027-.99-.083-.384-.077-.139-.404-.419-.606-.291.448-1.107-.403-1.734-.228.217-.061-.785.841-.686.68-.392.632-.134.858-.358 1.583-.338 1.091-.738.886-1.777.8-.55-.047-1.234-.286-1.762-.034-.13.062-.075.553-.565.728-.457.164-.338-.333-.902-.268.253-.03-1.028.545-.982.527-1.172.44-1.428-.052-1.897 1.158-.219.564-.191.755-.436 1.167-.204.344-.555.665-.733 1.003-.139.264-.025.63-.129.933l-.349.016c-.16.139-.132.302.085.487-.271.552-.686 1.061-.963 1.693-.603 1.374-.018 3.431-1.131 4.562-.215.218-.514-.164-.804.33-.157.269-.115 1.616-.211 1.937-.112.376-.563 1.807-.932 2.133-.181.096-1.146.685-.594.189l-.366-.043c-.163.287-.3.587-.41.897-.213.376-.263.953-.589 1.27-.313.303-.914.297-1.118.497-.454.446-.293.945-.845 1.028-.361 1.017.313 1.985-1.267 2.168-.499.058-1.526-.195-2-.197-1.153-.004-1.548.225-1.406-.07-.552.005-.352-.349-.423-.614-.085.114-1.046-.262-.996-.429-.208.139-.264.446-.722.407-.432-.036-1.3-.877-1.683-1.103-.736-.435-.574-.049-1.359-.94-.505-.573-.971-.964-1.597-1.233-.424-.181-1.213-.038-1.534-.118-.782-.192-1.784-.429-2.558-.809-.287-.141-1.213-.776-1.348-.952-.473-.616.594-.898-.791-1.255-.793-.205-1.663.023-2.478-.209-1.149-.326-2.263-1.087-3.326-1.645-.974-.51-2.035-.955-2.963-1.539-.741-.466-.801-.86-1.258-1.369-.412-.459-1.04-.945-1.739-1.253-.68-.299-1.126.008-1.585-.105-3.079-.762-5.131-4.504-6.163-7.115-.692-1.752-1.288-3.43-1.513-5.387-.24-2.093-.412-3.803-1.402-5.707s-2.331-3.634-3.747-5.241c-.511-.58-1.079-1.128-1.347-1.746-.234-.54-.318-1.156-.693-1.795-.499-.85-.775-1.395-1.632-1.836-.847-.436-.626-.113-1.089-.911-.426-.737-.135-.62-.923-1.036-.212-.111-.592-.024-.834-.137-.605-.28-.783-.789-1.283-1.162-.372-.276-.825-.452-1.193-.652-.341-.186-.813-.741-1.16-.846-.681-.206-1.084-.016-1.658-.126-.394-.076-1.383-.657-1.864-.842-1.336-.515-1.195-1.309-2.421-1.975-1.035-.561-1.671-1.19-2.478-1.924-.483-.438-.619-.312-.947-.898-.358-.641-.264-1.062-.916-1.547-.931-.692-2.008-1.294-3.092-1.795-1.709-.791-2.757-2.832-4.404-3.926-.692-.46-1.204-1.234-1.975-1.739-.782-.512-1.506-.385-2.296-.707-1.03-.419-2.264-1.97-3.101-2.704-1.437-1.259-2.393-2.189-3.337-3.81-.797-1.369-1.766-2.506-3.365-2.508-1.033-.001-1.023-.34-1.896-.629-1.033-.342-2.432-.075-3.474-.001-2.431.172-37.914 1.409-38.179 1.769-.421.571.24 10.619-.892 11.706-.65.626-.237.491-1.243.657-1.031.17-2.175.107-3.216.155l-7.721.344-56.417 2.559c-1.635-.194-42.489-12.784-58.364-17.378L1117 647.784c.101-.238.184-.494.227-.796.184-1.318-.168-1.814.697-2.929.549-.707.778-1.356 1.067-2.209l-59.04.622c.321.499-.117 8.678.147 9.352.244.625.938 1.437 1.269 2.077.416.808.856 1.861 1.584 2.449.628.508 1.454.424 2.088.884.697.504 1.019 1.546 1.24 2.356.425 1.559-.111 4.067 1.791 4.744.539.193.521-.272 1.014-.017.399.206.335.861.691 1.285.397.474.657.415 1.152.719.192.117.537.435.747.54.345.174 1.026.275 1.316.499.885.682 1.088 2.677-.084 3.353-.935.539-.464.727-.149 1.595.264.724-.011.929-.075 1.644-.04.456.336.51.215.842-.237.654-1.291-.212-.59 1.09.105.193.571.505.754.68.111.106.448.044.578.189.241.268.243.739.507.971.936.827 2.027.427 2.871 1.738.858 1.33 1.625 2.559 2.68 3.775 1.589 1.835 2.445 3.338 1.981 5.841-.186 1.008-.672 1.795.333 2.219.667.281.827-.106 1.49.421.447.357.583.927.942 1.292.607.619 1.658.884 2.397 1.357 1.713 1.096 1.88 1.921 2.132 3.924.236 1.881.125 3.599.132 5.472.003.773.198 2.255.856 2.798.841.693 2.972-.543 3.821.144.591.478.945 1.439 1.202 2.118.353.93.599 1.858.584 2.854-.006.393-.192.861-.143 1.243.094.737.631 1.184.596 2.054-.025.606-.847 2.177-.569 2.752.321.663 1.272.318 1.95.919 1.48 1.312.491 3.191 1.317 4.496.717 1.134 2.154 1.058 3.021 1.818.409.358.382 1.015.741 1.342.615.561.962.093 1.61.296.79.246 1.428 1.266 2.156 1.686 1.065.614 2.349.75 3.407 1.395.969.591 1.405 1.795 2.297 2.136.7.267 1.735.029 2.503.17.749.138 1.917.293 2.6.621 1.54.736 2.23 2.721 3.753 3.6.642.371 1.363.587 1.859 1.197.516.636.502 1.392 1.227 1.871.189.125.901-.001 1.3.34.366.312.732 1.087.932 1.519.356.768.054 1.123.817 1.872.096.094.499.278.735.564.325.392-.102.687.523 1.007.153.079.689-.41.925-.379.281.036 1.157.381 1.352.539s.203.756.301.83c.005.004.422.019.313-.125.097.128.378.457.543.699.185.272.07.698.299 1.001.255.336.635.088 1.023.536.463.535.442 1.022.899 1.471.408.402 1.023.656 1.381 1.029.436.452-.944.083-.028.703-.066-.045.704.121.629.105.518.115 1.051-.382 1.669.026.81.536.319 1.509.881 2.218.47.592 1.424.546 1.833 1.468.684 1.538-.497 3.742-1.161 5.171-.249.536-1.319 1.918-1.276 2.435.081.966 1.29.686 1.687 1.812.379 1.079-.133 1.881-.197 2.884-.013.201.189 1.041.164 1.148-.145.619-.639.625-.776 1.157l.464-.021c-.39.155-.627.432-.496.953a1.27 1.27 0 0 1-.019-.929c-1.196.055-.952.144-1.826.868-.931.771-.987.475-1.357 1.74.071-.24-.541 1.157-1.358.909-.572-.174-1.606 1.673-1.952 2.035-1.181 1.233-2.167 1.051-3.757 1.082-1.01.02-1.816.098-2.873-.374-.352-.158-.664-.586-1.043-.655-.55-.1-1.088.283-1.66.194-.87-.137-1.337-.711-2.323-.636-.556.042-1.102.39-1.655.381-.63-.012-1-.566-1.388-.583-1.058-.046-.786.104-.466.978.168.46.56 2.039.92 2.392.638.624 1.095-.091 1.74.335.381.252 1.298 2.137 1.506.377.825-.017 1.308.877.516 1.256.249.484 1.252.389 1.67.698.583.429.66 1.116 1.093 1.638.942 1.136 2.148 1.016 3.343 1.662.926.501 2.494 1.528 3.087 2.4.794 1.168.168 3.201.831 4.103.505.686.583-.033 1.164.37.362.252.252.99.63 1.256.404.282.451-.277.775-.142.577.242 1.106.727 1.724.871 1.138.264 1.159-.454 2.387-.303 1.019.127 2.46.853 3.158 1.586.778.817.959 2.428 2.172 2.842.998.338 1.491-.558 2.738-.361 2.832.444 3.302 3.526 5.168 4.832.685.48 1.705 1.721 2.509 1.92.219.054 1.386-.165 1.584-.312.22-.165-.276-.392-.119-.635.334-.518 1.38-1.741 1.657-1.889.223-.119 1.636-.639 1.637.07.001.454-.831.184-1.121.291.81.016 1.674.369 2.414.661.461.182 1.738 1.194 2.137 1.208.757.026 1.686 1.157 2.663 1.441.555.161.985.21 1.487.272.135.017.228-.561.497-.402.495.293-.571.782-.572.969-.003.513 1.487 1.08 1.887 1.429.904.789 1.432 1.349 2.398 1.648 1.245.384 1.49.731 2.424 1.669.363.365.756.584 1.124.879.211-.173 1.166.973 1.155.961.359.382 1.631 1.634 2.119 1.764.268.019.515-.046.741-.196.377-.165.698-.07.965.284.219.031 1.605.437 1.529.676a2.09 2.09 0 0 1 .951.374c1.334.656.992-.694 2.238-.207 1.141.446 1.329 1.749 1.531 2.73.131.638.121 2.144.479 2.668.244.356 1.545.449 2.164.883.869.608 1.397 1.853 1.83 2.789.861 1.862 2.341 4.203 2.418 6.259.023.597.719 2.993.94 4.433.11.714.125 1.349.149 1.898a5.88 5.88 0 0 0 .127.77c.001.455-.172.6-.138 1.085.027.384.271.824.318 1.238.097.858.168 2.813-.26 3.578-.043.076-.543.237-.683.436-.227.321-.29.748-.387 1.115-.144.543-.122.971-.061 1.468.152 1.235.266 2.057-.232 3.298-.157.391 2.476 6.221 2.463 5.278-.009-.68 1.71 1.071 1.915 1.188.088-.02 1.24-.201 1.117-.291.238.859 1.88 1.579 2.415 2.461.759 1.253 1.438 3.154 1.324 2.756.484-.103 1.668.524 2.01.348.94-.481-.029-.755.624-1.32.98.333.67.766.979 1.588.424 1.123 1.298 2.116 2.267 2.702.533.323.55.096 1.145.589.363.3.629.735.983 1.054.415.374 2.515 1.207 2.645 1.537-.851-.162-1.725-.924-2.513-1.012.404 1.004 2.358 1.38 3.337 1.88 1.654.846 2.971 1.899 4.788 2.217.17.84 2.75 1.71 3.652 2.446a11.64 11.64 0 0 1 2.388 2.602c.72 1.053 1.527 1.177 2.582 1.839 2.274 1.426 3.479 4.034 5.715 5.503 1.591 1.045 3.59 1.05 5.179 1.892 1.81.959 2.419 2.341 3.171 4.104.771 1.811 2.101 2.695 2.879 4.442 1.117 2.509 1.086 5.274 2.108 7.768.392.957 1.159 2.243 1.906 2.986.363.362.928.722 1.438.815.949.173.976-.297 1.625-.6 1.723-.804 3.827-2.004 4.725-3.572 1.231-2.15 3.827-2.343 5.098-4.395.7-1.131 1.196-1.994 1.192-3.307-.002-.912.246-1.953.316-2.822.05-.611.245-1.529-.017-2.289-.163-.474-.698-.836-1.001-1.213-.347-.432-.467-.989-.765-1.366-1.172-1.486-3.965-.918-5.23-2.207-.741-.755-.456-2.037-.532-2.947-.107-1.257-.542-1.444-1.545-2.275-.687-.57-1.585-1.031-1.73-1.939-.134-.835.75-1.866.612-2.605-.215-1.148-1.301-.639-1.967-.324-1.306.615-1.976.233-2.497-1.004-.625-1.486-.554-2.329-2.154-3.106-1.42-.69-1.96-1.252-2.876-2.541-.635-.896-1.228-1.744-2.372-1.474-.819.193-.978.42-1.051.994-.127 1.009.734 1.517.949 2.462.13.566-1.197 1.298-.768 1.154-.592-.584-2.17-.399-2.989-.471-1.451-.129-1.929-.284-3.093-1.164-.838-.634-1.595-.68-2.247-1.256-.693-.614-1.422-1.802-1.617-2.688-.26-1.182-.401-2.087-.809-3.251-.474-1.352-.64-3.039-.119-4.48.44-1.217 1.248-2.17 1.029-3.571a12.59 12.59 0 0 0-.652-2.369c-.248-.61-1.096-1.148-1.307-1.659-.269-.647.029-1.143-.593-1.723-.449-.418-1.179-.367-1.691-.683-.729-.449-1.437-1.585-1.848-2.364-.277-.524-.193-.957-.433-1.485-.25-.549-.758-.829-.918-1.429-.175-.659-.006-1.041-.365-1.698-.341-.625-.916-1.116-1.232-1.791-.47-1.006.067-2.279-.363-3.117-.42-.819-.26-.2-.892-.466-.153-.064-.067-.393-.053-.39-.112-.018-.592.134-.619.126-1.008-.298-1.849-.452-2.523-1.296-.753-.94-.748-2.414-1.427-3.321-.523-.698-1.556-1.005-1.812-2-.12-.468.158-.842-.066-1.232-.069-.121-.427.145-.637-.2-.246-.405-.162-.925-.308-1.363-.151-.456-.662-.938-.708-1.401-.032-.334.108-.431.127-.752.012-.197.174-.964.227-1.245.097-.514.537-1.527.42-2.055-.127-.573-.766-1.279-1.068-1.824-.495-.893-1.384-2.202-1.354-3.306.009-.314.467-.172.423-.661-.106-1.18-.687-.847-1.237-1.38-.207-.201-.056-.409-.277-.704-.413-.551-.769-.154-.858-1.055-.072-.722.69-1.231.719-1.868.041-.913-.322-.435-1.066-.704-1.177-.424-1.69-.636-1.856-1.898-.106-.806.344-2.591-.116-3.273-.27-.4-.97-.447-1.378-.642-.713-.342-.725-.606-1.289-1.122-.523-.48-1.197-.852-1.809-1.277-.492-.343-1.379-1.236-1.958-1.385-2.513-.65-2.92-4.474-3.788-5.466-.212-.241-2.679-.741-2.916-.809-.483-.137-1.703-.447-2.166-.65-.663-.293-1.565-.598-1.865-1.321-.339-.82.344-.403.558-.111.399-.666-.884-1.759-1.333-2.276-.968-1.113-1.186-1.892-1.335-3.353-.118-1.16-.368-2.455-1.418-3.043-.487-.272-1.132-.26-1.632-.527-.626-.336-1.038-.866-1.73-1.164-.543-.234-.699-.214-1.401-.373-.513-.116-1.015-.366-1.259-.774-.332-.553-.341-1.116-.952-1.48-.127-.076-.546.234-.826.054-.241-.154-.353-.337-.513-.565-.315-.451-.183-1.132-.464-1.591-.32-.523-1.213-.734-1.35-1.212-.095-.332.234-.585.266-.878.03-.267-.081-.543-.059-.806.068-.836-.028-1.807.317-2.608l-.865.037c.564-.068.959-.182.786-.383-1.19.086-1.107-.351-1.353-1.322-.219-.865-.374-1.829-.483-2.844-.163-1.513-1.38-1.413-2.022-2.679-.343-.677-.059-1.478-.103-2.201-.018-.306-.154-.578-.156-.882-.002-.259.321-.656.281-.858-.284-1.401-.105-.088-.415-.384.227.216-.893-.448-.652-.403-.79-.147-1.283.255-2.059.336-.833.088-1.68-.216-2.398-.652-1.125-.684-1.038-1.472-1.303-2.787-.319-1.584-1.034-2.847-1.438-4.422-.223-.871.161-2.489-1.347-2.522-.701-.015-2.027 1.642-2.77 1.025-.492-.407-.186-2.365-.31-2.816-.127-.466-.222-.381-.506-.729-.11-.135.254-.236.189-.275-.037-.023-.462-.081-.467-.085.586.536-.573.005-.506.021-.127-.029.099-.618-.319-.625-.043-.001-1.044.506-1.071.556-.3.541.807 2.238-.971 1.598-.382-.138-.836-.824-.956-1.182-.246-.732.118-.488.054-.912-.093-.605-.496-.81-.436-1.544.046-.563.367-.439.314-1.087-.098-1.181-1.311-2.108-2.007-2.758-.446-.417-.816-.286-1.141-.974-.299-.633.157-1.206-.384-1.973-.777-1.102-1.918-2.19-2.918-3.049-1.195-1.027-2.294-1.728-3.638-2.621-.856-.568-1.418-1.426-2.352-1.943-1.231-.681-1.723-1.552-2.802-2.525-.552-.499-1.152-.92-1.667-1.409-.733-.697-.638-.951-1.678-1.083-.382-.049-.143-.419-.565-.308-.351.092-.239.52-.592.569-.164.023-1.685-.65-1.922-.846-.983-.815-.165-2.152-.97-3.012-.478-.511-.806-.123-1.314-.454-.37-.24-.32-.759-.597-1.035-.344-.34-.701-.294-1.07-.556-.943-.67-1.003-1.265-1.49-2.324-.335-.729-.799-.934-1.157-1.514-.157-.253-.816-1.283-.87-1.563-.09-.479.146-1.697.162-2.257.061-2.286.499-4.818-.319-7.02-.439-1.182-1.29-2.35-1.421-3.682-.085-.866-.02-1.849-.032-2.722-.014-1.078-.242-1.719-.436-2.718-.171-.884.075-1.341-.633-1.967-.573-.505-1.675-.342-2.217-.878-.596-.59-.311-.517-.376-1.27-.075-.866.135-.422-.301-1.282-.35-.691-1.009-1.006-1.165-1.883-.172-.973-.026-2.23-.024-3.225.003-1.893.157-3.799.246-5.636.035-.717-.032-1.429.15-2.148.234-.921 1.103-1.359 1.374-2.11.312-.867-.494-1.421-.775-2.175-.214-.577.011-1.759-.335-2.22-.336-.448-.114-1.046.851-.695.355.13.783.063 1.132.221.449.203.698.823 1.141.977.814.282 1.686-.19 2.508.052.626.184 1.369.762 1.925 1.229 1.328 1.116 2.582 1.642 4.096 2.455 1.328.712 2.211 1.788 3.721 2.421a6.78 6.78 0 0 0 2.774.558c1.28.006 1.609-.095 2.301-.7.351-.305 1.025-.34 1.212-1.085.256-1.02.922-1.647 1.509-1.562.371.053.15.394.693.528 1.58.394 3.779.856 5.133 1.823 1.097.784.786 1.386.968 2.571.093.604 1.011 2.175-.128 1.869.292.545 1.754.579 2.3.804.489.202.942.606 1.464.729.675.157.862-.182 1.397-.132 1.471.139 5.26.776 6.466 1.537 1.344.847 2.449.992 2.955 1.362.659-.595.45 1.266.424 1.71-.04.669-.037 2.478-.648 2.93-.256-.165-.093.82-.134 1.912-.032.857-.56 1.572-.666 2.398-.117.923.247 1.575.542 2.441.646 1.897 1.435 3.342 2.793 4.85 1.046 1.162 2.436 2.379 3.227 3.73.403.689.779 1.702.73 2.527-.035.597-.517 1.107-.197 1.547.038.054.334-.412.39-.375-.125-.084 2.294 1.058.608.373.482.196 1.039.855 1.299 1.298.871 1.484.328 3.585.839 5.113.295.883.092 1.2.097 2.136.011 1.853.129.603.978.768.502.097.983.77 1.182 1.265.414 1.026.726 1.579 1.346 2.54.4.62.524 1.519 1.015 2.06.284.311.714.368 1.023.731.551.648.781 1.407 1.431 2.038.542.527.998.979 1.438 1.539.808 1.03 1.393 1.156.914 2.773-.494 1.664-.693 2.208.842 3.14 1.374.835.079.313.827-.375 1.436-1.319 3.262.728 3.207 2.105-.023.57-.62 1.346-.467 1.825-.013-.042.692.02.775.11.242.262.599.93.674 1.361.098.565-.224.619-.237 1.077-.02.749.345 1.272.459 1.966-.067-.409.309.96.116.622-.141.099-.187.242-.138.431.189.058.381.078.577.059.097.08.789.235.964.326.395.204 1.373.92 1.615 1.226.353.444.268.802.777 1.251 1.257 1.109 1.752 2.264 1.693 2.617-.175 1.064 3.148 3.032 3.787 3.571.711.599 1.378 1.3 1.845 2.113.312.54.455 1.531.879 1.969.488.505 1.546.674 2.187.899 1.086.379 2.274 1.034 3.389 1.259.066.013.991-.039 1.012-.001.205.373-.693.788-.339 1.538.292.618 1.249.812 1.627 1.363.192.282.062.647.246.928.29.443.314.258.665.646 1.133 1.25 1.945 3.002 3.202 4.184.617.581 1.433 1.024 2.034 1.573.142.13.445.303.615.431.63.473-.113-.008.682.277.106.184-.193.694.084.723.494.051.904-.436 1.311-.589 1.188-.45 1.78-.167 2.709.806-.655.858-.226.703.46 1.241.27.211.655.769 1.123 1.007.615-.211 3.712-2.318 5.186-1.752.357.137 2.51 7.246 1.15 5.887-.821 1.101 1.126 2.71 1.385 3.573.247.824.049 1.553.398 2.358.403.933.425 1.119.496 2.273.492.041 1.397 1.275 1.17 1.804 1.277.686 2.308.657 3.475 1.799.656.641 1.163 1.561 1.797 1.801-.22-.083.868-.053.648-.113.465.128.844.468 1.313.599 1.024.287 2.243.403 3.282.625 1.014.214 1.239-.074 2.043-.21.086-.015.664-.094.789-.042.869.37 1.429 1.357 1.732 2.183.164.446.833 3.966 1.116 4.756.668 1.866 1.898 3.652 3.86 4.397 1.604.608 1.669-.57 3.139-.521.654.022 1.489.522 2.142.328.801-.238 2.017.125 2.161.196.843.421 1.335 1.228 1.967 1.867.831.839 1.825 1.333 2.382 2.486.792 1.637-.327 7.652-.199 7.072-.435 2.204-2.357 3.854-3.166 5.788-.402.96-.607 2.17-.261 3.135.04.11.216 3.634.418 4.056.19.396.463.557.621 1.107.132.463.3 1.551.041 2.464.232.395 1.364.293 1.763.261 1.102-.089 1.625-.458 2.728.169.379.216 2.972 1.83 3.258 2.618.137.381 9.559 2.957 9.254 3.851.976.472 2.362.171 3.458.594.946.365 1.793.834 2.739 1.178.886.32 1.64.612 2.104 1.512.369.716 3.118 1.669 4.01 1.592.761-.065 0-.479.775-.087.289.146.559.857.817 1.071.591.491 1.458.918 1.199-.165.82-.087 2.322 1.226 2.787 1.846.172.23.781.935.627 1.265-.188.401.23.645.319 1.68.036.412-.146 1.367-.158 1.846-.011.457.141.732-.205 1.097.682.408 1.564 2.228.285 2.147.016 0-.543.163-.327.559.366.669.114 1.437.458 2.1.306.591 1.091 1.035 1.61 1.419.292.215 3.023 1.543 3.851 2.891.396.644 1.782 1.262 2.445 1.627 1.443.794 3.02 1.431 4.338 2.452.57.441.995.968 1.611 1.378.292.194 1.063.398 1.276.585.709.621.86 1.235 1.928 1.85 2.386 1.374 4.49 3.003 6.739 4.607 1.274.908 2.188 1.961 3.316 3.033 1.084 1.028 1.367 1.812 2.109 3.141.325.584.921.958 1.225 1.484.433.752.14 1.393.873 2.058.5.453 1.247.442 1.763.881.474.403.663 1.032 1.061 1.491.917 1.058 1.75 1.927 2.898 2.743.913.65 1.773 1.535 1.953 2.504.535.189.044.497.086.584.105.222.357.45.455.675.255.589.81 1.041 1.064 1.628.23.531-.042 1.044.431 1.358.067.045.337-.41.521-.319.224.111.463.237.693.362.701.379 1.182 1.329 1.729 1.887.628.641 1.362.891 2.053 1.441 1.05.835 1.883 2.138 2.796 3.14.66.723 1.39 2.042 2.158 2.556.388-.397.489-.723 1.08-.686-.79 1.364.333 1.173 1.335 2.052.858.752 1.433 1.678 2.327 2.395 1.29 1.034 2.062 2.499 2.459 4.022.368-.641.876-.197.827.48-.257-.032-.237-.035-.422-.048-.079.289.453 1.161.63 1.232.006.002.017 0 .024.002-.016.005-.036.01-.051.015 1.458 2.219 2.303 4.603 2.223 7.335-.072 2.466-.902 4.841.812 6.849 1.461 1.711 2.677 3.433 3.735 5.431.268.507.635 1.036.813 1.583.176.539.065 1.354.38 1.803.498.711 2.965 1.699 3.725 1.98 1.126.415 1.87-.113 2.368 1.162.55 1.406-.667 1.814-.838 3.299-.162 1.397.613 2.85.572 4.277-.027.951.316 3.29-.519 4.142-.47.479-.902.291-1.432.676-.481.348-.715 1.27-1.051 1.72-.32.429-.804 1.107-1.145 1.494-.305.346-.758.608-.973 1.02-.229.435-.091 1.137-.462 1.506-.665.66-.181 1.511.092 1.616 1.236.47 1.476-.143 2.564-.291 1.438-.197.946.654 1.73 1.337.869.755 1.211.993 1.517 2.322.365 1.584-.431 1.538-1.392 2.194-.365.248-.504.703-.886.94-1.583.98-3.589.578-5.268.994-.969.241-2.863 1.399-3.102 2.282-.323 1.196 1.039 2.563 1.646 3.497.373.573.968.947 1.304 1.479.511.809.421 1.683.547 2.59.235 1.684 1.055 3.091 1.933 4.546 1.005 1.664 2.548 2.871 3.695 4.413.99 1.33 1.472 2.478 2.734 3.526.381.315.696.742 1.045 1.053-.028-.025 1.025.567.866.506-.614-.231.88.481.662.34.242.156.437.065.729.339.818.766.951 2.701 1.372 3.492.198.372.662.67.894 1.16.281.592-.045.31.472.965.533.676 1.345.956 2.053 1.356.895.506 1.011.457 1.993.403.735-.04.044-.65 1.185-.125.09.83-.769 1.723.345 1.899.3.047.645-.361.919-.328.373.045.282.256.519.319.564.151.698.342 1.09.623.766.549 1.313.884 2.354 1.096a2.82 2.82 0 0 1-.046-.396c.167.858 2.115.699 2.842 1.093.87.471.822.798 1.822.481.233-.074 1.906 1.283 1.993 1.681.17.776.877.772 1.538 1.005 2.611.921 5.849 1.48 8.077 3.174 1.018.775 1.952 1.701 2.945 2.514.763.626 2.413 1.859 2.323 1.948.486.321 1.204 2.549 1.11 2.631.203.357 1.261.982 1.636 1.256 1.298.949 1.939 1.433 2.741 2.937.637 1.196.983 2.22 2.127 2.908 1.345.809 2.674 1.035 4.146 1.377 2.021.468 3.896 1.123 5.925 1.472 2.792.481 5.236 2.477 7.991 3.228 1.317.359 2.634.043 3.94.334 1.083.241 2.1.534 3.151.815 1.392.371 2.746.796 4.147 1.13.966.231 4.98-1.442 7.358-1.023 1.476.259 4.251 1.809 5.201 2.973.593.726.848 1.443 1.485 2.12.567.602 1.266 1.113 1.73 1.806.646.965 1.322 2.375 2.649 2.489.372.12 1.038-.157 1.566.025.777.269 1.025 1.166 1.343 1.697.386.643.537.785 1.41 1.151 1.204.506 2.433.868 3.543 1.57 1.04.66 2.168 1.291 3.186 1.994.458.316.88.669 1.253 1.085.3.333.472 1.031.633 1.221.333.388.156.11.812.353.284.105.574.243.883.346.788.263 1.464.675 2.246 1.009 1.209.514 2.538.637 3.796.985 1.008.28 1.893.792 2.882 1.097 2.736.844 5.472 1.565 8.157 2.617.999.392 1.968 1.088 2.958 1.43.764.263 1.598.009 2.365.194.716.173 1.235.633 1.899.895.993.392 1.672.394 2.434 1.248 1.058 1.188 1.273 1.157 2.172 2.042.379.375 1.607.791 2.097 1.077.977.569 2.041.848 3.168.907 1.059.055 2.285.436 3.641.435 1.028 0 2.103-.124 3.112.124.508.125.89.471 1.341.625.581.2 1.158.172 1.797.212 1.106.07 2.047.498 3.162.629.834.097 1.685-.044 2.501.233.943.321 2.833 1.993 3.842 1.573.251-.105 2.819-.056 3.446.826 1.227 1.729 2.968 2.676 4.095 4.42.047-.055.055.055.085.13.126.318 1.923.737 2.168.815 1.467.47 2.926.316 4.379.714.587.161 1.263.593 1.888.556.64-.039 3.112 1.268 3.846 1.606 1.471.685 3.68 1.679 4.728 2.921.133-.142 7.036 1.753 10.598 2.29 1.883.284 3.711.119 5.594.357 1.821.23 2.915.926 4.399 1.922 1.402.941 3.353 1.874 4.926 2.586 1.324.599 2.806.276 4.199.783 1.575.573 2.554.962 4.176 1.107 1.127.1.808.17 1.578-.275.824-.477.103-.665 1.309-.728 1.308-.07 2.566.241 3.918-.049 1.364-.292 2.119-.824 3.229-1.632.906-.659 1.675-.775 2.702-1.521 1.492-1.085 3.117-1.625 4.833-2.257.79-.291 1.156-.777 1.911-1.123.791-.363 1.687-.549 2.493-.906 1.642-.725 3.791-.847 5.29-1.812 1.143-.737.505-1.513 1.595-2.325.424-.316 1.042-.368 1.418-.783.318-.349.228-.694.445-.947.567-.664 1.979-.489 2.514-1.025.345-.345-.231-.884.471-1.097.02-.007 1.206.351 1.444.34 1.39-.063 2.71-.696 4.059-.912 1.234-.197 9.115.302 9.572.282 2.301-.101 4.012.939 6.169 1.409.016-.077.678-1.941 1.918-2.146.766-.126.772-1.078 1.6-.465.44.326 2.632 2.605 2.932 2.697 1.706.522 1.923 2.004 1.95 2.812.014.326 1.826.89 2.119 1.07l4.312 2.664c3.006 1.883 5.515 4.438 8.391 6.507 1.313.945 2.719 1.941 3.96 2.946 1.44 1.167 2.19 2.96 3.738 4.028 1.094.755 1.985 1.629 3.057 2.313.778.496 1.864 1.03 2.482 1.727.516.582.956 1.57 1.552 2.238 1.407 1.579 2.822 3.151 4.335 4.631 2.736 2.676 5.381 5.714 8.368 8.126 1.109.894 1.639 1.967 2.374.602.579-1.078 1.176-2.77.892-4.036-.197-.881-.661-1.715-.771-2.628-.132-1.098.322-.849.703-1.676.352-.765.041-1.196-.036-2.018-.06-.64-.137-.993.285-1.497.336-.402.704-.169 1.066-.512.978-.926.192-1.981-.459-2.838-.533-.702-1.083-1.393-1.643-2.075-.783-.952-1.049-.93-.798-2.031.363-1.588 1.6-3.334 2.273-4.848 2.114-4.753 4.498-9.391 6.8-14.054.73-1.478.825-2.993 2.562-3.104 1.624-.105 3.252-.169 4.878-.245l14.064-.618 5.939-.25 1.474-.061c.725-.034 3.747.24 4.124-.188.398-.452-.341-.703-.269-1.029.114-.516.51-.174.668-.642.346-1.028-.444-.82-.638-1.364-.358-1.009.344-.58.378-1.309.019-.41.109-.689.085-.652.303-.451.219-.634.306-1.03.012-.053-.356-.291-.328-.391.14-.501.978-1.622 1.189-1.482.147-.161-.755-1.448-.948-1.543-.441-.217-.738.112-1.114-.037-.737-.293-.158-.399-.543-.676-.235-.17-.675-.252-.943-.39.248.127-1.424-.443-.672-.409-.736-.033-2.059-1.024-2.54-1.733-.67-.988-.172-1.167-.376-2.213-.185-.954-1.495-2.511-2.285-3.116-.32-.244-.798-.288-1.071-.549-.167-.159-.388-.798-.505-.858-.308-.161-.727.286-1.044.193-.247-.074-.659-.468-.895-.585-.637-.315-.563.107-1.135-.423-.291-.27-1.941-1.225-2.186-1.277-.917-.198-.887-.183-1.346-.739-.387-.468-.933-1.225-1.311-1.746-.19-.261-.026-.571-.362-.86-.187-.161-.694-.022-.925-.14-1.042-.534-1.01-1.51-1.675-2.246-.318-.354-.709-.132-1.016-.579-.213-.308.034-.824-.199-1.109-.658-.806-1.498.163-2.03-.102-.217-.108-.821-.796-1.141-.985-.476-.281-1.79-.813-.298-.994.941.135 2.342-.17 3.073-.192 2.376-.071 5.116-.576 7.471-.256l-.034-.561c.398-4.146-.435-8.627-.586-12.789l-.088-2.155c.041.064 30.004-1.172 32.309-1.279l3.174-.147c.992-.045 7.051-.026 8.971-.392 1.086-.207 1.083.094 1.022-1.266-.052-1.128-.466-2.078.296-2.902.322-.348 1.86-1.156 2.346-1.066.663.124.618.69 1.122 1.057.255.186.782-.074 1.036.074s.521.657.762.856c.481.399 1.217 1.02 1.749 1.327.264-.215.148-1.643.482-2.102.482-.659.978-1.098 1.427-1.849.149-.248.209-.543.367-.748.131-.168.676-.322.771-.474.184-.29-.005-.866.064-1.189.114-.53.452-.952.616-1.465.057-.175-.149-.684-.105-.757.189-.31.664-.434.941-.639 1.11-.819.782-.957 1.188-2.208.245-.757.845-1.155 1.154-1.885.315-.746.284-1.62.599-2.377 1.12-2.687 4.473-.057 5.83-2.089.911-1.365 1.306-3.116 2.115-4.552.297-.53.658-.189.488-.732-.132-.422-.049-.262.81-.675-.007-1.299.833-3.465 1.916-4.134.316 1.062.822 1.761.886 2.794.021.346-.054.738-.035 1.016.015.206.289 1.153.284 1.253-.051 1.001-.887 1.757-1.074 2.715-.045.231.163.574.067.876-.154.486-.767.28-.761.958.012 1.496 3.397 1.431 3.953 2.297.126.195-.264.465-.123.79.181.417.597.073.857.424.059.079.542 1.165.554 1.263.088.708 1.194.498 1.562-.285.387-.826 1.071-1.525 1.287-2.448.281-1.205.293-2.889.323-4.083.02-.807-.136-1.77.135-2.576.411-1.219 1.514-1.752 1.741-3.078.247-1.44.488-2.786.601-4.275.082-1.088.613-2.121.713-3.128-.115.056-.193.15-.234.281-.123-.521.359-.81.597-1.292.354-.716.331-1.312.374-2.049.104-1.781 1.114-2.832 1.95-4.255-1.119.005-.308.331-1.184 1.003-.105-.438.488-.944.144-1.223.053.042.715-3.075 1.197-3.824.441-.687.465-1.458.529-2.247.039-.472.183-.759.078-1.245-.092-.425-.5-.622-.558-1.1.162.613-.006-6.657-.301-7.614-.4-1.294-.923-1.954-1.028-3.408-.093-1.291.012-2.387.385-3.645.156-.527.328-1.107.636-1.57.241-.361 1.113-1.658 1.286-1.643-.448-.248 2.547-4.897 2.987-5.48.705-.932 1.304-1.574 2.213-2.282 1.41-1.098 1.905-2.057 2.935-3.477.992-1.366 2.512-2.657 3.213-4.254.523-1.189 1.962-5.106 2.055-5.28.171-.319-.121-.853.045-1.25.181-.456-.623-2.127-.978-3.148z" fill="#6eb136" class="B"></path>
  <g fill="none" stroke="#fff" class="E">
    <path d="M1809.531 915.363c-.255-.731-.377-2.497-.328-3.296s.548-2.254-.177-2.951c-.369-.355-1.959-.708-1.837-.001-.65-.082-.685-.865-.95-1.315-.355-.601-.957-1.097-1.335-1.706-.724-1.164-2.265-2.114-3.632-1.886-.742.125-1.683 1.012-2.416 1.32-.908.381-1.51.339-2.483.261-1.009-.08-.268-.343-.966.105-.349.223-4.14 2.116-4.141 2.09-1.2.084-8.453-1.544-9.09-1.724-1.46-.411-2.384-.449-3.88-.464-1.243-.012-2.004-.314-3.274.274-.715.33-1.231.989-1.947 1.166-.997.245-2.107-.404-3.15-.355-1.392.066-2.552.703-3.862.993-1.472.325-1.891 1.372-2.986 2.274-1.006.828-2.463.948-3.655 1.351-5.464 1.847-11.166 2.567-16.833 3.644-2.797.531-5.675.736-8.35 1.879-1.023.437-1.674 1.025-2.554 1.633-.982.68-2.212.669-3.197 1.252-.74.438-1.302.976-2.092 1.405-1.002.543-1.851 1.285-2.725 2.003-1.167.96-1.537 1.88-1.9 3.337-.323 1.3-.816 3.983-1.303 4.937-.471.923-.206 1.61-.234 2.642-.034 1.315-.709 2.564-.596 3.877.106 1.224.718 2.35.652 3.558-.12 2.209-.45 4.278-.236 6.412.103 1.019-.109 1.48.331 2.455.2.443.733 1.294.728 1.748-.021 2.217-2.841 3.525-4.192 4.931-.974 1.012-1.76 2.652-1.692 4.037.028.58.21.963.181 1.578-.044.956-.029 1.854-.02 2.826.012 1.17-.034 2.927-.365 4.055-.408 1.387-1.517 1.705-2.461 2.571-.841.772-1.237 1.917-2.059 2.707-.965.928-2.07 1.486-3.157 2.23-1.417.971-2.204 2.296-3.832 3.006a38.15 38.15 0 0 0-2.89 1.428c-1.803.972-3.238 2.129-4.095 3.895 1.596.938 3.118.692 3.905.803.499.071.433-.424 1.139-.387.494.026 1.314 1.091 1.369 1.557.067.573.191 2.852-.069 2.947-.187.068-1.183 1.053-1.981 1.492-.67.368-1.356.305-2.075.625-.87.385-2.642 1.253-2.431 2.388.469-.078-.405.422-1.169.468-.614.037-1.127-.05-1.707-.101-.921-.081-1.742-.363-2.708-.572-.149-.033-.931-.362-1.046-.218-.367.457-2.274-1.037-1.73-.993.046-.938.191-2.044.14-2.455-.05-.404-.623-.529-1.002-.814-.649-.49-.781-1.291-1.357-1.764-.82-.675-1.248-.182-2.089.052-1.9.529-3.959 1.111-5.922 1.106-1.713-.006-3.021.288-4.585.766-1.035.308-2.007.958-3.048 1.211-.683.165-2.36-.153-2.496.558-.083.434-2.123 2.257-2.357 2.472-.99.913-2.028 1.688-3.319 2.128-1.223.415-3.878-.173-4.859.515-1.045.733-8.295-.08-11.527.981-1.114.366-6.658 3.88-6.49 3.455-.552.071-1.56.624-2.102.842-.838.336-1.507.862-2.35 1.213-1.497.623-1.792 1.064-2.62.953-.784-.106-2.205.855-2.989 1.06-1.798.466-4.47 1.352-6.27.659-1.754-.676-1.571-2.142-2.483-3.455-.765-1.102-2.082-1.689-2.842-2.835-.682-1.026-.681-2.663-1.817-3.301-1.151-.647-3.097-.124-4.417-.481-1.502-.406-1.617-1.581-2.944-2.43-1.406-.901-2.382-1.716-4.152-1.725-1.333-.006-2.58.355-3.909.428a18.51 18.51 0 0 1-3.884-.219c-.9-.148-1.809-.379-2.593-.855-.474-.288-.882-.887-1.391-1.088-1.305 1.466-.941-.164-2.547-.862-1.076-.468-1.648-.878-2.312-1.852-.387-.567-.662-1.107-.855-1.755-.157-.521-.07-1.822-.437-2.192-.562-.567-1.164-.001-1.912-.29-1.076-.415-1.091-1.635-1.372-2.508-.064-.199-.371-.824-.449-.959-.453-.783.027-.399-.696-.895.013.009-.845-.25-1.005-.345-.434-.259-.935-.683-1.374-.98-1.705-1.156-2.025-2.716-2.19-4.44-.088-.915-.374-.978-.955-1.783-.673-.932-1-2.373-1.275-3.491-.511-2.078-.398-4.157-1.802-6.026-.57-.758-1.372-1.294-1.938-2.063-.761-1.032-1.322-1.947-2.205-2.89-1.427-1.522-2.289-3.269-3.803-4.743-1.581-1.538-3.088-2.781-4.402-4.637-1.107-1.565-2.853-2.379-4.094-3.907-1.217-1.498-2.452-2.937-2.758-4.742-.009-.055.052-.78-.163-1.252-.179-.393-.374-.709-.585-1.079-.608-1.061-1.342-2.074-1.927-3.14-.835-1.521-1.718-3.151-2.386-4.776-.295-.719-.381-1.429-.631-2.15-.094-.268-.097-.583-.24-.835-.127-.221-.443-.031-.579-.252-.392-.632-.71-1.46-1.1-2.144-.306-.537-.602-1.229-.752-1.825-.098-.389-.815-1.73-1.347-1.851-1.28-.292-2.233-3.05-2.828-4.112-1.022-1.824-1.524-4.477-1.572-6.466-.024-.997.305-1.342 1.173-.972-1.144-1.765-2.356-3.641-3.056-5.639-.532-1.519.016-3.262-.679-4.673-.502-.993-.684-1.871-.888-2.957-.23-1.225-.839-2.433-.888-3.683-.02-.532.767-3.505.065-3.655-.117-.024-.412-1.946-.08-2.267.418-.405.552-.671.82-1.221.439-.901 1.084-2.13 1.045-1.466.42-1.896.345-4.044.011-5.948-.509-2.898-.821-5.655-.803-8.612.012-2.075.092-4.14.269-6.205.063-.726-.505-4.155-.022-4.67.285-.305.064-1.596.06-1.94l-.013-5.79c.15-6.508.944-12.861 2.221-19.223 1.06-5.279 2.125-10.126 4.66-14.905 1.226-2.311 2.388-4.644 3.198-7.005.388-1.129.744-2.3 1.107-3.428.473-1.466.17-2.77.313-4.293.104-1.11.469-2.19.391-3.316-.569-.055-1 .264-1.548.336-.255.034-1.159-.169-1.286-.113-.423.186-.191.521-.584.819-.847.644-1.453.088-1.755 1.043-.207.652-1.023 1.028-1.151 1-.131.091-1.095-.028-1.134-.282-.027-.449-.33-.521-.907-.215-.372-.144-.669-.362-1.056-.595-1.375-.826-1.984-2.041-3.193-2.846-.658-.437-1.251-.39-2.04-.342-.379.022-.869.022-1.221-.088-.09-.16-.115-.339-.075-.537-.206-.14-.401-.119-.585.064-1.055-.316-2.741.246-3.896.247-.419.002-1.25-.148-1.618-.036-.345.104-.333.837-.987.654-.645-.182-.179-.929-1.254-.897-.252-.033-.422.087-.509.361a.64.64 0 0 1-.774-.213c-.244.098-.88.03-.968-.128-.755-.124-1.488-.138-2.183-.62-.389-.27-.552-.721-.905-.993-.54-.416-.783-.064-1.339-.383-.095-.372.331-.581.192-.968-.762-.203-2.106-1.376-2.429-.207-.297-.104-.647-.405-.975-.544-.158-.18-.347-.308-.568-.384-.205-.171-.389-.127-.551.133-.401-.106-.391-.416-.816-.382-.269.022-.902.272-1.128.272-.485-.004-1.568-.244-1.918-.56-.137-.123.339-.422.275-.462-.23-.146-.739-.234-1.16-.375.005-.005.315-.499.299-.513a16.68 16.68 0 0 0-1.388-.857c-.589-.244-.409-.163-1.06-.244-.495-.061-1.235.215-1.807-.021-.219-.09-.366-.474-.553-.521-.515-.13-.168.241-.608.261-.002-.002-.409-.624-.465-.615-.112.023-.72.149-.567.169.552.075-.72.23-.593.214-.225.027-.382-.493-.608-.514-.426-.038-.674.5-1.068.409-1.35-.306-.21-1.6-.323-2.3-.2-1.24-1.828-.982-2.218-2.14-.152-.453.008-.933-.076-1.345-.103-.506-.399-.868-.592-1.397-.516-1.416-.784-2.806-1.732-4.077-.477-.638-.895-1.054-1.26-1.757-.494-.952-1.309-1.079-1.849-1.933-.162-.257.098-.682-.11-.963-.122-.166-.754-.252-.754-.252-.459-.717-.624-1.848-.821-2.669-.259-1.08-.066-1.778-.064-2.833.001-.906-.51-1.044-.764-1.631-.346-.798-.486-2.224-.573-3.09-.056-.557.22-1.646.009-2.172-.293-.727-.522-.32-.878-.863-.352-.537.212-1.43-.042-2.028-.367-.862-1.149-.869-1.755-1.186-.268-.14-.25-.507-.601-.663-.147-.065-.617.375-.71.346-.653-.196-2.035-.898-.887-.667-1.786-1.377-3.485-2.868-5.122-4.417-.036-.699-.568-.438-.687-.865-.145-.518.264-.787-.071-1.322-.235-.374-.921-.394-1.162-.826-.179-.322.155-.856-.14-1.163-.258-.269-1.019.108-1.518-.418-.513-.541-.093-1.158-.365-1.609-.209-.347-.707-.306-.942-.602-.228-.288-.191-.839-.4-1.172-.721-1.147-2.09-.879-3.03-1.638-.273-.221-.385-.627-.661-.916-.429-.449-1.05-.651-1.461-1.423-.548-1.032-1.424-2.004-1.816-3.163-.046-.136-.77-2.032-.762-2.084.076-.499.026-.739-.213-.959-.377-.346-.615-.563-.861-1.027-.15-.282.121-.726-.1-1.012-.232-.3-.716-.216-.972-.469-.379-.374.08-.488-.143-.799s-.7-.469-.933-.811c-.484-.708-.748-1.827-1.082-2.651-.899-2.214-2.166-4.317-3.306-6.589-.276-.55-.329-1.395-.675-1.89-.466-.664-.39-.305-.835-.657-.628-.496-1.51-.971-1.873-1.618-.238-.42-.059-.938-.376-1.436-.176-.276-.586-.644-.873-.819-.79-.478-1.215-.573-1.963-1.207-.665-.565-1.369-.71-2.134-1.107-.502-.261-.984-.494-1.256-1.025-.202-.393.003-.852-.192-1.212-.65-1.205-1.825-.633-2.83-1.243-.41-.248-.589-.689-.995-.934-.302-.182-.783-.035-1.013-.29-.484-.535.361-1.554-.367-1.959-.762-.423-1.708-.785-1.813-.9-.355-.39-1.094-.052-1.587-.637s-1.105-1.985-1.101-2.547c-.202.011-.672.316-.815.238.112.061-.919-.361-.766-.513-.366.118-.596.464-.987.524-1.112.172-.306-.309-.634-.798-.51-.762-.035-.194-.666.235-.417.282-.419.451-1.09.559-.776.124-1.481-.011-2.283-.103-.479-.056-1.801-.096-2.084-.164-.527-.128-.524-.566-1.076-.501-.065.447-1.547.373-2.2.404-.58.027-.869-.477-1.396-.476.054.001-.836.338-.897.359-.35.114-.807.261-1.175.285-.566.038-1.193-.09-1.727-.269-.621-.209-1.133-.667-1.656-.853-.258-.091-.709-.026-.99-.083-.384-.077-.139-.404-.419-.606-.291.449-1.107-.403-1.734-.228.217-.06-.785.841-.686.681-.392.631-.134.857-.358 1.583-.338 1.091-.738.886-1.777.799-.549-.046-1.234-.286-1.762-.033-.13.062-.075.552-.565.728-.457.163-.338-.334-.902-.269.253-.029-1.028.545-.982.527-1.172.44-1.428-.052-1.897 1.158-.219.564-.191.755-.436 1.168-.204.344-.555.664-.733 1.003-.139.263-.025.629-.129.932l-.349.016c-.16.14-.132.302.086.487-.271.553-.687 1.062-.964 1.693-.603 1.374-.018 3.431-1.131 4.563-.215.217-.514-.164-.804.33-.157.268-.115 1.615-.21 1.936-.113.376-.564 1.807-.933 2.133-.181.096-1.146.686-.594.189l-.366-.043c-.163.288-.3.587-.41.898-.213.375-.263.953-.589 1.269-.313.303-.914.297-1.118.498-.453.446-.293.945-.845 1.027-.361 1.018.313 1.986-1.267 2.168-.499.058-1.526-.195-2-.197-1.152-.004-1.548.225-1.406-.069-.552.004-.352-.35-.423-.615-.085.114-1.046-.261-.996-.429-.208.139-.264.446-.722.407-.432-.035-1.3-.876-1.683-1.103-.736-.434-.574-.048-1.359-.94-.504-.572-.971-.963-1.597-1.232-.424-.182-1.212-.038-1.534-.118-.782-.193-1.784-.429-2.558-.81-.287-.14-1.213-.776-1.348-.951-.473-.617.594-.898-.791-1.256-.793-.205-1.663.024-2.478-.208-1.149-.327-2.263-1.087-3.326-1.646-.973-.51-2.035-.955-2.963-1.538-.741-.466-.801-.861-1.258-1.37-.412-.459-1.04-.945-1.739-1.253-.679-.298-1.126.008-1.585-.105-3.079-.761-5.131-4.504-6.163-7.115-.692-1.752-1.288-3.43-1.513-5.387-.24-2.092-.412-3.802-1.402-5.707s-2.331-3.633-3.747-5.241c-.51-.58-1.079-1.128-1.347-1.746-.234-.54-.318-1.156-.693-1.795-.499-.85-.775-1.395-1.632-1.836-.846-.436-.626-.112-1.088-.91-.427-.738-.136-.621-.924-1.036-.211-.112-.592-.025-.834-.137-.605-.28-.783-.79-1.283-1.163-.371-.276-.825-.451-1.193-.651-.341-.187-.813-.742-1.16-.847-.681-.206-1.084-.015-1.658-.126-.394-.076-1.383-.657-1.864-.842-1.336-.515-1.195-1.309-2.421-1.974-1.035-.562-1.671-1.191-2.478-1.924-.483-.439-.619-.312-.947-.898-.358-.641-.264-1.062-.916-1.547-.931-.692-2.008-1.295-3.091-1.795-1.71-.792-2.758-2.833-4.405-3.927-.692-.46-1.204-1.234-1.975-1.739-.781-.511-1.506-.384-2.296-.706-1.03-.42-2.264-1.971-3.101-2.705-1.437-1.258-2.393-2.189-3.337-3.81-.797-1.369-1.766-2.505-3.365-2.508-1.033-.001-1.023-.34-1.896-.628-1.033-.342-2.432-.076-3.474-.002-2.431.173-37.914 1.409-38.179 1.769-.421.571.24 10.619-.892 11.706-.65.626-.237.492-1.243.657-1.031.171-2.175.107-3.216.155l-7.721.344-56.417 2.559c-1.635-.193-42.489-12.784-58.364-17.378l-36.014-10.166c.101-.238.184-.494.227-.796.184-1.318-.168-1.814.697-2.929.55-.707.779-1.356 1.067-2.209l-59.04.622c.321.499-.117 8.678.147 9.353.244.624.938 1.436 1.269 2.076.416.808.856 1.861 1.584 2.45.628.507 1.454.424 2.088.883.697.505 1.019 1.547 1.24 2.356.425 1.56-.111 4.067 1.791 4.745.539.192.521-.272 1.014-.018.399.207.335.862.691 1.286.397.473.657.414 1.153.719.191.116.536.434.746.54.345.173 1.026.275 1.316.498.885.683 1.088 2.677-.084 3.353-.935.54-.464.727-.149 1.595.264.725-.011.93-.075 1.645-.04.455.336.509.215.841-.237.655-1.291-.212-.59 1.09.105.193.571.505.754.68.111.107.448.045.578.189.241.268.243.739.507.972.936.826 2.027.427 2.871 1.737.858 1.33 1.625 2.559 2.68 3.776 1.589 1.834 2.445 3.337 1.982 5.841-.187 1.007-.673 1.794.332 2.218.667.281.827-.106 1.49.422.447.356.584.926.942 1.292.607.618 1.658.883 2.397 1.356 1.713 1.097 1.88 1.921 2.132 3.924.236 1.882.125 3.599.132 5.472.003.773.198 2.256.856 2.798.841.693 2.972-.543 3.821.144.591.478.945 1.439 1.202 2.118.353.93.599 1.858.584 2.854-.006.393-.192.861-.143 1.243.094.737.631 1.185.596 2.054-.025.606-.847 2.178-.568 2.752.32.663 1.271.319 1.949.919 1.48 1.312.491 3.192 1.317 4.497.717 1.133 2.154 1.057 3.021 1.817.409.359.382 1.015.741 1.342.615.561.963.094 1.61.296.79.246 1.428 1.266 2.156 1.686 1.065.615 2.349.751 3.407 1.396.969.59 1.405 1.795 2.297 2.136.7.267 1.735.028 2.503.169.749.138 1.917.293 2.6.621 1.54.736 2.23 2.722 3.753 3.6.642.371 1.363.588 1.859 1.198.517.635.502 1.392 1.227 1.871.189.125.901-.002 1.3.339.366.313.732 1.087.932 1.52.356.767.054 1.123.817 1.871.096.094.499.279.735.564.325.392-.102.687.523 1.007.153.079.689-.41.925-.379.282.036 1.157.381 1.352.539s.203.757.301.83c.006.004.422.019.313-.124.097.127.378.457.543.698.185.272.07.698.299 1.001.255.337.635.088 1.023.536.463.535.442 1.022.899 1.471.408.402 1.023.656 1.381 1.029.436.453-.944.083-.028.703-.066-.045.704.121.629.105.518.115 1.051-.382 1.669.027.811.535.319 1.508.881 2.217.47.592 1.424.547 1.833 1.468.684 1.538-.497 3.742-1.161 5.171-.249.536-1.319 1.918-1.276 2.436.081.966 1.29.685 1.687 1.812.379 1.078-.133 1.881-.197 2.884-.013.2.189 1.041.164 1.147-.145.619-.639.625-.776 1.158l.464-.021c-.39.154-.627.431-.496.953a1.27 1.27 0 0 1-.019-.929c-1.195.054-.951.143-1.826.868-.931.771-.987.474-1.356 1.74.07-.24-.542 1.157-1.358.908-.573-.174-1.606 1.673-1.953 2.036-1.181 1.232-2.167 1.05-3.757 1.081-1.01.021-1.816.098-2.873-.374-.352-.158-.664-.586-1.043-.654-.55-.101-1.088.283-1.66.193-.87-.136-1.337-.711-2.323-.636-.556.042-1.102.39-1.655.381-.63-.012-1-.566-1.388-.583-1.058-.046-.786.104-.466.978.168.46.56 2.04.92 2.393.638.624 1.095-.092 1.74.334.381.252 1.298 2.137 1.506.377.825-.017 1.308.877.517 1.256.248.484 1.251.389 1.669.698.583.43.66 1.116 1.093 1.638.942 1.136 2.148 1.016 3.343 1.663.926.501 2.494 1.527 3.087 2.399.794 1.168.168 3.201.831 4.103.505.687.583-.033 1.164.371.362.252.252.99.63 1.255.404.282.451-.277.776-.142.577.242 1.106.727 1.723.872 1.138.263 1.159-.455 2.387-.303 1.019.127 2.46.852 3.158 1.585.778.817.959 2.429 2.172 2.842.998.339 1.491-.557 2.738-.361 2.832.445 3.303 3.526 5.168 4.832.685.48 1.705 1.721 2.509 1.92.219.054 1.386-.164 1.584-.312.22-.164-.276-.391-.119-.634.334-.519 1.38-1.741 1.657-1.89.223-.119 1.636-.638 1.637.071.001.454-.831.183-1.121.29.81.016 1.674.369 2.415.661.46.182 1.738 1.194 2.136 1.208.757.026 1.686 1.157 2.663 1.441.555.161.986.21 1.487.272.135.017.228-.561.497-.401.495.293-.571.781-.572.968-.003.513 1.487 1.08 1.887 1.43.904.788 1.432 1.349 2.398 1.647 1.245.384 1.49.731 2.424 1.669.363.365.756.584 1.124.88.211-.173 1.167.973 1.155.96.359.382 1.631 1.635 2.119 1.764.268.019.515-.046.741-.196.377-.165.698-.07.965.284.219.031 1.605.437 1.529.676a2.09 2.09 0 0 1 .951.374c1.334.656.992-.693 2.238-.207 1.141.447 1.329 1.749 1.531 2.73.131.638.122 2.144.48 2.668.243.357 1.544.449 2.163.883.869.609 1.397 1.853 1.83 2.789.861 1.862 2.341 4.203 2.418 6.259.023.597.719 2.993.94 4.434.11.714.125 1.348.149 1.897.01.232.127.799.127.771.001.454-.172.6-.138 1.085.027.384.271.823.318 1.237.097.859.168 2.814-.26 3.578-.043.077-.543.237-.683.436-.227.321-.289.748-.387 1.115-.144.543-.122.971-.061 1.468.153 1.235.266 2.057-.232 3.298-.157.391 2.476 6.222 2.463 5.278-.009-.679 1.711 1.071 1.915 1.188.088-.019 1.24-.201 1.118-.29.237.859 1.879 1.578 2.414 2.461.759 1.252 1.438 3.153 1.324 2.755.484-.102 1.668.524 2.01.348.94-.481-.029-.754.624-1.32.98.333.67.767.979 1.589.424 1.122 1.298 2.115 2.267 2.701.533.323.55.096 1.145.589.363.3.629.736.983 1.054.415.375 2.515 1.208 2.645 1.537-.851-.162-1.725-.923-2.513-1.012.404 1.005 2.358 1.38 3.337 1.88 1.654.846 2.971 1.899 4.788 2.217.17.841 2.751 1.71 3.652 2.446a11.66 11.66 0 0 1 2.388 2.602c.721 1.053 1.527 1.177 2.582 1.839 2.275 1.427 3.479 4.034 5.715 5.504 1.591 1.044 3.59 1.049 5.179 1.892 1.81.959 2.419 2.341 3.171 4.103.771 1.811 2.101 2.696 2.879 4.443 1.117 2.508 1.087 5.274 2.108 7.767.392.958 1.159 2.243 1.906 2.987.363.361.928.721 1.438.815.949.172.976-.297 1.625-.601 1.724-.804 3.827-2.003 4.726-3.572 1.23-2.149 3.826-2.343 5.097-4.395.701-1.131 1.196-1.994 1.192-3.307-.002-.912.246-1.953.316-2.822.05-.611.245-1.528-.017-2.288-.163-.474-.698-.837-1.001-1.214-.347-.432-.467-.988-.765-1.366-1.172-1.485-3.965-.918-5.23-2.206-.74-.755-.456-2.037-.532-2.948-.107-1.257-.542-1.443-1.545-2.275-.687-.569-1.585-1.031-1.73-1.939-.134-.835.75-1.866.612-2.605-.215-1.148-1.301-.638-1.966-.324-1.307.615-1.977.233-2.498-1.004-.625-1.485-.554-2.329-2.154-3.106-1.42-.689-1.96-1.251-2.875-2.541-.636-.895-1.229-1.744-2.373-1.474-.819.193-.978.421-1.051.994-.127 1.01.734 1.517.949 2.462.13.566-1.197 1.298-.768 1.154-.592-.583-2.17-.398-2.989-.471-1.451-.129-1.929-.284-3.093-1.164-.838-.634-1.595-.679-2.246-1.256-.694-.613-1.423-1.801-1.618-2.688-.26-1.181-.401-2.087-.809-3.25-.474-1.352-.64-3.04-.119-4.481.44-1.216 1.248-2.169 1.029-3.571a12.59 12.59 0 0 0-.652-2.369c-.248-.609-1.096-1.147-1.307-1.658-.269-.648.029-1.144-.593-1.723-.448-.418-1.179-.367-1.691-.683-.729-.45-1.437-1.586-1.848-2.364-.277-.525-.192-.957-.433-1.485-.25-.55-.758-.83-.917-1.43-.176-.659-.007-1.04-.366-1.698-.341-.625-.915-1.115-1.232-1.791-.469-1.006.067-2.279-.363-3.117-.42-.819-.26-.2-.892-.466-.153-.063-.067-.392-.053-.39-.112-.017-.592.135-.619.127-1.008-.299-1.849-.453-2.523-1.296-.753-.941-.748-2.415-1.427-3.321-.523-.699-1.556-1.006-1.812-2.001-.12-.467.158-.842-.065-1.232-.07-.121-.428.146-.638-.199-.246-.406-.162-.925-.308-1.363-.151-.456-.662-.939-.708-1.401-.032-.334.108-.431.127-.753.012-.197.174-.964.227-1.245.097-.514.537-1.527.42-2.054-.127-.573-.766-1.28-1.068-1.825-.495-.892-1.384-2.201-1.354-3.306.009-.313.467-.172.423-.66-.106-1.18-.687-.848-1.237-1.381-.207-.2-.056-.409-.277-.704-.413-.55-.769-.154-.858-1.055-.072-.721.69-1.231.719-1.867.041-.914-.321-.436-1.066-.705-1.177-.424-1.69-.636-1.856-1.898-.106-.805.344-2.591-.116-3.272-.27-.401-.97-.447-1.378-.643-.713-.342-.725-.605-1.289-1.122-.523-.479-1.197-.852-1.809-1.277-.492-.343-1.379-1.235-1.958-1.385-2.513-.65-2.92-4.474-3.788-5.465-.212-.242-2.679-.741-2.916-.809-.483-.138-1.703-.447-2.166-.651-.663-.292-1.565-.597-1.865-1.321-.339-.82.344-.403.558-.111.399-.665-.884-1.759-1.333-2.275-.968-1.114-1.186-1.892-1.335-3.354-.118-1.159-.368-2.454-1.418-3.043-.487-.272-1.132-.259-1.632-.527-.626-.335-1.038-.866-1.73-1.164-.543-.233-.699-.214-1.401-.373-.513-.116-1.015-.366-1.259-.774-.332-.553-.341-1.115-.952-1.48-.127-.076-.546.234-.826.054-.241-.154-.353-.337-.513-.565-.315-.451-.183-1.131-.464-1.59-.32-.523-1.213-.735-1.35-1.213-.095-.332.234-.585.266-.878.03-.267-.081-.543-.059-.806.068-.836-.028-1.806.317-2.608l-.865.038c.564-.069.959-.183.786-.384-1.19.086-1.107-.351-1.353-1.322-.219-.864-.374-1.829-.483-2.843-.163-1.514-1.38-1.413-2.022-2.68-.343-.677-.059-1.478-.103-2.201-.018-.306-.154-.578-.156-.881-.002-.26.321-.657.281-.859-.284-1.4-.105-.088-.415-.384.227.217-.893-.447-.652-.403-.79-.146-1.283.255-2.059.337-.832.088-1.68-.217-2.398-.653-1.125-.683-1.038-1.472-1.303-2.786-.319-1.585-1.034-2.848-1.438-4.423-.223-.87.161-2.488-1.346-2.522-.702-.015-2.028 1.643-2.771 1.025-.492-.407-.186-2.365-.309-2.816-.128-.466-.223-.381-.507-.729-.11-.134.254-.236.189-.275-.037-.023-.462-.081-.467-.085.586.537-.573.005-.506.021-.127-.029.099-.618-.319-.625-.043-.001-1.044.507-1.071.556-.3.541.807 2.238-.971 1.598-.382-.138-.836-.823-.956-1.182-.246-.731.118-.488.054-.911-.093-.606-.496-.81-.436-1.544.046-.563.367-.439.314-1.088-.098-1.181-1.311-2.108-2.007-2.758-.446-.416-.816-.286-1.141-.973-.299-.634.157-1.206-.384-1.974-.777-1.101-1.918-2.19-2.918-3.049-1.195-1.027-2.294-1.728-3.637-2.621-.857-.568-1.419-1.426-2.353-1.942-1.231-.682-1.723-1.553-2.802-2.525-.552-.499-1.152-.92-1.667-1.41-.733-.696-.638-.95-1.678-1.083-.382-.049-.142-.419-.565-.308-.351.092-.239.52-.592.569-.164.023-1.685-.65-1.922-.846-.983-.815-.165-2.151-.97-3.012-.478-.511-.806-.123-1.314-.453-.37-.241-.32-.76-.597-1.035-.344-.341-.701-.294-1.07-.557-.942-.669-1.003-1.265-1.49-2.324-.335-.729-.799-.934-1.157-1.514-.157-.252-.816-1.283-.87-1.562-.09-.48.147-1.698.162-2.258.061-2.286.5-4.817-.319-7.02-.438-1.182-1.29-2.35-1.421-3.681-.085-.866-.02-1.849-.032-2.723-.014-1.077-.242-1.718-.436-2.718-.171-.883.075-1.341-.633-1.967-.573-.505-1.675-.341-2.217-.877-.596-.591-.311-.518-.376-1.27-.075-.866.135-.423-.301-1.283-.35-.691-1.009-1.006-1.165-1.883-.172-.973-.026-2.23-.024-3.224.003-1.893.157-3.8.246-5.637.035-.717-.032-1.429.15-2.148.234-.921 1.103-1.359 1.374-2.11.312-.866-.494-1.421-.775-2.175-.214-.577.011-1.759-.335-2.22-.336-.448-.114-1.046.851-.694.355.129.783.063 1.132.221.449.202.698.822 1.141.976.814.283 1.686-.189 2.508.052.626.184 1.369.763 1.926 1.23 1.327 1.116 2.581 1.641 4.095 2.454 1.328.712 2.211 1.788 3.721 2.421a6.78 6.78 0 0 0 2.774.559c1.28.006 1.609-.096 2.301-.701.351-.305 1.025-.34 1.212-1.085.257-1.019.922-1.646 1.509-1.562.371.054.151.394.693.528 1.58.395 3.779.856 5.133 1.823 1.097.785.786 1.387.968 2.571.093.604 1.011 2.175-.128 1.869.292.545 1.754.58 2.3.805.489.201.942.605 1.464.728.675.158.862-.182 1.397-.132 1.471.139 5.26.776 6.466 1.537 1.344.848 2.449.993 2.955 1.363.659-.595.45 1.265.424 1.71-.04.669-.037 2.478-.648 2.929-.256-.165-.093.82-.134 1.913-.032.856-.56 1.571-.665 2.398-.118.923.246 1.574.541 2.441.646 1.897 1.435 3.342 2.793 4.849 1.046 1.162 2.436 2.379 3.227 3.73.403.69.779 1.702.73 2.528-.035.596-.517 1.106-.197 1.547.038.053.334-.413.39-.376-.125-.084 2.294 1.058.608.374.482.196 1.039.854 1.299 1.298.871 1.483.328 3.584.839 5.112.295.883.092 1.2.097 2.136.011 1.853.129.603.978.769.502.097.983.769 1.182 1.265.414 1.025.726 1.579 1.346 2.54.401.619.524 1.519 1.016 2.059.283.312.713.368 1.022.732.551.648.781 1.407 1.431 2.038.542.527.998.978 1.438 1.538.808 1.03 1.393 1.156.914 2.773-.494 1.664-.693 2.208.842 3.14 1.374.835.079.313.827-.375 1.436-1.319 3.262.728 3.207 2.106-.023.57-.62 1.345-.467 1.825-.013-.042.692.019.775.11.242.262.599.93.674 1.36.099.566-.224.619-.237 1.077-.02.749.345 1.272.459 1.966-.067-.408.309.961.116.623-.141.098-.187.242-.138.43.189.058.381.078.577.06.097.079.789.234.964.325.395.204 1.373.92 1.615 1.226.353.444.268.803.777 1.252 1.258 1.108 1.752 2.263 1.693 2.616-.175 1.065 3.148 3.033 3.787 3.571.711.599 1.378 1.301 1.845 2.113.312.541.455 1.531.879 1.969.488.505 1.546.674 2.187.899 1.086.38 2.274 1.035 3.389 1.259.066.014.991-.038 1.012-.001.205.373-.693.788-.339 1.538.292.618 1.249.813 1.627 1.364.192.281.062.647.246.927.29.444.314.258.665.646 1.133 1.251 1.945 3.003 3.202 4.184.617.581 1.433 1.025 2.034 1.573.142.13.445.304.615.431.63.474-.113-.008.682.277.106.185-.193.694.084.723.494.052.904-.435 1.311-.589 1.189-.45 1.78-.166 2.709.806-.654.858-.226.703.46 1.241.27.212.655.769 1.123 1.007.615-.21 3.712-2.318 5.186-1.752.357.138 2.51 7.246 1.15 5.887-.821 1.101 1.126 2.71 1.385 3.573.247.825.05 1.553.398 2.358.403.933.425 1.12.496 2.273.492.041 1.397 1.275 1.171 1.804 1.276.686 2.307.657 3.474 1.799.656.641 1.164 1.562 1.797 1.802-.22-.084.868-.053.648-.114.465.128.844.468 1.313.6 1.024.287 2.243.402 3.282.624 1.014.215 1.24-.074 2.043-.21.086-.014.664-.094.789-.041.869.369 1.429 1.357 1.732 2.182.164.446.833 3.966 1.116 4.756.668 1.867 1.898 3.652 3.86 4.397 1.604.609 1.669-.57 3.139-.521.655.022 1.489.523 2.142.328.801-.238 2.017.125 2.161.197.844.421 1.335 1.227 1.967 1.866.831.839 1.825 1.333 2.382 2.486.792 1.637-.327 7.652-.199 7.072-.435 2.204-2.357 3.854-3.166 5.789-.402.959-.607 2.169-.261 3.134.04.11.216 3.634.418 4.056.19.396.464.558.621 1.108.133.463.3 1.55.041 2.463.232.395 1.365.294 1.763.262 1.102-.09 1.625-.459 2.728.168.379.216 2.973 1.83 3.258 2.619.137.38 9.559 2.957 9.254 3.85.976.473 2.362.171 3.458.595.946.365 1.793.834 2.74 1.177.885.321 1.639.613 2.103 1.512.369.716 3.118 1.669 4.011 1.593.761-.066-.001-.479.774-.088.289.146.56.858.817 1.072.591.49 1.458.917 1.199-.165.82-.087 2.322 1.225 2.787 1.846.172.23.781.935.627 1.264-.188.402.23.645.319 1.68.036.412-.146 1.367-.158 1.846-.011.457.141.732-.205 1.097.683.408 1.564 2.229.285 2.147.016.001-.543.163-.327.56.366.668.114 1.436.458 2.099.306.591 1.091 1.035 1.61 1.419.292.215 3.023 1.544 3.852 2.891.395.644 1.781 1.262 2.444 1.627 1.443.795 3.02 1.431 4.338 2.452.571.441.995.968 1.611 1.378.292.195 1.064.398 1.276.585.709.622.86 1.235 1.929 1.85 2.385 1.374 4.489 3.004 6.738 4.607 1.274.909 2.188 1.962 3.316 3.033 1.084 1.029 1.367 1.813 2.109 3.142.325.583.921.957 1.225 1.484.433.752.14 1.393.873 2.058.5.452 1.247.442 1.763.88.474.404.663 1.032 1.061 1.492.917 1.058 1.75 1.926 2.898 2.742.913.65 1.773 1.536 1.953 2.504.535.189.044.497.086.585.105.221.357.449.455.675.256.589.81 1.041 1.064 1.627.23.532-.042 1.044.431 1.359.067.044.337-.411.521-.32a23.3 23.3 0 0 1 .693.362c.701.379 1.182 1.329 1.729 1.887.628.641 1.362.892 2.054 1.442 1.049.834 1.882 2.138 2.795 3.139.66.723 1.39 2.042 2.158 2.556.388-.397.489-.723 1.08-.685-.79 1.364.333 1.173 1.335 2.051.858.752 1.433 1.679 2.327 2.396 1.29 1.033 2.062 2.498 2.459 4.021.368-.641.876-.197.827.48-.257-.032-.237-.035-.422-.047-.079.289.453 1.16.63 1.231.006.003.017 0 .024.003-.016.004-.036.01-.051.014 1.458 2.219 2.303 4.603 2.223 7.335-.072 2.467-.902 4.841.812 6.85 1.461 1.711 2.677 3.433 3.735 5.43.269.507.635 1.036.813 1.583.176.539.065 1.354.38 1.803.498.712 2.965 1.7 3.725 1.98 1.126.415 1.87-.113 2.368 1.162.55 1.407-.667 1.814-.838 3.3-.162 1.396.613 2.849.572 4.276-.027.951.316 3.29-.519 4.142-.47.48-.902.291-1.432.676-.481.349-.715 1.27-1.051 1.72-.32.43-.804 1.107-1.145 1.495-.305.346-.758.608-.973 1.019-.228.436-.091 1.137-.462 1.506-.665.66-.181 1.511.092 1.616 1.236.471 1.476-.142 2.564-.291 1.438-.196.946.654 1.73 1.337.869.755 1.211.993 1.517 2.322.365 1.584-.431 1.538-1.392 2.195-.365.248-.504.703-.886.939-1.583.981-3.588.578-5.268.995-.969.24-2.863 1.399-3.102 2.281-.323 1.197 1.039 2.564 1.646 3.497.373.573.968.947 1.304 1.48.511.808.421 1.682.547 2.589.235 1.684 1.055 3.091 1.933 4.546 1.005 1.664 2.548 2.871 3.695 4.414.99 1.329 1.472 2.478 2.734 3.525.381.316.696.742 1.045 1.054-.028-.025 1.025.566.866.506-.614-.232.88.48.662.339.242.156.437.065.729.339.818.767.951 2.701 1.372 3.493.198.371.662.669.894 1.16.281.591-.045.31.472.965.533.675 1.345.955 2.053 1.355.895.506 1.012.457 1.993.403.735-.04.044-.65 1.185-.124.09.829-.769 1.722.346 1.898.299.047.644-.36.918-.328.373.045.282.256.519.319.564.151.698.342 1.09.623.767.549 1.314.884 2.354 1.097-.029-.163-.042-.289-.046-.397.167.858 2.115.699 2.842 1.093.87.471.822.798 1.822.481.233-.074 1.906 1.284 1.994 1.682.169.776.876.771 1.537 1.004 2.611.922 5.849 1.48 8.077 3.175 1.018.775 1.952 1.701 2.945 2.514.763.625 2.413 1.858 2.323 1.947.486.321 1.204 2.549 1.11 2.632.203.357 1.261.981 1.636 1.256 1.298.948 1.94 1.433 2.741 2.936.637 1.196.983 2.22 2.127 2.908 1.345.809 2.674 1.035 4.146 1.377 2.021.469 3.896 1.124 5.925 1.473 2.792.48 5.237 2.477 7.992 3.228 1.316.359 2.634.042 3.94.334 1.082.241 2.099.533 3.15.814 1.392.372 2.746.796 4.147 1.131.966.23 4.98-1.442 7.358-1.024 1.476.259 4.251 1.809 5.201 2.973.593.726.848 1.443 1.485 2.12.567.602 1.266 1.113 1.73 1.806.646.965 1.322 2.375 2.649 2.489.372.12 1.038-.157 1.566.026.777.269 1.025 1.166 1.343 1.697.386.642.537.785 1.41 1.151 1.204.505 2.433.867 3.543 1.57 1.04.659 2.168 1.291 3.186 1.993.458.316.881.67 1.253 1.085.3.333.472 1.032.633 1.221.333.389.156.11.812.354.284.105.575.242.883.345.788.263 1.464.676 2.246 1.009 1.209.514 2.538.637 3.796.986 1.008.279 1.893.792 2.882 1.097 2.736.843 5.473 1.564 8.157 2.617.999.391 1.968 1.088 2.958 1.429.764.263 1.598.009 2.365.194.717.173 1.235.633 1.899.895.993.392 1.672.394 2.434 1.249 1.058 1.187 1.273 1.156 2.172 2.042.379.374 1.607.79 2.097 1.076.977.57 2.041.849 3.168.907 1.059.055 2.285.436 3.641.435 1.028 0 2.103-.123 3.113.125.507.125.89.47 1.34.624.581.201 1.158.172 1.798.213 1.105.069 2.046.498 3.161.628.834.097 1.685-.044 2.501.234.943.32 2.833 1.992 3.842 1.572.251-.105 2.819-.056 3.446.827 1.227 1.728 2.968 2.676 4.095 4.419.047-.055.055.055.085.13.126.319 1.923.738 2.168.816 1.467.47 2.926.316 4.379.714.587.16 1.263.593 1.888.555.64-.039 3.113 1.269 3.846 1.606 1.471.686 3.68 1.679 4.728 2.921.133-.142 7.036 1.754 10.598 2.29 1.883.285 3.711.12 5.594.357 1.821.231 2.915.927 4.399 1.923 1.402.94 3.353 1.873 4.926 2.585 1.324.599 2.806.276 4.199.783 1.575.573 2.554.963 4.177 1.107 1.126.1.807.17 1.578-.275.823-.477.102-.664 1.308-.728 1.308-.069 2.566.241 3.918-.049 1.364-.292 2.12-.824 3.229-1.631.906-.66 1.675-.776 2.702-1.522 1.492-1.084 3.117-1.624 4.833-2.256.79-.291 1.156-.778 1.911-1.124.791-.363 1.687-.549 2.493-.905 1.642-.726 3.791-.847 5.29-1.813 1.143-.736.505-1.513 1.595-2.324.425-.317 1.042-.369 1.419-.783.317-.35.228-.694.444-.947.567-.665 1.979-.49 2.514-1.026.345-.345-.231-.883.471-1.097.02-.006 1.206.351 1.444.34 1.39-.062 2.71-.696 4.059-.912 1.234-.197 9.115.303 9.572.282 2.301-.1 4.012.94 6.169 1.409.016-.077.678-1.941 1.918-2.146.766-.126.772-1.078 1.6-.464.44.326 2.632 2.604 2.932 2.696 1.706.523 1.923 2.004 1.95 2.813.014.325 1.826.89 2.119 1.069l4.312 2.665c3.006 1.883 5.515 4.438 8.391 6.507 1.313.944 2.719 1.941 3.96 2.945 1.44 1.167 2.19 2.96 3.738 4.028 1.094.755 1.985 1.629 3.057 2.313.778.496 1.864 1.03 2.482 1.727.516.582.956 1.57 1.552 2.238 1.407 1.579 2.822 3.152 4.335 4.631 2.736 2.676 5.381 5.714 8.369 8.126 1.108.894 1.638 1.968 2.373.602.579-1.077 1.176-2.769.892-4.036-.197-.881-.661-1.714-.771-2.628-.132-1.098.322-.848.703-1.675.352-.765.041-1.196-.036-2.018-.06-.641-.137-.994.285-1.498.336-.401.704-.168 1.066-.512.978-.925.192-1.98-.459-2.838-.533-.702-1.083-1.393-1.643-2.074-.783-.953-1.049-.931-.798-2.032.363-1.588 1.6-3.334 2.274-4.848 2.113-4.753 4.497-9.39 6.799-14.054.73-1.478.825-2.992 2.562-3.104 1.624-.105 3.252-.168 4.878-.245l14.065-.618 5.938-.25 1.474-.061c.725-.034 3.747.241 4.124-.188.398-.452-.34-.702-.269-1.028.114-.517.51-.175.668-.643.346-1.027-.444-.82-.638-1.363-.358-1.009.344-.581.378-1.31.019-.41.109-.688.085-.652.303-.45.219-.633.306-1.029.012-.054-.356-.292-.328-.392.14-.501.978-1.622 1.189-1.482.147-.161-.755-1.448-.948-1.543-.441-.217-.738.113-1.114-.037-.737-.293-.158-.399-.543-.676-.235-.169-.674-.252-.943-.39.248.127-1.424-.443-.672-.408-.736-.034-2.059-1.025-2.54-1.734-.67-.988-.172-1.167-.376-2.213-.185-.954-1.495-2.51-2.285-3.115-.32-.245-.798-.289-1.071-.55-.167-.159-.388-.797-.505-.858-.308-.16-.727.287-1.044.193-.247-.074-.659-.467-.895-.584-.637-.316-.563.107-1.135-.424-.291-.27-1.941-1.225-2.186-1.277-.917-.198-.887-.183-1.346-.739-.387-.468-.933-1.225-1.311-1.746-.19-.261-.026-.571-.362-.86-.187-.161-.694-.022-.925-.14-1.042-.534-1.01-1.509-1.675-2.246-.318-.353-.709-.132-1.016-.578-.213-.309.034-.825-.199-1.109-.658-.807-1.497.163-2.03-.103-.217-.107-.821-.796-1.141-.985-.476-.281-1.79-.813-.298-.994.941.135 2.342-.17 3.073-.191 2.376-.071 5.116-.577 7.471-.257l-.034-.56c.399-4.146-.435-8.627-.586-12.79l-.088-2.155c.041.065 30.004-1.172 32.309-1.279l3.174-.146c.992-.046 7.051-.027 8.971-.393 1.086-.207 1.084.095 1.022-1.265-.052-1.128-.466-2.078.296-2.903.322-.348 1.86-1.155 2.346-1.065.663.123.619.689 1.122 1.056.255.187.782-.074 1.036.075s.522.657.762.856c.481.399 1.218 1.02 1.749 1.326.265-.215.148-1.643.482-2.102.482-.658.978-1.098 1.427-1.848.149-.249.209-.543.367-.748.131-.169.676-.323.771-.475.184-.29-.005-.866.064-1.188.114-.531.453-.953.616-1.465.057-.176-.149-.684-.105-.757.189-.311.664-.435.941-.64 1.11-.819.782-.957 1.188-2.208.245-.756.845-1.155 1.154-1.885.315-.745.284-1.62.599-2.376 1.121-2.688 4.473-.057 5.83-2.09.911-1.364 1.307-3.116 2.115-4.552.297-.529.658-.189.488-.732-.132-.421-.049-.261.81-.675-.007-1.299.833-3.465 1.916-4.134.316 1.063.822 1.761.886 2.794.021.346-.054.739-.035 1.016.015.206.289 1.153.284 1.253-.051 1.001-.887 1.757-1.074 2.716-.045.231.163.574.067.875-.154.486-.767.281-.761.959.012 1.495 3.397 1.43 3.953 2.296.126.196-.264.465-.123.791.182.416.598.073.857.424a12.41 12.41 0 0 1 .554 1.262c.088.708 1.194.498 1.562-.284.387-.826 1.071-1.525 1.287-2.448.281-1.206.293-2.889.323-4.083.02-.808-.136-1.771.136-2.577.41-1.219 1.513-1.751 1.74-3.078.247-1.44.488-2.786.601-4.275.082-1.088.613-2.12.713-3.128a.45.45 0 0 0-.234.282c-.123-.522.36-.81.597-1.292.354-.717.331-1.313.374-2.05.104-1.781 1.114-2.832 1.95-4.255-1.119.005-.307.331-1.184 1.004-.105-.438.488-.945.145-1.224.052.043.714-3.074 1.196-3.823.442-.688.465-1.459.529-2.247.039-.473.183-.76.078-1.246-.092-.424-.5-.622-.558-1.099.162.613-.006-6.658-.301-7.614-.399-1.295-.923-1.955-1.028-3.409a9.68 9.68 0 0 1 .385-3.645c.157-.527.328-1.107.636-1.569.241-.361 1.113-1.659 1.286-1.644-.448-.248 2.547-4.897 2.988-5.479.704-.932 1.303-1.574 2.212-2.283 1.41-1.098 1.905-2.057 2.935-3.477.992-1.366 2.512-2.657 3.213-4.254.523-1.189 1.962-5.106 2.055-5.28.171-.319-.121-.852.045-1.25.181-.456-.623-2.127-.978-3.148z" stroke-width="4.336"></path>
    <path d="M1016.55 737.482a8.13 8.13 0 0 1-16.26 0 8.13 8.13 0 0 1 16.26 0zm-8.13 367.356a8.13 8.13 0 1 1-16.261 0 8.13 8.13 0 1 1 16.261 0z" class="C"></path>
  </g>
  <path d="M1544.207 1133.825c0 2.245-1.82 4.064-4.066 4.064s-4.065-1.819-4.065-4.064 1.82-4.063 4.065-4.063 4.066 1.819 4.066 4.063zm342.285-193.16c0 2.245-1.82 4.064-4.065 4.064s-4.065-1.819-4.065-4.064 1.82-4.063 4.065-4.063 4.065 1.819 4.065 4.063zm-586.194-32.238c0 2.244-1.82 4.063-4.066 4.063s-4.065-1.819-4.065-4.063 1.82-4.064 4.065-4.064 4.066 1.82 4.066 4.064zm361.798-246.53c0 2.244-1.82 4.064-4.065 4.064s-4.065-1.82-4.065-4.064 1.82-4.064 4.065-4.064 4.065 1.82 4.065 4.064z" fill="#fff" class="B"></path>
  <g stroke="#fff" class="E">
    <g class="C D">
      <path d="M1581.335 737.211v-15.442"></path>
      <path d="M1589.059 729.49h-15.448m-472.235 261.836v-15.442"></path>
      <path d="M1109.1 983.605h-15.447m769.532-157.806v-15.442"></path>
      <path d="M1870.909 818.078h-15.447m-479.553 302.202v-15.442"></path>
      <path d="M1383.633 1112.559h-15.447M939 1022.116l10.923-10.92"></path>
      <path d="M949.923 1022.116L939 1011.196m479.417-380.277L1429.34 620"></path>
      <path d="M1429.34 630.919L1418.417 620m469.66 525.109L1899 1134.19"></path>
      <path d="M1899 1145.109l-10.923-10.919"></path>
    </g>
    <g stroke-width="2.71" class="D">
      <path d="M1171.839 1123.92v-6.349m-4.132 8.06l-4.492-4.49m2.78 8.621h-6.351m8.063 4.13l-4.492 4.49m8.624-2.779v6.35m4.132-8.061l4.491 4.49m-2.779-8.62h6.351m-8.063-4.131l4.491-4.49m652.641-484.32v-6.349m-4.132 8.06l-4.491-4.49m2.78 8.62h-6.352m8.063 4.131l-4.491 4.49m8.623-2.779v6.349m4.132-8.06l4.492 4.49m-2.78-8.621h6.352m-8.064-4.13l4.492-4.49M989.856 856.155v-5.432m-3.536 6.896l-3.842-3.841m2.378 7.375h-5.434"></path>
      <path d="M986.32 864.687l-3.842 3.841m7.378-2.378v5.433m3.535-6.896l3.843 3.841m-2.379-7.375h5.435m-6.899-3.534l3.843-3.841"></path>
    </g>
    <path d="M1234.307 999.194l5.003 8.664 5.004 8.662h-10.007-10.007l5.003-8.662 5.004-8.664zm588.904 85.337l5.004 8.664 5.003 8.663h-10.007-10.007l5.004-8.663 5.003-8.664zm-165.045-214.845l-5.003-8.663-5.004-8.663h10.007 10.007l-5.003 8.663-5.004 8.663zM974.408 642.65l-5.003-8.663-5.004-8.663h10.007 10.007l-5.003 8.663-5.004 8.663z" fill="none" class="C"></path>
  </g>
  <g fill="#fff" class="B">
    <use xlink:href="#B"></use>
    <path d="M1388.388 960.21v-5.125h3.7v7.1h0q-1.425 1.075-3.3 1.65h0 0q-1.875.575-3.775.575h0 0q-2.725 0-4.9-1.162h0 0q-2.175-1.163-3.412-3.225h0 0q-1.238-2.063-1.238-4.663h0 0q0-2.6 1.238-4.662h0 0q1.237-2.063 3.437-3.225h0 0q2.2-1.163 4.95-1.163h0 0q2.3 0 4.175.775h0 0q1.875.775 3.15 2.25h0l-2.6 2.4h0q-1.875-1.975-4.525-1.975h0 0q-1.675 0-2.975.7h0 0q-1.3.7-2.025 1.975h0 0q-.725 1.275-.725 2.925h0 0q0 1.625.725 2.9h0 0q.725 1.275 2.013 1.988h0 0q1.287.712 2.937.712h0 0q1.75 0 3.15-.75h0 0zm7.45 3.9v-17.5h7.95 0q2.85 0 5.038 1.088h0 0q2.187 1.087 3.4 3.062h0 0q1.212 1.975 1.212 4.6h0 0q0 2.625-1.212 4.6h0 0q-1.213 1.975-3.4 3.063h0 0q-2.188 1.087-5.038 1.087h0-7.95 0zm4.05-3.325h3.7 0q2.625 0 4.188-1.462h0 0q1.562-1.463 1.562-3.963h0 0q0-2.5-1.562-3.962h0 0q-1.563-1.463-4.188-1.463h0-3.7v10.85h0zm16.6 3.325v-17.5h4.05v14.2h8.775v3.3h-12.825 0z"></path>
    <use xlink:href="#B" x="61" y="-151"></use>
    <path d="M1456.85 813.11h-3.8l-.025-10.5-5.15 8.65h-1.825l-5.125-8.425v10.275h-3.8v-17.5h3.35l6.55 10.875 6.45-10.875h3.325l.05 17.5h0zm7.775 0v-14.2h-5.6v-3.3h15.25v3.3h-5.6v14.2h-4.05 0zm26.7-17.5l-6.8 11.3v6.2h-4.05v-6.25l-6.775-11.25h4.3l4.675 7.775 4.675-7.775h3.975 0z"></path>
    <use xlink:href="#B" x="107" y="50"></use>
    <path d="M1479.1 1014.41h0q-2.675 0-4.837-1.162h0 0q-2.163-1.163-3.4-3.225h0 0q-1.238-2.063-1.238-4.663h0 0q0-2.6 1.238-4.662h0 0q1.237-2.063 3.4-3.225h0 0q2.162-1.163 4.862-1.163h0 0q2.275 0 4.113.8h0 0q1.837.8 3.087 2.3h0l-2.6 2.4h0q-1.775-2.05-4.4-2.05h0 0q-1.625 0-2.9.713h0 0q-1.275.712-1.987 1.987h0 0q-.713 1.275-.713 2.9h0 0q0 1.625.713 2.9h0 0q.712 1.275 1.987 1.988h0 0q1.275.712 2.9.712h0 0q2.625 0 4.4-2.075h0l2.6 2.4h0q-1.25 1.525-3.1 2.325h0 0q-1.85.8-4.125.8h0 0zm9.95-.3v-17.5h7.95 0q2.85 0 5.038 1.088h0 0q2.187 1.087 3.4 3.062h0 0q1.212 1.975 1.212 4.6h0 0q0 2.625-1.212 4.6h0 0q-1.213 1.975-3.4 3.063h0 0q-2.188 1.087-5.038 1.087h0-7.95 0zm4.05-3.325h3.7 0q2.625 0 4.188-1.462h0 0q1.562-1.463 1.562-3.963h0 0q0-2.5-1.562-3.962h0 0q-1.563-1.463-4.188-1.463h0-3.7v10.85h0zm36.325 3.325h-3.8l-.025-10.5-5.15 8.65h-1.825l-5.125-8.425v10.275h-3.8v-17.5h3.35l6.55 10.875 6.45-10.875h3.325l.05 17.5h0zm19.85 0h-4.675l-4.225-6.075-4.15 6.075h-4.65l6.475-8.9-6.15-8.6h4.6l4.025 5.675 3.95-5.675h4.375l-6.1 8.45 6.525 9.05h0z"></path>
  </g>
  <defs>
    <path id="B" d="M1401.499 917.11c-4.685 0-8.499-3.589-8.499-8s3.814-8 8.499-8 8.501 3.589 8.501 8-3.813 8-8.501 8zm.501-22c-8.271 0-15 6.24-15 13.909 0 6.846 4.197 13.96 7.717 18.721 3.062 4.14 6.149 7.261 7.291 8.37 1.149-1.084 4.237-4.123 7.291-8.209 3.514-4.701 7.701-11.793 7.701-18.882 0-7.669-6.729-13.909-15-13.909z"></path>
  </defs>
</svg>
